%TF.GenerationSoftware,KiCad,Pcbnew,8.0.6*%
%TF.CreationDate,2024-11-13T01:29:07+01:00*%
%TF.ProjectId,Mainboard,4d61696e-626f-4617-9264-2e6b69636164,rev?*%
%TF.SameCoordinates,Original*%
%TF.FileFunction,Legend,Bot*%
%TF.FilePolarity,Positive*%
%FSLAX46Y46*%
G04 Gerber Fmt 4.6, Leading zero omitted, Abs format (unit mm)*
G04 Created by KiCad (PCBNEW 8.0.6) date 2024-11-13 01:29:07*
%MOMM*%
%LPD*%
G01*
G04 APERTURE LIST*
%ADD10C,0.100000*%
%ADD11C,0.050000*%
%ADD12C,0.254000*%
%ADD13C,0.150000*%
%ADD14C,0.200000*%
%ADD15C,0.127000*%
%ADD16C,0.120000*%
%ADD17C,0.350000*%
%ADD18O,0.600000X1.700000*%
G04 APERTURE END LIST*
D10*
X105411027Y-123054152D02*
X105411027Y-123454152D01*
X105411027Y-123454152D02*
X105544360Y-123168438D01*
X105544360Y-123168438D02*
X105677693Y-123454152D01*
X105677693Y-123454152D02*
X105677693Y-123054152D01*
X106077693Y-123054152D02*
X105849122Y-123054152D01*
X105963408Y-123054152D02*
X105963408Y-123454152D01*
X105963408Y-123454152D02*
X105925312Y-123397009D01*
X105925312Y-123397009D02*
X105887217Y-123358914D01*
X105887217Y-123358914D02*
X105849122Y-123339866D01*
X106153884Y-123016057D02*
X106458645Y-123016057D01*
X106553884Y-123054152D02*
X106553884Y-123454152D01*
X106553884Y-123263676D02*
X106782455Y-123263676D01*
X106782455Y-123054152D02*
X106782455Y-123454152D01*
X106934836Y-123454152D02*
X107182455Y-123454152D01*
X107182455Y-123454152D02*
X107049122Y-123301771D01*
X107049122Y-123301771D02*
X107106265Y-123301771D01*
X107106265Y-123301771D02*
X107144360Y-123282723D01*
X107144360Y-123282723D02*
X107163408Y-123263676D01*
X107163408Y-123263676D02*
X107182455Y-123225580D01*
X107182455Y-123225580D02*
X107182455Y-123130342D01*
X107182455Y-123130342D02*
X107163408Y-123092247D01*
X107163408Y-123092247D02*
X107144360Y-123073200D01*
X107144360Y-123073200D02*
X107106265Y-123054152D01*
X107106265Y-123054152D02*
X106991979Y-123054152D01*
X106991979Y-123054152D02*
X106953884Y-123073200D01*
X106953884Y-123073200D02*
X106934836Y-123092247D01*
X105411027Y-139054152D02*
X105411027Y-139454152D01*
X105411027Y-139454152D02*
X105544360Y-139168438D01*
X105544360Y-139168438D02*
X105677693Y-139454152D01*
X105677693Y-139454152D02*
X105677693Y-139054152D01*
X105830074Y-139454152D02*
X106077693Y-139454152D01*
X106077693Y-139454152D02*
X105944360Y-139301771D01*
X105944360Y-139301771D02*
X106001503Y-139301771D01*
X106001503Y-139301771D02*
X106039598Y-139282723D01*
X106039598Y-139282723D02*
X106058646Y-139263676D01*
X106058646Y-139263676D02*
X106077693Y-139225580D01*
X106077693Y-139225580D02*
X106077693Y-139130342D01*
X106077693Y-139130342D02*
X106058646Y-139092247D01*
X106058646Y-139092247D02*
X106039598Y-139073200D01*
X106039598Y-139073200D02*
X106001503Y-139054152D01*
X106001503Y-139054152D02*
X105887217Y-139054152D01*
X105887217Y-139054152D02*
X105849122Y-139073200D01*
X105849122Y-139073200D02*
X105830074Y-139092247D01*
X106153884Y-139016057D02*
X106458645Y-139016057D01*
X106553884Y-139054152D02*
X106553884Y-139454152D01*
X106553884Y-139263676D02*
X106782455Y-139263676D01*
X106782455Y-139054152D02*
X106782455Y-139454152D01*
X106934836Y-139454152D02*
X107182455Y-139454152D01*
X107182455Y-139454152D02*
X107049122Y-139301771D01*
X107049122Y-139301771D02*
X107106265Y-139301771D01*
X107106265Y-139301771D02*
X107144360Y-139282723D01*
X107144360Y-139282723D02*
X107163408Y-139263676D01*
X107163408Y-139263676D02*
X107182455Y-139225580D01*
X107182455Y-139225580D02*
X107182455Y-139130342D01*
X107182455Y-139130342D02*
X107163408Y-139092247D01*
X107163408Y-139092247D02*
X107144360Y-139073200D01*
X107144360Y-139073200D02*
X107106265Y-139054152D01*
X107106265Y-139054152D02*
X106991979Y-139054152D01*
X106991979Y-139054152D02*
X106953884Y-139073200D01*
X106953884Y-139073200D02*
X106934836Y-139092247D01*
X106820551Y-117454152D02*
X106630075Y-117454152D01*
X106630075Y-117454152D02*
X106611027Y-117263676D01*
X106611027Y-117263676D02*
X106630075Y-117282723D01*
X106630075Y-117282723D02*
X106668170Y-117301771D01*
X106668170Y-117301771D02*
X106763408Y-117301771D01*
X106763408Y-117301771D02*
X106801503Y-117282723D01*
X106801503Y-117282723D02*
X106820551Y-117263676D01*
X106820551Y-117263676D02*
X106839598Y-117225580D01*
X106839598Y-117225580D02*
X106839598Y-117130342D01*
X106839598Y-117130342D02*
X106820551Y-117092247D01*
X106820551Y-117092247D02*
X106801503Y-117073200D01*
X106801503Y-117073200D02*
X106763408Y-117054152D01*
X106763408Y-117054152D02*
X106668170Y-117054152D01*
X106668170Y-117054152D02*
X106630075Y-117073200D01*
X106630075Y-117073200D02*
X106611027Y-117092247D01*
X106953884Y-117454152D02*
X107087217Y-117054152D01*
X107087217Y-117054152D02*
X107220550Y-117454152D01*
D11*
X267544247Y-104108173D02*
X267544247Y-103908173D01*
X267544247Y-103908173D02*
X267477581Y-104051030D01*
X267477581Y-104051030D02*
X267410914Y-103908173D01*
X267410914Y-103908173D02*
X267410914Y-104108173D01*
X267325200Y-103927221D02*
X267315676Y-103917697D01*
X267315676Y-103917697D02*
X267296629Y-103908173D01*
X267296629Y-103908173D02*
X267249010Y-103908173D01*
X267249010Y-103908173D02*
X267229962Y-103917697D01*
X267229962Y-103917697D02*
X267220438Y-103927221D01*
X267220438Y-103927221D02*
X267210915Y-103946269D01*
X267210915Y-103946269D02*
X267210915Y-103965316D01*
X267210915Y-103965316D02*
X267220438Y-103993888D01*
X267220438Y-103993888D02*
X267334724Y-104108173D01*
X267334724Y-104108173D02*
X267210915Y-104108173D01*
X267172820Y-104127221D02*
X267020439Y-104127221D01*
X266858534Y-104089126D02*
X266868058Y-104098650D01*
X266868058Y-104098650D02*
X266896629Y-104108173D01*
X266896629Y-104108173D02*
X266915677Y-104108173D01*
X266915677Y-104108173D02*
X266944248Y-104098650D01*
X266944248Y-104098650D02*
X266963296Y-104079602D01*
X266963296Y-104079602D02*
X266972819Y-104060554D01*
X266972819Y-104060554D02*
X266982343Y-104022459D01*
X266982343Y-104022459D02*
X266982343Y-103993888D01*
X266982343Y-103993888D02*
X266972819Y-103955792D01*
X266972819Y-103955792D02*
X266963296Y-103936745D01*
X266963296Y-103936745D02*
X266944248Y-103917697D01*
X266944248Y-103917697D02*
X266915677Y-103908173D01*
X266915677Y-103908173D02*
X266896629Y-103908173D01*
X266896629Y-103908173D02*
X266868058Y-103917697D01*
X266868058Y-103917697D02*
X266858534Y-103927221D01*
X266772819Y-104108173D02*
X266772819Y-103908173D01*
X266772819Y-104003411D02*
X266658534Y-104003411D01*
X266658534Y-104108173D02*
X266658534Y-103908173D01*
X266610915Y-104127221D02*
X266458534Y-104127221D01*
X266420438Y-104051030D02*
X266325200Y-104051030D01*
X266439486Y-104108173D02*
X266372819Y-103908173D01*
X266372819Y-103908173D02*
X266306153Y-104108173D01*
D10*
X268592304Y-138186347D02*
X268782780Y-138186347D01*
X268782780Y-138186347D02*
X268801828Y-138376823D01*
X268801828Y-138376823D02*
X268782780Y-138357776D01*
X268782780Y-138357776D02*
X268744685Y-138338728D01*
X268744685Y-138338728D02*
X268649447Y-138338728D01*
X268649447Y-138338728D02*
X268611352Y-138357776D01*
X268611352Y-138357776D02*
X268592304Y-138376823D01*
X268592304Y-138376823D02*
X268573257Y-138414919D01*
X268573257Y-138414919D02*
X268573257Y-138510157D01*
X268573257Y-138510157D02*
X268592304Y-138548252D01*
X268592304Y-138548252D02*
X268611352Y-138567300D01*
X268611352Y-138567300D02*
X268649447Y-138586347D01*
X268649447Y-138586347D02*
X268744685Y-138586347D01*
X268744685Y-138586347D02*
X268782780Y-138567300D01*
X268782780Y-138567300D02*
X268801828Y-138548252D01*
X268458971Y-138186347D02*
X268325638Y-138586347D01*
X268325638Y-138586347D02*
X268192305Y-138186347D01*
X270001828Y-121945847D02*
X270001828Y-121545847D01*
X270001828Y-121545847D02*
X269868495Y-121831561D01*
X269868495Y-121831561D02*
X269735162Y-121545847D01*
X269735162Y-121545847D02*
X269735162Y-121945847D01*
X269563733Y-121583942D02*
X269544685Y-121564895D01*
X269544685Y-121564895D02*
X269506590Y-121545847D01*
X269506590Y-121545847D02*
X269411352Y-121545847D01*
X269411352Y-121545847D02*
X269373257Y-121564895D01*
X269373257Y-121564895D02*
X269354209Y-121583942D01*
X269354209Y-121583942D02*
X269335162Y-121622038D01*
X269335162Y-121622038D02*
X269335162Y-121660133D01*
X269335162Y-121660133D02*
X269354209Y-121717276D01*
X269354209Y-121717276D02*
X269582781Y-121945847D01*
X269582781Y-121945847D02*
X269335162Y-121945847D01*
X269258972Y-121983942D02*
X268954210Y-121983942D01*
X268858971Y-121945847D02*
X268858971Y-121545847D01*
X268858971Y-121736323D02*
X268630400Y-121736323D01*
X268630400Y-121945847D02*
X268630400Y-121545847D01*
X268230400Y-121945847D02*
X268458971Y-121945847D01*
X268344685Y-121945847D02*
X268344685Y-121545847D01*
X268344685Y-121545847D02*
X268382781Y-121602990D01*
X268382781Y-121602990D02*
X268420876Y-121641085D01*
X268420876Y-121641085D02*
X268458971Y-121660133D01*
D11*
X267614724Y-149282923D02*
X267614724Y-149082923D01*
X267614724Y-149082923D02*
X267548058Y-149225780D01*
X267548058Y-149225780D02*
X267481391Y-149082923D01*
X267481391Y-149082923D02*
X267481391Y-149282923D01*
X267300439Y-149149590D02*
X267300439Y-149282923D01*
X267348058Y-149073400D02*
X267395677Y-149216257D01*
X267395677Y-149216257D02*
X267271868Y-149216257D01*
X267243297Y-149301971D02*
X267090916Y-149301971D01*
X266929011Y-149263876D02*
X266938535Y-149273400D01*
X266938535Y-149273400D02*
X266967106Y-149282923D01*
X266967106Y-149282923D02*
X266986154Y-149282923D01*
X266986154Y-149282923D02*
X267014725Y-149273400D01*
X267014725Y-149273400D02*
X267033773Y-149254352D01*
X267033773Y-149254352D02*
X267043296Y-149235304D01*
X267043296Y-149235304D02*
X267052820Y-149197209D01*
X267052820Y-149197209D02*
X267052820Y-149168638D01*
X267052820Y-149168638D02*
X267043296Y-149130542D01*
X267043296Y-149130542D02*
X267033773Y-149111495D01*
X267033773Y-149111495D02*
X267014725Y-149092447D01*
X267014725Y-149092447D02*
X266986154Y-149082923D01*
X266986154Y-149082923D02*
X266967106Y-149082923D01*
X266967106Y-149082923D02*
X266938535Y-149092447D01*
X266938535Y-149092447D02*
X266929011Y-149101971D01*
X266843296Y-149282923D02*
X266843296Y-149082923D01*
X266843296Y-149178161D02*
X266729011Y-149178161D01*
X266729011Y-149282923D02*
X266729011Y-149082923D01*
X266681392Y-149301971D02*
X266529011Y-149301971D01*
X266490915Y-149225780D02*
X266395677Y-149225780D01*
X266509963Y-149282923D02*
X266443296Y-149082923D01*
X266443296Y-149082923D02*
X266376630Y-149282923D01*
D10*
X105411027Y-119054152D02*
X105411027Y-119454152D01*
X105411027Y-119454152D02*
X105544360Y-119168438D01*
X105544360Y-119168438D02*
X105677693Y-119454152D01*
X105677693Y-119454152D02*
X105677693Y-119054152D01*
X106077693Y-119054152D02*
X105849122Y-119054152D01*
X105963408Y-119054152D02*
X105963408Y-119454152D01*
X105963408Y-119454152D02*
X105925312Y-119397009D01*
X105925312Y-119397009D02*
X105887217Y-119358914D01*
X105887217Y-119358914D02*
X105849122Y-119339866D01*
X106153884Y-119016057D02*
X106458645Y-119016057D01*
X106553884Y-119054152D02*
X106553884Y-119454152D01*
X106553884Y-119263676D02*
X106782455Y-119263676D01*
X106782455Y-119054152D02*
X106782455Y-119454152D01*
X107182455Y-119054152D02*
X106953884Y-119054152D01*
X107068170Y-119054152D02*
X107068170Y-119454152D01*
X107068170Y-119454152D02*
X107030074Y-119397009D01*
X107030074Y-119397009D02*
X106991979Y-119358914D01*
X106991979Y-119358914D02*
X106953884Y-119339866D01*
X270001828Y-132586347D02*
X270001828Y-132186347D01*
X270001828Y-132186347D02*
X269868495Y-132472061D01*
X269868495Y-132472061D02*
X269735162Y-132186347D01*
X269735162Y-132186347D02*
X269735162Y-132586347D01*
X269373257Y-132319680D02*
X269373257Y-132586347D01*
X269468495Y-132167300D02*
X269563733Y-132453014D01*
X269563733Y-132453014D02*
X269316114Y-132453014D01*
X269258972Y-132624442D02*
X268954210Y-132624442D01*
X268858971Y-132586347D02*
X268858971Y-132186347D01*
X268858971Y-132376823D02*
X268630400Y-132376823D01*
X268630400Y-132586347D02*
X268630400Y-132186347D01*
X268478019Y-132186347D02*
X268230400Y-132186347D01*
X268230400Y-132186347D02*
X268363733Y-132338728D01*
X268363733Y-132338728D02*
X268306590Y-132338728D01*
X268306590Y-132338728D02*
X268268495Y-132357776D01*
X268268495Y-132357776D02*
X268249447Y-132376823D01*
X268249447Y-132376823D02*
X268230400Y-132414919D01*
X268230400Y-132414919D02*
X268230400Y-132510157D01*
X268230400Y-132510157D02*
X268249447Y-132548252D01*
X268249447Y-132548252D02*
X268268495Y-132567300D01*
X268268495Y-132567300D02*
X268306590Y-132586347D01*
X268306590Y-132586347D02*
X268420876Y-132586347D01*
X268420876Y-132586347D02*
X268458971Y-132567300D01*
X268458971Y-132567300D02*
X268478019Y-132548252D01*
X106344359Y-125435104D02*
X106306264Y-125454152D01*
X106306264Y-125454152D02*
X106249121Y-125454152D01*
X106249121Y-125454152D02*
X106191978Y-125435104D01*
X106191978Y-125435104D02*
X106153883Y-125397009D01*
X106153883Y-125397009D02*
X106134836Y-125358914D01*
X106134836Y-125358914D02*
X106115788Y-125282723D01*
X106115788Y-125282723D02*
X106115788Y-125225580D01*
X106115788Y-125225580D02*
X106134836Y-125149390D01*
X106134836Y-125149390D02*
X106153883Y-125111295D01*
X106153883Y-125111295D02*
X106191978Y-125073200D01*
X106191978Y-125073200D02*
X106249121Y-125054152D01*
X106249121Y-125054152D02*
X106287217Y-125054152D01*
X106287217Y-125054152D02*
X106344359Y-125073200D01*
X106344359Y-125073200D02*
X106363407Y-125092247D01*
X106363407Y-125092247D02*
X106363407Y-125225580D01*
X106363407Y-125225580D02*
X106287217Y-125225580D01*
X106534836Y-125054152D02*
X106534836Y-125454152D01*
X106534836Y-125454152D02*
X106763407Y-125054152D01*
X106763407Y-125054152D02*
X106763407Y-125454152D01*
X106953884Y-125054152D02*
X106953884Y-125454152D01*
X106953884Y-125454152D02*
X107049122Y-125454152D01*
X107049122Y-125454152D02*
X107106265Y-125435104D01*
X107106265Y-125435104D02*
X107144360Y-125397009D01*
X107144360Y-125397009D02*
X107163407Y-125358914D01*
X107163407Y-125358914D02*
X107182455Y-125282723D01*
X107182455Y-125282723D02*
X107182455Y-125225580D01*
X107182455Y-125225580D02*
X107163407Y-125149390D01*
X107163407Y-125149390D02*
X107144360Y-125111295D01*
X107144360Y-125111295D02*
X107106265Y-125073200D01*
X107106265Y-125073200D02*
X107049122Y-125054152D01*
X107049122Y-125054152D02*
X106953884Y-125054152D01*
X105411027Y-135054152D02*
X105411027Y-135454152D01*
X105411027Y-135454152D02*
X105544360Y-135168438D01*
X105544360Y-135168438D02*
X105677693Y-135454152D01*
X105677693Y-135454152D02*
X105677693Y-135054152D01*
X105830074Y-135454152D02*
X106077693Y-135454152D01*
X106077693Y-135454152D02*
X105944360Y-135301771D01*
X105944360Y-135301771D02*
X106001503Y-135301771D01*
X106001503Y-135301771D02*
X106039598Y-135282723D01*
X106039598Y-135282723D02*
X106058646Y-135263676D01*
X106058646Y-135263676D02*
X106077693Y-135225580D01*
X106077693Y-135225580D02*
X106077693Y-135130342D01*
X106077693Y-135130342D02*
X106058646Y-135092247D01*
X106058646Y-135092247D02*
X106039598Y-135073200D01*
X106039598Y-135073200D02*
X106001503Y-135054152D01*
X106001503Y-135054152D02*
X105887217Y-135054152D01*
X105887217Y-135054152D02*
X105849122Y-135073200D01*
X105849122Y-135073200D02*
X105830074Y-135092247D01*
X106153884Y-135016057D02*
X106458645Y-135016057D01*
X106553884Y-135054152D02*
X106553884Y-135454152D01*
X106553884Y-135263676D02*
X106782455Y-135263676D01*
X106782455Y-135054152D02*
X106782455Y-135454152D01*
X107182455Y-135054152D02*
X106953884Y-135054152D01*
X107068170Y-135054152D02*
X107068170Y-135454152D01*
X107068170Y-135454152D02*
X107030074Y-135397009D01*
X107030074Y-135397009D02*
X106991979Y-135358914D01*
X106991979Y-135358914D02*
X106953884Y-135339866D01*
D11*
X266744248Y-108997697D02*
X266763295Y-108988173D01*
X266763295Y-108988173D02*
X266791867Y-108988173D01*
X266791867Y-108988173D02*
X266820438Y-108997697D01*
X266820438Y-108997697D02*
X266839486Y-109016745D01*
X266839486Y-109016745D02*
X266849009Y-109035792D01*
X266849009Y-109035792D02*
X266858533Y-109073888D01*
X266858533Y-109073888D02*
X266858533Y-109102459D01*
X266858533Y-109102459D02*
X266849009Y-109140554D01*
X266849009Y-109140554D02*
X266839486Y-109159602D01*
X266839486Y-109159602D02*
X266820438Y-109178650D01*
X266820438Y-109178650D02*
X266791867Y-109188173D01*
X266791867Y-109188173D02*
X266772819Y-109188173D01*
X266772819Y-109188173D02*
X266744248Y-109178650D01*
X266744248Y-109178650D02*
X266734724Y-109169126D01*
X266734724Y-109169126D02*
X266734724Y-109102459D01*
X266734724Y-109102459D02*
X266772819Y-109102459D01*
X266649009Y-109188173D02*
X266649009Y-108988173D01*
X266649009Y-108988173D02*
X266534724Y-109188173D01*
X266534724Y-109188173D02*
X266534724Y-108988173D01*
X266439485Y-109188173D02*
X266439485Y-108988173D01*
X266439485Y-108988173D02*
X266391866Y-108988173D01*
X266391866Y-108988173D02*
X266363295Y-108997697D01*
X266363295Y-108997697D02*
X266344247Y-109016745D01*
X266344247Y-109016745D02*
X266334724Y-109035792D01*
X266334724Y-109035792D02*
X266325200Y-109073888D01*
X266325200Y-109073888D02*
X266325200Y-109102459D01*
X266325200Y-109102459D02*
X266334724Y-109140554D01*
X266334724Y-109140554D02*
X266344247Y-109159602D01*
X266344247Y-109159602D02*
X266363295Y-109178650D01*
X266363295Y-109178650D02*
X266391866Y-109188173D01*
X266391866Y-109188173D02*
X266439485Y-109188173D01*
X267643295Y-151822923D02*
X267643295Y-151622923D01*
X267643295Y-151622923D02*
X267576629Y-151765780D01*
X267576629Y-151765780D02*
X267509962Y-151622923D01*
X267509962Y-151622923D02*
X267509962Y-151822923D01*
X267329010Y-151689590D02*
X267329010Y-151822923D01*
X267376629Y-151613400D02*
X267424248Y-151756257D01*
X267424248Y-151756257D02*
X267300439Y-151756257D01*
X267271868Y-151841971D02*
X267119487Y-151841971D01*
X266957582Y-151803876D02*
X266967106Y-151813400D01*
X266967106Y-151813400D02*
X266995677Y-151822923D01*
X266995677Y-151822923D02*
X267014725Y-151822923D01*
X267014725Y-151822923D02*
X267043296Y-151813400D01*
X267043296Y-151813400D02*
X267062344Y-151794352D01*
X267062344Y-151794352D02*
X267071867Y-151775304D01*
X267071867Y-151775304D02*
X267081391Y-151737209D01*
X267081391Y-151737209D02*
X267081391Y-151708638D01*
X267081391Y-151708638D02*
X267071867Y-151670542D01*
X267071867Y-151670542D02*
X267062344Y-151651495D01*
X267062344Y-151651495D02*
X267043296Y-151632447D01*
X267043296Y-151632447D02*
X267014725Y-151622923D01*
X267014725Y-151622923D02*
X266995677Y-151622923D01*
X266995677Y-151622923D02*
X266967106Y-151632447D01*
X266967106Y-151632447D02*
X266957582Y-151641971D01*
X266871867Y-151822923D02*
X266871867Y-151622923D01*
X266871867Y-151718161D02*
X266757582Y-151718161D01*
X266757582Y-151822923D02*
X266757582Y-151622923D01*
X266709963Y-151841971D02*
X266557582Y-151841971D01*
X266443296Y-151718161D02*
X266414724Y-151727685D01*
X266414724Y-151727685D02*
X266405201Y-151737209D01*
X266405201Y-151737209D02*
X266395677Y-151756257D01*
X266395677Y-151756257D02*
X266395677Y-151784828D01*
X266395677Y-151784828D02*
X266405201Y-151803876D01*
X266405201Y-151803876D02*
X266414724Y-151813400D01*
X266414724Y-151813400D02*
X266433772Y-151822923D01*
X266433772Y-151822923D02*
X266509962Y-151822923D01*
X266509962Y-151822923D02*
X266509962Y-151622923D01*
X266509962Y-151622923D02*
X266443296Y-151622923D01*
X266443296Y-151622923D02*
X266424248Y-151632447D01*
X266424248Y-151632447D02*
X266414724Y-151641971D01*
X266414724Y-151641971D02*
X266405201Y-151661019D01*
X266405201Y-151661019D02*
X266405201Y-151680066D01*
X266405201Y-151680066D02*
X266414724Y-151699114D01*
X266414724Y-151699114D02*
X266424248Y-151708638D01*
X266424248Y-151708638D02*
X266443296Y-151718161D01*
X266443296Y-151718161D02*
X266509962Y-151718161D01*
X266814725Y-154172447D02*
X266833772Y-154162923D01*
X266833772Y-154162923D02*
X266862344Y-154162923D01*
X266862344Y-154162923D02*
X266890915Y-154172447D01*
X266890915Y-154172447D02*
X266909963Y-154191495D01*
X266909963Y-154191495D02*
X266919486Y-154210542D01*
X266919486Y-154210542D02*
X266929010Y-154248638D01*
X266929010Y-154248638D02*
X266929010Y-154277209D01*
X266929010Y-154277209D02*
X266919486Y-154315304D01*
X266919486Y-154315304D02*
X266909963Y-154334352D01*
X266909963Y-154334352D02*
X266890915Y-154353400D01*
X266890915Y-154353400D02*
X266862344Y-154362923D01*
X266862344Y-154362923D02*
X266843296Y-154362923D01*
X266843296Y-154362923D02*
X266814725Y-154353400D01*
X266814725Y-154353400D02*
X266805201Y-154343876D01*
X266805201Y-154343876D02*
X266805201Y-154277209D01*
X266805201Y-154277209D02*
X266843296Y-154277209D01*
X266719486Y-154362923D02*
X266719486Y-154162923D01*
X266719486Y-154162923D02*
X266605201Y-154362923D01*
X266605201Y-154362923D02*
X266605201Y-154162923D01*
X266509962Y-154362923D02*
X266509962Y-154162923D01*
X266509962Y-154162923D02*
X266462343Y-154162923D01*
X266462343Y-154162923D02*
X266433772Y-154172447D01*
X266433772Y-154172447D02*
X266414724Y-154191495D01*
X266414724Y-154191495D02*
X266405201Y-154210542D01*
X266405201Y-154210542D02*
X266395677Y-154248638D01*
X266395677Y-154248638D02*
X266395677Y-154277209D01*
X266395677Y-154277209D02*
X266405201Y-154315304D01*
X266405201Y-154315304D02*
X266414724Y-154334352D01*
X266414724Y-154334352D02*
X266433772Y-154353400D01*
X266433772Y-154353400D02*
X266462343Y-154362923D01*
X266462343Y-154362923D02*
X266509962Y-154362923D01*
X266506152Y-101368173D02*
X266601390Y-101368173D01*
X266601390Y-101368173D02*
X266610914Y-101463411D01*
X266610914Y-101463411D02*
X266601390Y-101453888D01*
X266601390Y-101453888D02*
X266582343Y-101444364D01*
X266582343Y-101444364D02*
X266534724Y-101444364D01*
X266534724Y-101444364D02*
X266515676Y-101453888D01*
X266515676Y-101453888D02*
X266506152Y-101463411D01*
X266506152Y-101463411D02*
X266496629Y-101482459D01*
X266496629Y-101482459D02*
X266496629Y-101530078D01*
X266496629Y-101530078D02*
X266506152Y-101549126D01*
X266506152Y-101549126D02*
X266515676Y-101558650D01*
X266515676Y-101558650D02*
X266534724Y-101568173D01*
X266534724Y-101568173D02*
X266582343Y-101568173D01*
X266582343Y-101568173D02*
X266601390Y-101558650D01*
X266601390Y-101558650D02*
X266610914Y-101549126D01*
X266439486Y-101368173D02*
X266372819Y-101568173D01*
X266372819Y-101568173D02*
X266306153Y-101368173D01*
D10*
X269068496Y-125564895D02*
X269106591Y-125545847D01*
X269106591Y-125545847D02*
X269163734Y-125545847D01*
X269163734Y-125545847D02*
X269220877Y-125564895D01*
X269220877Y-125564895D02*
X269258972Y-125602990D01*
X269258972Y-125602990D02*
X269278019Y-125641085D01*
X269278019Y-125641085D02*
X269297067Y-125717276D01*
X269297067Y-125717276D02*
X269297067Y-125774419D01*
X269297067Y-125774419D02*
X269278019Y-125850609D01*
X269278019Y-125850609D02*
X269258972Y-125888704D01*
X269258972Y-125888704D02*
X269220877Y-125926800D01*
X269220877Y-125926800D02*
X269163734Y-125945847D01*
X269163734Y-125945847D02*
X269125638Y-125945847D01*
X269125638Y-125945847D02*
X269068496Y-125926800D01*
X269068496Y-125926800D02*
X269049448Y-125907752D01*
X269049448Y-125907752D02*
X269049448Y-125774419D01*
X269049448Y-125774419D02*
X269125638Y-125774419D01*
X268878019Y-125945847D02*
X268878019Y-125545847D01*
X268878019Y-125545847D02*
X268649448Y-125945847D01*
X268649448Y-125945847D02*
X268649448Y-125545847D01*
X268458971Y-125945847D02*
X268458971Y-125545847D01*
X268458971Y-125545847D02*
X268363733Y-125545847D01*
X268363733Y-125545847D02*
X268306590Y-125564895D01*
X268306590Y-125564895D02*
X268268495Y-125602990D01*
X268268495Y-125602990D02*
X268249448Y-125641085D01*
X268249448Y-125641085D02*
X268230400Y-125717276D01*
X268230400Y-125717276D02*
X268230400Y-125774419D01*
X268230400Y-125774419D02*
X268249448Y-125850609D01*
X268249448Y-125850609D02*
X268268495Y-125888704D01*
X268268495Y-125888704D02*
X268306590Y-125926800D01*
X268306590Y-125926800D02*
X268363733Y-125945847D01*
X268363733Y-125945847D02*
X268458971Y-125945847D01*
X268592304Y-123545847D02*
X268782780Y-123545847D01*
X268782780Y-123545847D02*
X268801828Y-123736323D01*
X268801828Y-123736323D02*
X268782780Y-123717276D01*
X268782780Y-123717276D02*
X268744685Y-123698228D01*
X268744685Y-123698228D02*
X268649447Y-123698228D01*
X268649447Y-123698228D02*
X268611352Y-123717276D01*
X268611352Y-123717276D02*
X268592304Y-123736323D01*
X268592304Y-123736323D02*
X268573257Y-123774419D01*
X268573257Y-123774419D02*
X268573257Y-123869657D01*
X268573257Y-123869657D02*
X268592304Y-123907752D01*
X268592304Y-123907752D02*
X268611352Y-123926800D01*
X268611352Y-123926800D02*
X268649447Y-123945847D01*
X268649447Y-123945847D02*
X268744685Y-123945847D01*
X268744685Y-123945847D02*
X268782780Y-123926800D01*
X268782780Y-123926800D02*
X268801828Y-123907752D01*
X268458971Y-123545847D02*
X268325638Y-123945847D01*
X268325638Y-123945847D02*
X268192305Y-123545847D01*
X269068496Y-115564895D02*
X269106591Y-115545847D01*
X269106591Y-115545847D02*
X269163734Y-115545847D01*
X269163734Y-115545847D02*
X269220877Y-115564895D01*
X269220877Y-115564895D02*
X269258972Y-115602990D01*
X269258972Y-115602990D02*
X269278019Y-115641085D01*
X269278019Y-115641085D02*
X269297067Y-115717276D01*
X269297067Y-115717276D02*
X269297067Y-115774419D01*
X269297067Y-115774419D02*
X269278019Y-115850609D01*
X269278019Y-115850609D02*
X269258972Y-115888704D01*
X269258972Y-115888704D02*
X269220877Y-115926800D01*
X269220877Y-115926800D02*
X269163734Y-115945847D01*
X269163734Y-115945847D02*
X269125638Y-115945847D01*
X269125638Y-115945847D02*
X269068496Y-115926800D01*
X269068496Y-115926800D02*
X269049448Y-115907752D01*
X269049448Y-115907752D02*
X269049448Y-115774419D01*
X269049448Y-115774419D02*
X269125638Y-115774419D01*
X268878019Y-115945847D02*
X268878019Y-115545847D01*
X268878019Y-115545847D02*
X268649448Y-115945847D01*
X268649448Y-115945847D02*
X268649448Y-115545847D01*
X268458971Y-115945847D02*
X268458971Y-115545847D01*
X268458971Y-115545847D02*
X268363733Y-115545847D01*
X268363733Y-115545847D02*
X268306590Y-115564895D01*
X268306590Y-115564895D02*
X268268495Y-115602990D01*
X268268495Y-115602990D02*
X268249448Y-115641085D01*
X268249448Y-115641085D02*
X268230400Y-115717276D01*
X268230400Y-115717276D02*
X268230400Y-115774419D01*
X268230400Y-115774419D02*
X268249448Y-115850609D01*
X268249448Y-115850609D02*
X268268495Y-115888704D01*
X268268495Y-115888704D02*
X268306590Y-115926800D01*
X268306590Y-115926800D02*
X268363733Y-115945847D01*
X268363733Y-115945847D02*
X268458971Y-115945847D01*
X106344359Y-141435104D02*
X106306264Y-141454152D01*
X106306264Y-141454152D02*
X106249121Y-141454152D01*
X106249121Y-141454152D02*
X106191978Y-141435104D01*
X106191978Y-141435104D02*
X106153883Y-141397009D01*
X106153883Y-141397009D02*
X106134836Y-141358914D01*
X106134836Y-141358914D02*
X106115788Y-141282723D01*
X106115788Y-141282723D02*
X106115788Y-141225580D01*
X106115788Y-141225580D02*
X106134836Y-141149390D01*
X106134836Y-141149390D02*
X106153883Y-141111295D01*
X106153883Y-141111295D02*
X106191978Y-141073200D01*
X106191978Y-141073200D02*
X106249121Y-141054152D01*
X106249121Y-141054152D02*
X106287217Y-141054152D01*
X106287217Y-141054152D02*
X106344359Y-141073200D01*
X106344359Y-141073200D02*
X106363407Y-141092247D01*
X106363407Y-141092247D02*
X106363407Y-141225580D01*
X106363407Y-141225580D02*
X106287217Y-141225580D01*
X106534836Y-141054152D02*
X106534836Y-141454152D01*
X106534836Y-141454152D02*
X106763407Y-141054152D01*
X106763407Y-141054152D02*
X106763407Y-141454152D01*
X106953884Y-141054152D02*
X106953884Y-141454152D01*
X106953884Y-141454152D02*
X107049122Y-141454152D01*
X107049122Y-141454152D02*
X107106265Y-141435104D01*
X107106265Y-141435104D02*
X107144360Y-141397009D01*
X107144360Y-141397009D02*
X107163407Y-141358914D01*
X107163407Y-141358914D02*
X107182455Y-141282723D01*
X107182455Y-141282723D02*
X107182455Y-141225580D01*
X107182455Y-141225580D02*
X107163407Y-141149390D01*
X107163407Y-141149390D02*
X107144360Y-141111295D01*
X107144360Y-141111295D02*
X107106265Y-141073200D01*
X107106265Y-141073200D02*
X107049122Y-141054152D01*
X107049122Y-141054152D02*
X106953884Y-141054152D01*
X105411027Y-137054152D02*
X105411027Y-137454152D01*
X105411027Y-137454152D02*
X105544360Y-137168438D01*
X105544360Y-137168438D02*
X105677693Y-137454152D01*
X105677693Y-137454152D02*
X105677693Y-137054152D01*
X105830074Y-137454152D02*
X106077693Y-137454152D01*
X106077693Y-137454152D02*
X105944360Y-137301771D01*
X105944360Y-137301771D02*
X106001503Y-137301771D01*
X106001503Y-137301771D02*
X106039598Y-137282723D01*
X106039598Y-137282723D02*
X106058646Y-137263676D01*
X106058646Y-137263676D02*
X106077693Y-137225580D01*
X106077693Y-137225580D02*
X106077693Y-137130342D01*
X106077693Y-137130342D02*
X106058646Y-137092247D01*
X106058646Y-137092247D02*
X106039598Y-137073200D01*
X106039598Y-137073200D02*
X106001503Y-137054152D01*
X106001503Y-137054152D02*
X105887217Y-137054152D01*
X105887217Y-137054152D02*
X105849122Y-137073200D01*
X105849122Y-137073200D02*
X105830074Y-137092247D01*
X106153884Y-137016057D02*
X106458645Y-137016057D01*
X106553884Y-137054152D02*
X106553884Y-137454152D01*
X106553884Y-137263676D02*
X106782455Y-137263676D01*
X106782455Y-137054152D02*
X106782455Y-137454152D01*
X106953884Y-137416057D02*
X106972932Y-137435104D01*
X106972932Y-137435104D02*
X107011027Y-137454152D01*
X107011027Y-137454152D02*
X107106265Y-137454152D01*
X107106265Y-137454152D02*
X107144360Y-137435104D01*
X107144360Y-137435104D02*
X107163408Y-137416057D01*
X107163408Y-137416057D02*
X107182455Y-137377961D01*
X107182455Y-137377961D02*
X107182455Y-137339866D01*
X107182455Y-137339866D02*
X107163408Y-137282723D01*
X107163408Y-137282723D02*
X106934836Y-137054152D01*
X106934836Y-137054152D02*
X107182455Y-137054152D01*
X106344359Y-131435104D02*
X106306264Y-131454152D01*
X106306264Y-131454152D02*
X106249121Y-131454152D01*
X106249121Y-131454152D02*
X106191978Y-131435104D01*
X106191978Y-131435104D02*
X106153883Y-131397009D01*
X106153883Y-131397009D02*
X106134836Y-131358914D01*
X106134836Y-131358914D02*
X106115788Y-131282723D01*
X106115788Y-131282723D02*
X106115788Y-131225580D01*
X106115788Y-131225580D02*
X106134836Y-131149390D01*
X106134836Y-131149390D02*
X106153883Y-131111295D01*
X106153883Y-131111295D02*
X106191978Y-131073200D01*
X106191978Y-131073200D02*
X106249121Y-131054152D01*
X106249121Y-131054152D02*
X106287217Y-131054152D01*
X106287217Y-131054152D02*
X106344359Y-131073200D01*
X106344359Y-131073200D02*
X106363407Y-131092247D01*
X106363407Y-131092247D02*
X106363407Y-131225580D01*
X106363407Y-131225580D02*
X106287217Y-131225580D01*
X106534836Y-131054152D02*
X106534836Y-131454152D01*
X106534836Y-131454152D02*
X106763407Y-131054152D01*
X106763407Y-131054152D02*
X106763407Y-131454152D01*
X106953884Y-131054152D02*
X106953884Y-131454152D01*
X106953884Y-131454152D02*
X107049122Y-131454152D01*
X107049122Y-131454152D02*
X107106265Y-131435104D01*
X107106265Y-131435104D02*
X107144360Y-131397009D01*
X107144360Y-131397009D02*
X107163407Y-131358914D01*
X107163407Y-131358914D02*
X107182455Y-131282723D01*
X107182455Y-131282723D02*
X107182455Y-131225580D01*
X107182455Y-131225580D02*
X107163407Y-131149390D01*
X107163407Y-131149390D02*
X107144360Y-131111295D01*
X107144360Y-131111295D02*
X107106265Y-131073200D01*
X107106265Y-131073200D02*
X107049122Y-131054152D01*
X107049122Y-131054152D02*
X106953884Y-131054152D01*
X269068496Y-130205395D02*
X269106591Y-130186347D01*
X269106591Y-130186347D02*
X269163734Y-130186347D01*
X269163734Y-130186347D02*
X269220877Y-130205395D01*
X269220877Y-130205395D02*
X269258972Y-130243490D01*
X269258972Y-130243490D02*
X269278019Y-130281585D01*
X269278019Y-130281585D02*
X269297067Y-130357776D01*
X269297067Y-130357776D02*
X269297067Y-130414919D01*
X269297067Y-130414919D02*
X269278019Y-130491109D01*
X269278019Y-130491109D02*
X269258972Y-130529204D01*
X269258972Y-130529204D02*
X269220877Y-130567300D01*
X269220877Y-130567300D02*
X269163734Y-130586347D01*
X269163734Y-130586347D02*
X269125638Y-130586347D01*
X269125638Y-130586347D02*
X269068496Y-130567300D01*
X269068496Y-130567300D02*
X269049448Y-130548252D01*
X269049448Y-130548252D02*
X269049448Y-130414919D01*
X269049448Y-130414919D02*
X269125638Y-130414919D01*
X268878019Y-130586347D02*
X268878019Y-130186347D01*
X268878019Y-130186347D02*
X268649448Y-130586347D01*
X268649448Y-130586347D02*
X268649448Y-130186347D01*
X268458971Y-130586347D02*
X268458971Y-130186347D01*
X268458971Y-130186347D02*
X268363733Y-130186347D01*
X268363733Y-130186347D02*
X268306590Y-130205395D01*
X268306590Y-130205395D02*
X268268495Y-130243490D01*
X268268495Y-130243490D02*
X268249448Y-130281585D01*
X268249448Y-130281585D02*
X268230400Y-130357776D01*
X268230400Y-130357776D02*
X268230400Y-130414919D01*
X268230400Y-130414919D02*
X268249448Y-130491109D01*
X268249448Y-130491109D02*
X268268495Y-130529204D01*
X268268495Y-130529204D02*
X268306590Y-130567300D01*
X268306590Y-130567300D02*
X268363733Y-130586347D01*
X268363733Y-130586347D02*
X268458971Y-130586347D01*
X270001828Y-134586347D02*
X270001828Y-134186347D01*
X270001828Y-134186347D02*
X269868495Y-134472061D01*
X269868495Y-134472061D02*
X269735162Y-134186347D01*
X269735162Y-134186347D02*
X269735162Y-134586347D01*
X269373257Y-134319680D02*
X269373257Y-134586347D01*
X269468495Y-134167300D02*
X269563733Y-134453014D01*
X269563733Y-134453014D02*
X269316114Y-134453014D01*
X269258972Y-134624442D02*
X268954210Y-134624442D01*
X268858971Y-134586347D02*
X268858971Y-134186347D01*
X268858971Y-134376823D02*
X268630400Y-134376823D01*
X268630400Y-134586347D02*
X268630400Y-134186347D01*
X268458971Y-134224442D02*
X268439923Y-134205395D01*
X268439923Y-134205395D02*
X268401828Y-134186347D01*
X268401828Y-134186347D02*
X268306590Y-134186347D01*
X268306590Y-134186347D02*
X268268495Y-134205395D01*
X268268495Y-134205395D02*
X268249447Y-134224442D01*
X268249447Y-134224442D02*
X268230400Y-134262538D01*
X268230400Y-134262538D02*
X268230400Y-134300633D01*
X268230400Y-134300633D02*
X268249447Y-134357776D01*
X268249447Y-134357776D02*
X268478019Y-134586347D01*
X268478019Y-134586347D02*
X268230400Y-134586347D01*
D11*
X266576629Y-146542923D02*
X266671867Y-146542923D01*
X266671867Y-146542923D02*
X266681391Y-146638161D01*
X266681391Y-146638161D02*
X266671867Y-146628638D01*
X266671867Y-146628638D02*
X266652820Y-146619114D01*
X266652820Y-146619114D02*
X266605201Y-146619114D01*
X266605201Y-146619114D02*
X266586153Y-146628638D01*
X266586153Y-146628638D02*
X266576629Y-146638161D01*
X266576629Y-146638161D02*
X266567106Y-146657209D01*
X266567106Y-146657209D02*
X266567106Y-146704828D01*
X266567106Y-146704828D02*
X266576629Y-146723876D01*
X266576629Y-146723876D02*
X266586153Y-146733400D01*
X266586153Y-146733400D02*
X266605201Y-146742923D01*
X266605201Y-146742923D02*
X266652820Y-146742923D01*
X266652820Y-146742923D02*
X266671867Y-146733400D01*
X266671867Y-146733400D02*
X266681391Y-146723876D01*
X266509963Y-146542923D02*
X266443296Y-146742923D01*
X266443296Y-146742923D02*
X266376630Y-146542923D01*
D10*
X106344359Y-115435104D02*
X106306264Y-115454152D01*
X106306264Y-115454152D02*
X106249121Y-115454152D01*
X106249121Y-115454152D02*
X106191978Y-115435104D01*
X106191978Y-115435104D02*
X106153883Y-115397009D01*
X106153883Y-115397009D02*
X106134836Y-115358914D01*
X106134836Y-115358914D02*
X106115788Y-115282723D01*
X106115788Y-115282723D02*
X106115788Y-115225580D01*
X106115788Y-115225580D02*
X106134836Y-115149390D01*
X106134836Y-115149390D02*
X106153883Y-115111295D01*
X106153883Y-115111295D02*
X106191978Y-115073200D01*
X106191978Y-115073200D02*
X106249121Y-115054152D01*
X106249121Y-115054152D02*
X106287217Y-115054152D01*
X106287217Y-115054152D02*
X106344359Y-115073200D01*
X106344359Y-115073200D02*
X106363407Y-115092247D01*
X106363407Y-115092247D02*
X106363407Y-115225580D01*
X106363407Y-115225580D02*
X106287217Y-115225580D01*
X106534836Y-115054152D02*
X106534836Y-115454152D01*
X106534836Y-115454152D02*
X106763407Y-115054152D01*
X106763407Y-115054152D02*
X106763407Y-115454152D01*
X106953884Y-115054152D02*
X106953884Y-115454152D01*
X106953884Y-115454152D02*
X107049122Y-115454152D01*
X107049122Y-115454152D02*
X107106265Y-115435104D01*
X107106265Y-115435104D02*
X107144360Y-115397009D01*
X107144360Y-115397009D02*
X107163407Y-115358914D01*
X107163407Y-115358914D02*
X107182455Y-115282723D01*
X107182455Y-115282723D02*
X107182455Y-115225580D01*
X107182455Y-115225580D02*
X107163407Y-115149390D01*
X107163407Y-115149390D02*
X107144360Y-115111295D01*
X107144360Y-115111295D02*
X107106265Y-115073200D01*
X107106265Y-115073200D02*
X107049122Y-115054152D01*
X107049122Y-115054152D02*
X106953884Y-115054152D01*
X269068496Y-140205395D02*
X269106591Y-140186347D01*
X269106591Y-140186347D02*
X269163734Y-140186347D01*
X269163734Y-140186347D02*
X269220877Y-140205395D01*
X269220877Y-140205395D02*
X269258972Y-140243490D01*
X269258972Y-140243490D02*
X269278019Y-140281585D01*
X269278019Y-140281585D02*
X269297067Y-140357776D01*
X269297067Y-140357776D02*
X269297067Y-140414919D01*
X269297067Y-140414919D02*
X269278019Y-140491109D01*
X269278019Y-140491109D02*
X269258972Y-140529204D01*
X269258972Y-140529204D02*
X269220877Y-140567300D01*
X269220877Y-140567300D02*
X269163734Y-140586347D01*
X269163734Y-140586347D02*
X269125638Y-140586347D01*
X269125638Y-140586347D02*
X269068496Y-140567300D01*
X269068496Y-140567300D02*
X269049448Y-140548252D01*
X269049448Y-140548252D02*
X269049448Y-140414919D01*
X269049448Y-140414919D02*
X269125638Y-140414919D01*
X268878019Y-140586347D02*
X268878019Y-140186347D01*
X268878019Y-140186347D02*
X268649448Y-140586347D01*
X268649448Y-140586347D02*
X268649448Y-140186347D01*
X268458971Y-140586347D02*
X268458971Y-140186347D01*
X268458971Y-140186347D02*
X268363733Y-140186347D01*
X268363733Y-140186347D02*
X268306590Y-140205395D01*
X268306590Y-140205395D02*
X268268495Y-140243490D01*
X268268495Y-140243490D02*
X268249448Y-140281585D01*
X268249448Y-140281585D02*
X268230400Y-140357776D01*
X268230400Y-140357776D02*
X268230400Y-140414919D01*
X268230400Y-140414919D02*
X268249448Y-140491109D01*
X268249448Y-140491109D02*
X268268495Y-140529204D01*
X268268495Y-140529204D02*
X268306590Y-140567300D01*
X268306590Y-140567300D02*
X268363733Y-140586347D01*
X268363733Y-140586347D02*
X268458971Y-140586347D01*
X270001828Y-136586347D02*
X270001828Y-136186347D01*
X270001828Y-136186347D02*
X269868495Y-136472061D01*
X269868495Y-136472061D02*
X269735162Y-136186347D01*
X269735162Y-136186347D02*
X269735162Y-136586347D01*
X269373257Y-136319680D02*
X269373257Y-136586347D01*
X269468495Y-136167300D02*
X269563733Y-136453014D01*
X269563733Y-136453014D02*
X269316114Y-136453014D01*
X269258972Y-136624442D02*
X268954210Y-136624442D01*
X268858971Y-136586347D02*
X268858971Y-136186347D01*
X268858971Y-136376823D02*
X268630400Y-136376823D01*
X268630400Y-136586347D02*
X268630400Y-136186347D01*
X268230400Y-136586347D02*
X268458971Y-136586347D01*
X268344685Y-136586347D02*
X268344685Y-136186347D01*
X268344685Y-136186347D02*
X268382781Y-136243490D01*
X268382781Y-136243490D02*
X268420876Y-136281585D01*
X268420876Y-136281585D02*
X268458971Y-136300633D01*
X270001828Y-119945847D02*
X270001828Y-119545847D01*
X270001828Y-119545847D02*
X269868495Y-119831561D01*
X269868495Y-119831561D02*
X269735162Y-119545847D01*
X269735162Y-119545847D02*
X269735162Y-119945847D01*
X269563733Y-119583942D02*
X269544685Y-119564895D01*
X269544685Y-119564895D02*
X269506590Y-119545847D01*
X269506590Y-119545847D02*
X269411352Y-119545847D01*
X269411352Y-119545847D02*
X269373257Y-119564895D01*
X269373257Y-119564895D02*
X269354209Y-119583942D01*
X269354209Y-119583942D02*
X269335162Y-119622038D01*
X269335162Y-119622038D02*
X269335162Y-119660133D01*
X269335162Y-119660133D02*
X269354209Y-119717276D01*
X269354209Y-119717276D02*
X269582781Y-119945847D01*
X269582781Y-119945847D02*
X269335162Y-119945847D01*
X269258972Y-119983942D02*
X268954210Y-119983942D01*
X268858971Y-119945847D02*
X268858971Y-119545847D01*
X268858971Y-119736323D02*
X268630400Y-119736323D01*
X268630400Y-119945847D02*
X268630400Y-119545847D01*
X268458971Y-119583942D02*
X268439923Y-119564895D01*
X268439923Y-119564895D02*
X268401828Y-119545847D01*
X268401828Y-119545847D02*
X268306590Y-119545847D01*
X268306590Y-119545847D02*
X268268495Y-119564895D01*
X268268495Y-119564895D02*
X268249447Y-119583942D01*
X268249447Y-119583942D02*
X268230400Y-119622038D01*
X268230400Y-119622038D02*
X268230400Y-119660133D01*
X268230400Y-119660133D02*
X268249447Y-119717276D01*
X268249447Y-119717276D02*
X268478019Y-119945847D01*
X268478019Y-119945847D02*
X268230400Y-119945847D01*
X105411027Y-121054152D02*
X105411027Y-121454152D01*
X105411027Y-121454152D02*
X105544360Y-121168438D01*
X105544360Y-121168438D02*
X105677693Y-121454152D01*
X105677693Y-121454152D02*
X105677693Y-121054152D01*
X106077693Y-121054152D02*
X105849122Y-121054152D01*
X105963408Y-121054152D02*
X105963408Y-121454152D01*
X105963408Y-121454152D02*
X105925312Y-121397009D01*
X105925312Y-121397009D02*
X105887217Y-121358914D01*
X105887217Y-121358914D02*
X105849122Y-121339866D01*
X106153884Y-121016057D02*
X106458645Y-121016057D01*
X106553884Y-121054152D02*
X106553884Y-121454152D01*
X106553884Y-121263676D02*
X106782455Y-121263676D01*
X106782455Y-121054152D02*
X106782455Y-121454152D01*
X106953884Y-121416057D02*
X106972932Y-121435104D01*
X106972932Y-121435104D02*
X107011027Y-121454152D01*
X107011027Y-121454152D02*
X107106265Y-121454152D01*
X107106265Y-121454152D02*
X107144360Y-121435104D01*
X107144360Y-121435104D02*
X107163408Y-121416057D01*
X107163408Y-121416057D02*
X107182455Y-121377961D01*
X107182455Y-121377961D02*
X107182455Y-121339866D01*
X107182455Y-121339866D02*
X107163408Y-121282723D01*
X107163408Y-121282723D02*
X106934836Y-121054152D01*
X106934836Y-121054152D02*
X107182455Y-121054152D01*
D11*
X267572818Y-106648173D02*
X267572818Y-106448173D01*
X267572818Y-106448173D02*
X267506152Y-106591030D01*
X267506152Y-106591030D02*
X267439485Y-106448173D01*
X267439485Y-106448173D02*
X267439485Y-106648173D01*
X267353771Y-106467221D02*
X267344247Y-106457697D01*
X267344247Y-106457697D02*
X267325200Y-106448173D01*
X267325200Y-106448173D02*
X267277581Y-106448173D01*
X267277581Y-106448173D02*
X267258533Y-106457697D01*
X267258533Y-106457697D02*
X267249009Y-106467221D01*
X267249009Y-106467221D02*
X267239486Y-106486269D01*
X267239486Y-106486269D02*
X267239486Y-106505316D01*
X267239486Y-106505316D02*
X267249009Y-106533888D01*
X267249009Y-106533888D02*
X267363295Y-106648173D01*
X267363295Y-106648173D02*
X267239486Y-106648173D01*
X267201391Y-106667221D02*
X267049010Y-106667221D01*
X266887105Y-106629126D02*
X266896629Y-106638650D01*
X266896629Y-106638650D02*
X266925200Y-106648173D01*
X266925200Y-106648173D02*
X266944248Y-106648173D01*
X266944248Y-106648173D02*
X266972819Y-106638650D01*
X266972819Y-106638650D02*
X266991867Y-106619602D01*
X266991867Y-106619602D02*
X267001390Y-106600554D01*
X267001390Y-106600554D02*
X267010914Y-106562459D01*
X267010914Y-106562459D02*
X267010914Y-106533888D01*
X267010914Y-106533888D02*
X267001390Y-106495792D01*
X267001390Y-106495792D02*
X266991867Y-106476745D01*
X266991867Y-106476745D02*
X266972819Y-106457697D01*
X266972819Y-106457697D02*
X266944248Y-106448173D01*
X266944248Y-106448173D02*
X266925200Y-106448173D01*
X266925200Y-106448173D02*
X266896629Y-106457697D01*
X266896629Y-106457697D02*
X266887105Y-106467221D01*
X266801390Y-106648173D02*
X266801390Y-106448173D01*
X266801390Y-106543411D02*
X266687105Y-106543411D01*
X266687105Y-106648173D02*
X266687105Y-106448173D01*
X266639486Y-106667221D02*
X266487105Y-106667221D01*
X266372819Y-106543411D02*
X266344247Y-106552935D01*
X266344247Y-106552935D02*
X266334724Y-106562459D01*
X266334724Y-106562459D02*
X266325200Y-106581507D01*
X266325200Y-106581507D02*
X266325200Y-106610078D01*
X266325200Y-106610078D02*
X266334724Y-106629126D01*
X266334724Y-106629126D02*
X266344247Y-106638650D01*
X266344247Y-106638650D02*
X266363295Y-106648173D01*
X266363295Y-106648173D02*
X266439485Y-106648173D01*
X266439485Y-106648173D02*
X266439485Y-106448173D01*
X266439485Y-106448173D02*
X266372819Y-106448173D01*
X266372819Y-106448173D02*
X266353771Y-106457697D01*
X266353771Y-106457697D02*
X266344247Y-106467221D01*
X266344247Y-106467221D02*
X266334724Y-106486269D01*
X266334724Y-106486269D02*
X266334724Y-106505316D01*
X266334724Y-106505316D02*
X266344247Y-106524364D01*
X266344247Y-106524364D02*
X266353771Y-106533888D01*
X266353771Y-106533888D02*
X266372819Y-106543411D01*
X266372819Y-106543411D02*
X266439485Y-106543411D01*
D10*
X106820551Y-133454152D02*
X106630075Y-133454152D01*
X106630075Y-133454152D02*
X106611027Y-133263676D01*
X106611027Y-133263676D02*
X106630075Y-133282723D01*
X106630075Y-133282723D02*
X106668170Y-133301771D01*
X106668170Y-133301771D02*
X106763408Y-133301771D01*
X106763408Y-133301771D02*
X106801503Y-133282723D01*
X106801503Y-133282723D02*
X106820551Y-133263676D01*
X106820551Y-133263676D02*
X106839598Y-133225580D01*
X106839598Y-133225580D02*
X106839598Y-133130342D01*
X106839598Y-133130342D02*
X106820551Y-133092247D01*
X106820551Y-133092247D02*
X106801503Y-133073200D01*
X106801503Y-133073200D02*
X106763408Y-133054152D01*
X106763408Y-133054152D02*
X106668170Y-133054152D01*
X106668170Y-133054152D02*
X106630075Y-133073200D01*
X106630075Y-133073200D02*
X106611027Y-133092247D01*
X106953884Y-133454152D02*
X107087217Y-133054152D01*
X107087217Y-133054152D02*
X107220550Y-133454152D01*
X270001828Y-117945847D02*
X270001828Y-117545847D01*
X270001828Y-117545847D02*
X269868495Y-117831561D01*
X269868495Y-117831561D02*
X269735162Y-117545847D01*
X269735162Y-117545847D02*
X269735162Y-117945847D01*
X269563733Y-117583942D02*
X269544685Y-117564895D01*
X269544685Y-117564895D02*
X269506590Y-117545847D01*
X269506590Y-117545847D02*
X269411352Y-117545847D01*
X269411352Y-117545847D02*
X269373257Y-117564895D01*
X269373257Y-117564895D02*
X269354209Y-117583942D01*
X269354209Y-117583942D02*
X269335162Y-117622038D01*
X269335162Y-117622038D02*
X269335162Y-117660133D01*
X269335162Y-117660133D02*
X269354209Y-117717276D01*
X269354209Y-117717276D02*
X269582781Y-117945847D01*
X269582781Y-117945847D02*
X269335162Y-117945847D01*
X269258972Y-117983942D02*
X268954210Y-117983942D01*
X268858971Y-117945847D02*
X268858971Y-117545847D01*
X268858971Y-117736323D02*
X268630400Y-117736323D01*
X268630400Y-117945847D02*
X268630400Y-117545847D01*
X268478019Y-117545847D02*
X268230400Y-117545847D01*
X268230400Y-117545847D02*
X268363733Y-117698228D01*
X268363733Y-117698228D02*
X268306590Y-117698228D01*
X268306590Y-117698228D02*
X268268495Y-117717276D01*
X268268495Y-117717276D02*
X268249447Y-117736323D01*
X268249447Y-117736323D02*
X268230400Y-117774419D01*
X268230400Y-117774419D02*
X268230400Y-117869657D01*
X268230400Y-117869657D02*
X268249447Y-117907752D01*
X268249447Y-117907752D02*
X268268495Y-117926800D01*
X268268495Y-117926800D02*
X268306590Y-117945847D01*
X268306590Y-117945847D02*
X268420876Y-117945847D01*
X268420876Y-117945847D02*
X268458971Y-117926800D01*
X268458971Y-117926800D02*
X268478019Y-117907752D01*
D12*
X255778094Y-151784318D02*
X255778094Y-152691461D01*
X255778094Y-152691461D02*
X255838571Y-152872889D01*
X255838571Y-152872889D02*
X255959523Y-152993842D01*
X255959523Y-152993842D02*
X256140952Y-153054318D01*
X256140952Y-153054318D02*
X256261904Y-153054318D01*
X254508094Y-153054318D02*
X255233809Y-153054318D01*
X254870952Y-153054318D02*
X254870952Y-151784318D01*
X254870952Y-151784318D02*
X254991904Y-151965746D01*
X254991904Y-151965746D02*
X255112856Y-152086699D01*
X255112856Y-152086699D02*
X255233809Y-152147175D01*
X253419523Y-152207651D02*
X253419523Y-153054318D01*
X253721904Y-151723842D02*
X254024285Y-152630984D01*
X254024285Y-152630984D02*
X253238094Y-152630984D01*
D13*
X114089819Y-123941666D02*
X114804104Y-123941666D01*
X114804104Y-123941666D02*
X114946961Y-123894047D01*
X114946961Y-123894047D02*
X115042200Y-123798809D01*
X115042200Y-123798809D02*
X115089819Y-123655952D01*
X115089819Y-123655952D02*
X115089819Y-123560714D01*
X114089819Y-124894047D02*
X114089819Y-124417857D01*
X114089819Y-124417857D02*
X114566009Y-124370238D01*
X114566009Y-124370238D02*
X114518390Y-124417857D01*
X114518390Y-124417857D02*
X114470771Y-124513095D01*
X114470771Y-124513095D02*
X114470771Y-124751190D01*
X114470771Y-124751190D02*
X114518390Y-124846428D01*
X114518390Y-124846428D02*
X114566009Y-124894047D01*
X114566009Y-124894047D02*
X114661247Y-124941666D01*
X114661247Y-124941666D02*
X114899342Y-124941666D01*
X114899342Y-124941666D02*
X114994580Y-124894047D01*
X114994580Y-124894047D02*
X115042200Y-124846428D01*
X115042200Y-124846428D02*
X115089819Y-124751190D01*
X115089819Y-124751190D02*
X115089819Y-124513095D01*
X115089819Y-124513095D02*
X115042200Y-124417857D01*
X115042200Y-124417857D02*
X114994580Y-124370238D01*
X195273333Y-184594819D02*
X195273333Y-185309104D01*
X195273333Y-185309104D02*
X195320952Y-185451961D01*
X195320952Y-185451961D02*
X195416190Y-185547200D01*
X195416190Y-185547200D02*
X195559047Y-185594819D01*
X195559047Y-185594819D02*
X195654285Y-185594819D01*
X194273333Y-185594819D02*
X194844761Y-185594819D01*
X194559047Y-185594819D02*
X194559047Y-184594819D01*
X194559047Y-184594819D02*
X194654285Y-184737676D01*
X194654285Y-184737676D02*
X194749523Y-184832914D01*
X194749523Y-184832914D02*
X194844761Y-184880533D01*
X189111428Y-165254700D02*
X187968571Y-165254700D01*
X201411428Y-165254700D02*
X200268571Y-165254700D01*
X200839999Y-165826128D02*
X200839999Y-164683271D01*
X265309523Y-156384819D02*
X265309523Y-157099104D01*
X265309523Y-157099104D02*
X265357142Y-157241961D01*
X265357142Y-157241961D02*
X265452380Y-157337200D01*
X265452380Y-157337200D02*
X265595237Y-157384819D01*
X265595237Y-157384819D02*
X265690475Y-157384819D01*
X264880951Y-156480057D02*
X264833332Y-156432438D01*
X264833332Y-156432438D02*
X264738094Y-156384819D01*
X264738094Y-156384819D02*
X264499999Y-156384819D01*
X264499999Y-156384819D02*
X264404761Y-156432438D01*
X264404761Y-156432438D02*
X264357142Y-156480057D01*
X264357142Y-156480057D02*
X264309523Y-156575295D01*
X264309523Y-156575295D02*
X264309523Y-156670533D01*
X264309523Y-156670533D02*
X264357142Y-156813390D01*
X264357142Y-156813390D02*
X264928570Y-157384819D01*
X264928570Y-157384819D02*
X264309523Y-157384819D01*
X263976189Y-156384819D02*
X263309523Y-156384819D01*
X263309523Y-156384819D02*
X263738094Y-157384819D01*
D12*
X130238094Y-132024318D02*
X130238094Y-132931461D01*
X130238094Y-132931461D02*
X130298571Y-133112889D01*
X130298571Y-133112889D02*
X130419523Y-133233842D01*
X130419523Y-133233842D02*
X130600952Y-133294318D01*
X130600952Y-133294318D02*
X130721904Y-133294318D01*
X128968094Y-133294318D02*
X129693809Y-133294318D01*
X129330952Y-133294318D02*
X129330952Y-132024318D01*
X129330952Y-132024318D02*
X129451904Y-132205746D01*
X129451904Y-132205746D02*
X129572856Y-132326699D01*
X129572856Y-132326699D02*
X129693809Y-132387175D01*
X128484285Y-132145270D02*
X128423809Y-132084794D01*
X128423809Y-132084794D02*
X128302856Y-132024318D01*
X128302856Y-132024318D02*
X128000475Y-132024318D01*
X128000475Y-132024318D02*
X127879523Y-132084794D01*
X127879523Y-132084794D02*
X127819047Y-132145270D01*
X127819047Y-132145270D02*
X127758570Y-132266222D01*
X127758570Y-132266222D02*
X127758570Y-132387175D01*
X127758570Y-132387175D02*
X127819047Y-132568603D01*
X127819047Y-132568603D02*
X128544761Y-133294318D01*
X128544761Y-133294318D02*
X127758570Y-133294318D01*
D13*
X176263333Y-184594819D02*
X176263333Y-185309104D01*
X176263333Y-185309104D02*
X176310952Y-185451961D01*
X176310952Y-185451961D02*
X176406190Y-185547200D01*
X176406190Y-185547200D02*
X176549047Y-185594819D01*
X176549047Y-185594819D02*
X176644285Y-185594819D01*
X175834761Y-184690057D02*
X175787142Y-184642438D01*
X175787142Y-184642438D02*
X175691904Y-184594819D01*
X175691904Y-184594819D02*
X175453809Y-184594819D01*
X175453809Y-184594819D02*
X175358571Y-184642438D01*
X175358571Y-184642438D02*
X175310952Y-184690057D01*
X175310952Y-184690057D02*
X175263333Y-184785295D01*
X175263333Y-184785295D02*
X175263333Y-184880533D01*
X175263333Y-184880533D02*
X175310952Y-185023390D01*
X175310952Y-185023390D02*
X175882380Y-185594819D01*
X175882380Y-185594819D02*
X175263333Y-185594819D01*
X182401428Y-165254700D02*
X181258571Y-165254700D01*
X181829999Y-165826128D02*
X181829999Y-164683271D01*
X170101428Y-165254700D02*
X168958571Y-165254700D01*
X112109523Y-98544819D02*
X112109523Y-99259104D01*
X112109523Y-99259104D02*
X112157142Y-99401961D01*
X112157142Y-99401961D02*
X112252380Y-99497200D01*
X112252380Y-99497200D02*
X112395237Y-99544819D01*
X112395237Y-99544819D02*
X112490475Y-99544819D01*
X111109523Y-99544819D02*
X111680951Y-99544819D01*
X111395237Y-99544819D02*
X111395237Y-98544819D01*
X111395237Y-98544819D02*
X111490475Y-98687676D01*
X111490475Y-98687676D02*
X111585713Y-98782914D01*
X111585713Y-98782914D02*
X111680951Y-98830533D01*
X110776189Y-98544819D02*
X110109523Y-98544819D01*
X110109523Y-98544819D02*
X110538094Y-99544819D01*
X112079523Y-143494819D02*
X112079523Y-144209104D01*
X112079523Y-144209104D02*
X112127142Y-144351961D01*
X112127142Y-144351961D02*
X112222380Y-144447200D01*
X112222380Y-144447200D02*
X112365237Y-144494819D01*
X112365237Y-144494819D02*
X112460475Y-144494819D01*
X111079523Y-144494819D02*
X111650951Y-144494819D01*
X111365237Y-144494819D02*
X111365237Y-143494819D01*
X111365237Y-143494819D02*
X111460475Y-143637676D01*
X111460475Y-143637676D02*
X111555713Y-143732914D01*
X111555713Y-143732914D02*
X111650951Y-143780533D01*
X110127142Y-144494819D02*
X110698570Y-144494819D01*
X110412856Y-144494819D02*
X110412856Y-143494819D01*
X110412856Y-143494819D02*
X110508094Y-143637676D01*
X110508094Y-143637676D02*
X110603332Y-143732914D01*
X110603332Y-143732914D02*
X110698570Y-143780533D01*
X112119523Y-145254819D02*
X112119523Y-145969104D01*
X112119523Y-145969104D02*
X112167142Y-146111961D01*
X112167142Y-146111961D02*
X112262380Y-146207200D01*
X112262380Y-146207200D02*
X112405237Y-146254819D01*
X112405237Y-146254819D02*
X112500475Y-146254819D01*
X111690951Y-145350057D02*
X111643332Y-145302438D01*
X111643332Y-145302438D02*
X111548094Y-145254819D01*
X111548094Y-145254819D02*
X111309999Y-145254819D01*
X111309999Y-145254819D02*
X111214761Y-145302438D01*
X111214761Y-145302438D02*
X111167142Y-145350057D01*
X111167142Y-145350057D02*
X111119523Y-145445295D01*
X111119523Y-145445295D02*
X111119523Y-145540533D01*
X111119523Y-145540533D02*
X111167142Y-145683390D01*
X111167142Y-145683390D02*
X111738570Y-146254819D01*
X111738570Y-146254819D02*
X111119523Y-146254819D01*
X110786189Y-145254819D02*
X110167142Y-145254819D01*
X110167142Y-145254819D02*
X110500475Y-145635771D01*
X110500475Y-145635771D02*
X110357618Y-145635771D01*
X110357618Y-145635771D02*
X110262380Y-145683390D01*
X110262380Y-145683390D02*
X110214761Y-145731009D01*
X110214761Y-145731009D02*
X110167142Y-145826247D01*
X110167142Y-145826247D02*
X110167142Y-146064342D01*
X110167142Y-146064342D02*
X110214761Y-146159580D01*
X110214761Y-146159580D02*
X110262380Y-146207200D01*
X110262380Y-146207200D02*
X110357618Y-146254819D01*
X110357618Y-146254819D02*
X110643332Y-146254819D01*
X110643332Y-146254819D02*
X110738570Y-146207200D01*
X110738570Y-146207200D02*
X110786189Y-146159580D01*
X270269523Y-128854819D02*
X270269523Y-129569104D01*
X270269523Y-129569104D02*
X270317142Y-129711961D01*
X270317142Y-129711961D02*
X270412380Y-129807200D01*
X270412380Y-129807200D02*
X270555237Y-129854819D01*
X270555237Y-129854819D02*
X270650475Y-129854819D01*
X269269523Y-129854819D02*
X269840951Y-129854819D01*
X269555237Y-129854819D02*
X269555237Y-128854819D01*
X269555237Y-128854819D02*
X269650475Y-128997676D01*
X269650475Y-128997676D02*
X269745713Y-129092914D01*
X269745713Y-129092914D02*
X269840951Y-129140533D01*
X268936189Y-128854819D02*
X268317142Y-128854819D01*
X268317142Y-128854819D02*
X268650475Y-129235771D01*
X268650475Y-129235771D02*
X268507618Y-129235771D01*
X268507618Y-129235771D02*
X268412380Y-129283390D01*
X268412380Y-129283390D02*
X268364761Y-129331009D01*
X268364761Y-129331009D02*
X268317142Y-129426247D01*
X268317142Y-129426247D02*
X268317142Y-129664342D01*
X268317142Y-129664342D02*
X268364761Y-129759580D01*
X268364761Y-129759580D02*
X268412380Y-129807200D01*
X268412380Y-129807200D02*
X268507618Y-129854819D01*
X268507618Y-129854819D02*
X268793332Y-129854819D01*
X268793332Y-129854819D02*
X268888570Y-129807200D01*
X268888570Y-129807200D02*
X268936189Y-129759580D01*
D12*
X181773365Y-144928333D02*
X181833842Y-144867857D01*
X181833842Y-144867857D02*
X181894318Y-144686428D01*
X181894318Y-144686428D02*
X181894318Y-144565476D01*
X181894318Y-144565476D02*
X181833842Y-144384047D01*
X181833842Y-144384047D02*
X181712889Y-144263095D01*
X181712889Y-144263095D02*
X181591937Y-144202618D01*
X181591937Y-144202618D02*
X181350032Y-144142142D01*
X181350032Y-144142142D02*
X181168603Y-144142142D01*
X181168603Y-144142142D02*
X180926699Y-144202618D01*
X180926699Y-144202618D02*
X180805746Y-144263095D01*
X180805746Y-144263095D02*
X180684794Y-144384047D01*
X180684794Y-144384047D02*
X180624318Y-144565476D01*
X180624318Y-144565476D02*
X180624318Y-144686428D01*
X180624318Y-144686428D02*
X180684794Y-144867857D01*
X180684794Y-144867857D02*
X180745270Y-144928333D01*
X180624318Y-146077380D02*
X180624318Y-145472618D01*
X180624318Y-145472618D02*
X181229080Y-145412142D01*
X181229080Y-145412142D02*
X181168603Y-145472618D01*
X181168603Y-145472618D02*
X181108127Y-145593571D01*
X181108127Y-145593571D02*
X181108127Y-145895952D01*
X181108127Y-145895952D02*
X181168603Y-146016904D01*
X181168603Y-146016904D02*
X181229080Y-146077380D01*
X181229080Y-146077380D02*
X181350032Y-146137857D01*
X181350032Y-146137857D02*
X181652413Y-146137857D01*
X181652413Y-146137857D02*
X181773365Y-146077380D01*
X181773365Y-146077380D02*
X181833842Y-146016904D01*
X181833842Y-146016904D02*
X181894318Y-145895952D01*
X181894318Y-145895952D02*
X181894318Y-145593571D01*
X181894318Y-145593571D02*
X181833842Y-145472618D01*
X181833842Y-145472618D02*
X181773365Y-145412142D01*
X255528094Y-102804318D02*
X255528094Y-103711461D01*
X255528094Y-103711461D02*
X255588571Y-103892889D01*
X255588571Y-103892889D02*
X255709523Y-104013842D01*
X255709523Y-104013842D02*
X255890952Y-104074318D01*
X255890952Y-104074318D02*
X256011904Y-104074318D01*
X254258094Y-104074318D02*
X254983809Y-104074318D01*
X254620952Y-104074318D02*
X254620952Y-102804318D01*
X254620952Y-102804318D02*
X254741904Y-102985746D01*
X254741904Y-102985746D02*
X254862856Y-103106699D01*
X254862856Y-103106699D02*
X254983809Y-103167175D01*
X253471904Y-102804318D02*
X253350951Y-102804318D01*
X253350951Y-102804318D02*
X253229999Y-102864794D01*
X253229999Y-102864794D02*
X253169523Y-102925270D01*
X253169523Y-102925270D02*
X253109047Y-103046222D01*
X253109047Y-103046222D02*
X253048570Y-103288127D01*
X253048570Y-103288127D02*
X253048570Y-103590508D01*
X253048570Y-103590508D02*
X253109047Y-103832413D01*
X253109047Y-103832413D02*
X253169523Y-103953365D01*
X253169523Y-103953365D02*
X253229999Y-104013842D01*
X253229999Y-104013842D02*
X253350951Y-104074318D01*
X253350951Y-104074318D02*
X253471904Y-104074318D01*
X253471904Y-104074318D02*
X253592856Y-104013842D01*
X253592856Y-104013842D02*
X253653332Y-103953365D01*
X253653332Y-103953365D02*
X253713809Y-103832413D01*
X253713809Y-103832413D02*
X253774285Y-103590508D01*
X253774285Y-103590508D02*
X253774285Y-103288127D01*
X253774285Y-103288127D02*
X253713809Y-103046222D01*
X253713809Y-103046222D02*
X253653332Y-102925270D01*
X253653332Y-102925270D02*
X253592856Y-102864794D01*
X253592856Y-102864794D02*
X253471904Y-102804318D01*
D13*
X269293333Y-112754819D02*
X269293333Y-113469104D01*
X269293333Y-113469104D02*
X269340952Y-113611961D01*
X269340952Y-113611961D02*
X269436190Y-113707200D01*
X269436190Y-113707200D02*
X269579047Y-113754819D01*
X269579047Y-113754819D02*
X269674285Y-113754819D01*
X268912380Y-112754819D02*
X268245714Y-112754819D01*
X268245714Y-112754819D02*
X268674285Y-113754819D01*
X173776666Y-121244819D02*
X174252856Y-121244819D01*
X174252856Y-121244819D02*
X174252856Y-120244819D01*
X172919523Y-121244819D02*
X173490951Y-121244819D01*
X173205237Y-121244819D02*
X173205237Y-120244819D01*
X173205237Y-120244819D02*
X173300475Y-120387676D01*
X173300475Y-120387676D02*
X173395713Y-120482914D01*
X173395713Y-120482914D02*
X173490951Y-120530533D01*
X264583333Y-98574819D02*
X264583333Y-99289104D01*
X264583333Y-99289104D02*
X264630952Y-99431961D01*
X264630952Y-99431961D02*
X264726190Y-99527200D01*
X264726190Y-99527200D02*
X264869047Y-99574819D01*
X264869047Y-99574819D02*
X264964285Y-99574819D01*
X264059523Y-99574819D02*
X263869047Y-99574819D01*
X263869047Y-99574819D02*
X263773809Y-99527200D01*
X263773809Y-99527200D02*
X263726190Y-99479580D01*
X263726190Y-99479580D02*
X263630952Y-99336723D01*
X263630952Y-99336723D02*
X263583333Y-99146247D01*
X263583333Y-99146247D02*
X263583333Y-98765295D01*
X263583333Y-98765295D02*
X263630952Y-98670057D01*
X263630952Y-98670057D02*
X263678571Y-98622438D01*
X263678571Y-98622438D02*
X263773809Y-98574819D01*
X263773809Y-98574819D02*
X263964285Y-98574819D01*
X263964285Y-98574819D02*
X264059523Y-98622438D01*
X264059523Y-98622438D02*
X264107142Y-98670057D01*
X264107142Y-98670057D02*
X264154761Y-98765295D01*
X264154761Y-98765295D02*
X264154761Y-99003390D01*
X264154761Y-99003390D02*
X264107142Y-99098628D01*
X264107142Y-99098628D02*
X264059523Y-99146247D01*
X264059523Y-99146247D02*
X263964285Y-99193866D01*
X263964285Y-99193866D02*
X263773809Y-99193866D01*
X263773809Y-99193866D02*
X263678571Y-99146247D01*
X263678571Y-99146247D02*
X263630952Y-99098628D01*
X263630952Y-99098628D02*
X263583333Y-99003390D01*
D12*
X124023332Y-125644318D02*
X124023332Y-126551461D01*
X124023332Y-126551461D02*
X124083809Y-126732889D01*
X124083809Y-126732889D02*
X124204761Y-126853842D01*
X124204761Y-126853842D02*
X124386190Y-126914318D01*
X124386190Y-126914318D02*
X124507142Y-126914318D01*
X122874285Y-125644318D02*
X123116190Y-125644318D01*
X123116190Y-125644318D02*
X123237142Y-125704794D01*
X123237142Y-125704794D02*
X123297618Y-125765270D01*
X123297618Y-125765270D02*
X123418571Y-125946699D01*
X123418571Y-125946699D02*
X123479047Y-126188603D01*
X123479047Y-126188603D02*
X123479047Y-126672413D01*
X123479047Y-126672413D02*
X123418571Y-126793365D01*
X123418571Y-126793365D02*
X123358094Y-126853842D01*
X123358094Y-126853842D02*
X123237142Y-126914318D01*
X123237142Y-126914318D02*
X122995237Y-126914318D01*
X122995237Y-126914318D02*
X122874285Y-126853842D01*
X122874285Y-126853842D02*
X122813809Y-126793365D01*
X122813809Y-126793365D02*
X122753332Y-126672413D01*
X122753332Y-126672413D02*
X122753332Y-126370032D01*
X122753332Y-126370032D02*
X122813809Y-126249080D01*
X122813809Y-126249080D02*
X122874285Y-126188603D01*
X122874285Y-126188603D02*
X122995237Y-126128127D01*
X122995237Y-126128127D02*
X123237142Y-126128127D01*
X123237142Y-126128127D02*
X123358094Y-126188603D01*
X123358094Y-126188603D02*
X123418571Y-126249080D01*
X123418571Y-126249080D02*
X123479047Y-126370032D01*
D10*
%TO.C,J14*%
X251000000Y-130900000D02*
X259500000Y-130900000D01*
X251000000Y-150100000D02*
X251000000Y-130900000D01*
X259500000Y-130900000D02*
X259500000Y-150100000D01*
X259500000Y-150100000D02*
X251000000Y-150100000D01*
D14*
X254800000Y-129730000D02*
G75*
G02*
X254700000Y-129730000I-50000J0D01*
G01*
X254700000Y-129730000D02*
G75*
G02*
X254800000Y-129730000I50000J0D01*
G01*
D15*
%TO.C,J5*%
X108800000Y-113300000D02*
X113300000Y-113300000D01*
X108800000Y-127200000D02*
X108800000Y-113300000D01*
X113300000Y-113300000D02*
X113300000Y-127200000D01*
X113300000Y-127200000D02*
X108800000Y-127200000D01*
D14*
X108200000Y-115250000D02*
G75*
G02*
X108000000Y-115250000I-100000J0D01*
G01*
X108000000Y-115250000D02*
G75*
G02*
X108200000Y-115250000I100000J0D01*
G01*
D16*
%TO.C,J1*%
X187080000Y-169790000D02*
X187080000Y-184100000D01*
X197390000Y-165680000D02*
X193650000Y-165680000D01*
X202800000Y-169790000D02*
X202800000Y-184100000D01*
X202800000Y-184100000D02*
X187080000Y-184100000D01*
X187080000Y-169790000D02*
G75*
G02*
X189073194Y-166267042I4109999J1D01*
G01*
X199891648Y-165859587D02*
G75*
G02*
X202800001Y-169790000I-1201648J-3930413D01*
G01*
%TO.C,J27*%
X263170000Y-147900000D02*
X265830000Y-147900000D01*
X263170000Y-155580000D02*
X263170000Y-147900000D01*
X263170000Y-155580000D02*
X265830000Y-155580000D01*
X264500000Y-145300000D02*
X265830000Y-145300000D01*
X265830000Y-145300000D02*
X265830000Y-146630000D01*
X265830000Y-155580000D02*
X265830000Y-147900000D01*
D10*
%TO.C,J12*%
X117250000Y-129830000D02*
X125750000Y-129830000D01*
X117250000Y-149030000D02*
X117250000Y-129830000D01*
X125750000Y-129830000D02*
X125750000Y-149030000D01*
X125750000Y-149030000D02*
X117250000Y-149030000D01*
D14*
X122050000Y-150200000D02*
G75*
G02*
X121950000Y-150200000I-50000J0D01*
G01*
X121950000Y-150200000D02*
G75*
G02*
X122050000Y-150200000I50000J0D01*
G01*
D16*
%TO.C,J2*%
X168070000Y-169790000D02*
X168070000Y-184100000D01*
X178380000Y-165680000D02*
X174640000Y-165680000D01*
X183790000Y-169790000D02*
X183790000Y-184100000D01*
X183790000Y-184100000D02*
X168070000Y-184100000D01*
X168070000Y-169790000D02*
G75*
G02*
X170063194Y-166267042I4109999J1D01*
G01*
X180881648Y-165859587D02*
G75*
G02*
X183790001Y-169790000I-1201648J-3930413D01*
G01*
%TO.C,J17*%
X109970000Y-102690000D02*
X112630000Y-102690000D01*
X109970000Y-110370000D02*
X109970000Y-102690000D01*
X109970000Y-110370000D02*
X112630000Y-110370000D01*
X111300000Y-100090000D02*
X112630000Y-100090000D01*
X112630000Y-100090000D02*
X112630000Y-101420000D01*
X112630000Y-110370000D02*
X112630000Y-102690000D01*
D15*
%TO.C,J11*%
X108800000Y-129050000D02*
X113300000Y-129050000D01*
X108800000Y-142950000D02*
X108800000Y-129050000D01*
X113300000Y-129050000D02*
X113300000Y-142950000D01*
X113300000Y-142950000D02*
X108800000Y-142950000D01*
D14*
X108200000Y-131000000D02*
G75*
G02*
X108000000Y-131000000I-100000J0D01*
G01*
X108000000Y-131000000D02*
G75*
G02*
X108200000Y-131000000I100000J0D01*
G01*
D16*
%TO.C,J23*%
X109980000Y-149400000D02*
X112640000Y-149400000D01*
X109980000Y-157080000D02*
X109980000Y-149400000D01*
X109980000Y-157080000D02*
X112640000Y-157080000D01*
X111310000Y-146800000D02*
X112640000Y-146800000D01*
X112640000Y-146800000D02*
X112640000Y-148130000D01*
X112640000Y-157080000D02*
X112640000Y-149400000D01*
D15*
%TO.C,J13*%
X262950000Y-129050000D02*
X267450000Y-129050000D01*
X262950000Y-142950000D02*
X262950000Y-129050000D01*
X267450000Y-129050000D02*
X267450000Y-142950000D01*
X267450000Y-142950000D02*
X262950000Y-142950000D01*
D14*
X268250000Y-141000000D02*
G75*
G02*
X268050000Y-141000000I-100000J0D01*
G01*
X268050000Y-141000000D02*
G75*
G02*
X268250000Y-141000000I100000J0D01*
G01*
%TO.C,C5*%
X176170000Y-139990000D02*
X176170000Y-147715000D01*
X186470000Y-139990000D02*
X186470000Y-151490000D01*
D10*
%TO.C,J10*%
X251000000Y-106980000D02*
X259500000Y-106980000D01*
X251000000Y-126180000D02*
X251000000Y-106980000D01*
X259500000Y-106980000D02*
X259500000Y-126180000D01*
X259500000Y-126180000D02*
X251000000Y-126180000D01*
D14*
X254800000Y-105810000D02*
G75*
G02*
X254700000Y-105810000I-50000J0D01*
G01*
X254700000Y-105810000D02*
G75*
G02*
X254800000Y-105810000I50000J0D01*
G01*
D15*
%TO.C,J7*%
X262950000Y-113300000D02*
X267450000Y-113300000D01*
X262950000Y-127200000D02*
X262950000Y-113300000D01*
X267450000Y-113300000D02*
X267450000Y-127200000D01*
X267450000Y-127200000D02*
X262950000Y-127200000D01*
D14*
X268250000Y-125250000D02*
G75*
G02*
X268050000Y-125250000I-100000J0D01*
G01*
X268050000Y-125250000D02*
G75*
G02*
X268250000Y-125250000I100000J0D01*
G01*
%TO.C,L1*%
X167410000Y-121590000D02*
X167410000Y-124440000D01*
X167410000Y-121590000D02*
X179810000Y-121590000D01*
X167410000Y-130440000D02*
X167410000Y-133290000D01*
X167410000Y-133290000D02*
X179810000Y-133290000D01*
X179810000Y-121590000D02*
X179810000Y-124440000D01*
X179810000Y-130440000D02*
X179810000Y-133290000D01*
D16*
%TO.C,J9*%
X262920000Y-102720000D02*
X265580000Y-102720000D01*
X262920000Y-110400000D02*
X262920000Y-102720000D01*
X262920000Y-110400000D02*
X265580000Y-110400000D01*
X264250000Y-100120000D02*
X265580000Y-100120000D01*
X265580000Y-100120000D02*
X265580000Y-101450000D01*
X265580000Y-110400000D02*
X265580000Y-102720000D01*
D10*
%TO.C,J6*%
X117250000Y-105910000D02*
X125750000Y-105910000D01*
X117250000Y-125110000D02*
X117250000Y-105910000D01*
X125750000Y-105910000D02*
X125750000Y-125110000D01*
X125750000Y-125110000D02*
X117250000Y-125110000D01*
D14*
X122050000Y-126280000D02*
G75*
G02*
X121950000Y-126280000I-50000J0D01*
G01*
X121950000Y-126280000D02*
G75*
G02*
X122050000Y-126280000I50000J0D01*
G01*
%TD*%
D17*
X140575000Y-116125000D03*
X143115000Y-116125000D03*
X140575000Y-113585000D03*
X143115000Y-113585000D03*
X140575000Y-111045000D03*
X143115000Y-111045000D03*
X140575000Y-108505000D03*
X143115000Y-108505000D03*
X140575000Y-105965000D03*
X143115000Y-105965000D03*
X140575000Y-103425000D03*
X143115000Y-103425000D03*
X140575000Y-100885000D03*
X143115000Y-100885000D03*
X140575000Y-98345000D03*
X143115000Y-98345000D03*
X140575000Y-95805000D03*
X143115000Y-95805000D03*
X140575000Y-93265000D03*
X143115000Y-93265000D03*
X140575000Y-80025000D03*
X143115000Y-80025000D03*
X140575000Y-77485000D03*
X143115000Y-77485000D03*
X140575000Y-74945000D03*
X143115000Y-74945000D03*
X140575000Y-72405000D03*
X143115000Y-72405000D03*
X140575000Y-69865000D03*
X143115000Y-69865000D03*
X142880000Y-135350000D03*
X140340000Y-135350000D03*
X142880000Y-137890000D03*
X140340000Y-137890000D03*
X142880000Y-140430000D03*
X140340000Y-140430000D03*
X142880000Y-142970000D03*
X140340000Y-142970000D03*
X142880000Y-145510000D03*
X140340000Y-145510000D03*
X142880000Y-148050000D03*
X140340000Y-148050000D03*
X142880000Y-150590000D03*
X140340000Y-150590000D03*
X142880000Y-153130000D03*
X140340000Y-153130000D03*
X142880000Y-155670000D03*
X140340000Y-155670000D03*
X142880000Y-158210000D03*
X140340000Y-158210000D03*
X142880000Y-171450000D03*
X140340000Y-171450000D03*
X142880000Y-173990000D03*
X140340000Y-173990000D03*
X142880000Y-176530000D03*
X140340000Y-176530000D03*
X142880000Y-179070000D03*
X140340000Y-179070000D03*
X142880000Y-181610000D03*
X140340000Y-181610000D03*
X229000000Y-135190000D03*
X226460000Y-135190000D03*
X229000000Y-137730000D03*
X226460000Y-137730000D03*
X229000000Y-140270000D03*
X226460000Y-140270000D03*
X229000000Y-142810000D03*
X226460000Y-142810000D03*
X229000000Y-145350000D03*
X226460000Y-145350000D03*
X229000000Y-147890000D03*
X226460000Y-147890000D03*
X229000000Y-150430000D03*
X226460000Y-150430000D03*
X229000000Y-152970000D03*
X226460000Y-152970000D03*
X229000000Y-155510000D03*
X226460000Y-155510000D03*
X229000000Y-158050000D03*
X226460000Y-158050000D03*
X229000000Y-171290000D03*
X226460000Y-171290000D03*
X229000000Y-173830000D03*
X226460000Y-173830000D03*
X229000000Y-176370000D03*
X226460000Y-176370000D03*
X229000000Y-178910000D03*
X226460000Y-178910000D03*
X229000000Y-181450000D03*
X226460000Y-181450000D03*
X228970000Y-72050000D03*
X226430000Y-72050000D03*
X228970000Y-74590000D03*
X226430000Y-74590000D03*
X228970000Y-77130000D03*
X226430000Y-77130000D03*
X228970000Y-79670000D03*
X226430000Y-79670000D03*
X228970000Y-82210000D03*
X226430000Y-82210000D03*
X228970000Y-84750000D03*
X226430000Y-84750000D03*
X228970000Y-87290000D03*
X226430000Y-87290000D03*
X228970000Y-89830000D03*
X226430000Y-89830000D03*
X228970000Y-92370000D03*
X226430000Y-92370000D03*
X228970000Y-94910000D03*
X226430000Y-94910000D03*
X228970000Y-108150000D03*
X226430000Y-108150000D03*
X228970000Y-110690000D03*
X226430000Y-110690000D03*
X228970000Y-113230000D03*
X226430000Y-113230000D03*
X228970000Y-115770000D03*
X226430000Y-115770000D03*
X228970000Y-118310000D03*
X226430000Y-118310000D03*
X238630000Y-134780000D03*
X241170000Y-134780000D03*
X238630000Y-132240000D03*
X241170000Y-132240000D03*
X238630000Y-129700000D03*
X241170000Y-129700000D03*
X238630000Y-127160000D03*
X241170000Y-127160000D03*
X238630000Y-124620000D03*
X241170000Y-124620000D03*
X238630000Y-122080000D03*
X241170000Y-122080000D03*
X238630000Y-119540000D03*
X241170000Y-119540000D03*
X238630000Y-117000000D03*
X241170000Y-117000000D03*
X238630000Y-114460000D03*
X241170000Y-114460000D03*
X238630000Y-111920000D03*
X241170000Y-111920000D03*
X238630000Y-98680000D03*
X241170000Y-98680000D03*
X238630000Y-96140000D03*
X241170000Y-96140000D03*
X238630000Y-93600000D03*
X241170000Y-93600000D03*
X238630000Y-91060000D03*
X241170000Y-91060000D03*
X238630000Y-88520000D03*
X241170000Y-88520000D03*
X238600000Y-147468000D03*
X241140000Y-147468000D03*
X238600000Y-150008000D03*
X241140000Y-150008000D03*
X238600000Y-152548000D03*
X241140000Y-152548000D03*
X238600000Y-155088000D03*
X241140000Y-155088000D03*
X238600000Y-157628000D03*
X241140000Y-157628000D03*
X250650000Y-98390000D03*
X250650000Y-94430000D03*
X250650000Y-90470000D03*
X250650000Y-86510000D03*
X250650000Y-82550000D03*
X133460000Y-173627500D03*
X133460000Y-176167500D03*
X133460000Y-178707500D03*
X133460000Y-181247500D03*
X133460000Y-183787500D03*
X133460000Y-186327500D03*
X133460000Y-155640000D03*
X133460000Y-158180000D03*
X133460000Y-160720000D03*
X133460000Y-163260000D03*
X133460000Y-165800000D03*
X133460000Y-168340000D03*
X119500000Y-155650000D03*
X119500000Y-158190000D03*
X119500000Y-160730000D03*
X119500000Y-163270000D03*
X119500000Y-165810000D03*
X119500000Y-168350000D03*
X121670000Y-89530000D03*
X121670000Y-92070000D03*
X121670000Y-94610000D03*
X121670000Y-97150000D03*
X129166700Y-155668000D03*
X129166700Y-158208000D03*
X129166700Y-160748000D03*
X129166700Y-163288000D03*
X129166700Y-165828000D03*
X129166700Y-168368000D03*
X153168300Y-74210000D03*
X153168300Y-76750000D03*
X216668300Y-74210000D03*
X216668300Y-76750000D03*
X206508300Y-103166000D03*
X209048300Y-103166000D03*
X206508300Y-105706000D03*
X209048300Y-105706000D03*
X206508300Y-108246000D03*
X209048300Y-108246000D03*
X206508300Y-110786000D03*
X209048300Y-110786000D03*
X206508300Y-113326000D03*
X209048300Y-113326000D03*
X206508300Y-115866000D03*
X209048300Y-115866000D03*
X206508300Y-118406000D03*
X209048300Y-118406000D03*
X206508300Y-120946000D03*
X209048300Y-120946000D03*
X206508300Y-123486000D03*
X209048300Y-123486000D03*
X206508300Y-126026000D03*
X209048300Y-126026000D03*
X160788300Y-112310000D03*
X163328300Y-112310000D03*
X160788300Y-114850000D03*
X163328300Y-114850000D03*
X160788300Y-117390000D03*
X163328300Y-117390000D03*
X160788300Y-119930000D03*
X163328300Y-119930000D03*
X160788300Y-122470000D03*
X163328300Y-122470000D03*
X160788300Y-125010000D03*
X163328300Y-125010000D03*
X160788300Y-127550000D03*
X163328300Y-127550000D03*
X160788300Y-130090000D03*
X163328300Y-130090000D03*
X160788300Y-135170000D03*
X163328300Y-135170000D03*
X160788300Y-137710000D03*
X163328300Y-137710000D03*
X160788300Y-140250000D03*
X163328300Y-140250000D03*
X160788300Y-142790000D03*
X163328300Y-142790000D03*
X160788300Y-145330000D03*
X163328300Y-145330000D03*
X160788300Y-147870000D03*
X163328300Y-147870000D03*
X160788300Y-150410000D03*
X163328300Y-150410000D03*
X160788300Y-152950000D03*
X163328300Y-152950000D03*
X160788300Y-155490000D03*
X163328300Y-155490000D03*
X160788300Y-158030000D03*
X163328300Y-158030000D03*
X160788300Y-160570000D03*
X163328300Y-160570000D03*
X160788300Y-163110000D03*
X163328300Y-163110000D03*
X160788300Y-165650000D03*
X163328300Y-165650000D03*
X160788300Y-168190000D03*
X163328300Y-168190000D03*
X160788300Y-170730000D03*
X163328300Y-170730000D03*
X206508300Y-130090000D03*
X209048300Y-130090000D03*
X206508300Y-132630000D03*
X209048300Y-132630000D03*
X206508300Y-135170000D03*
X209048300Y-135170000D03*
X206508300Y-137710000D03*
X209048300Y-137710000D03*
X206508300Y-140250000D03*
X209048300Y-140250000D03*
X206508300Y-142790000D03*
X209048300Y-142790000D03*
X206508300Y-145330000D03*
X209048300Y-145330000D03*
X206508300Y-147870000D03*
X209048300Y-147870000D03*
X206508300Y-150410000D03*
X209048300Y-150410000D03*
X206508300Y-152950000D03*
X209048300Y-152950000D03*
X206508300Y-155490000D03*
X209048300Y-155490000D03*
X206508300Y-158030000D03*
X209048300Y-158030000D03*
X206508300Y-160570000D03*
X209048300Y-160570000D03*
X206508300Y-163110000D03*
X209048300Y-163110000D03*
X206508300Y-165650000D03*
X209048300Y-165650000D03*
X206508300Y-168190000D03*
X209048300Y-168190000D03*
X206508300Y-170730000D03*
X209048300Y-170730000D03*
X153168300Y-102150000D03*
X155708300Y-102150000D03*
X153168300Y-104690000D03*
X155708300Y-104690000D03*
X153168300Y-107230000D03*
X155708300Y-107230000D03*
X153168300Y-109770000D03*
X155708300Y-109770000D03*
X153168300Y-112310000D03*
X155708300Y-112310000D03*
X153168300Y-114850000D03*
X155708300Y-114850000D03*
X153168300Y-117390000D03*
X155708300Y-117390000D03*
X153168300Y-119930000D03*
X155708300Y-119930000D03*
X153168300Y-122470000D03*
X155708300Y-122470000D03*
X153168300Y-125010000D03*
X155708300Y-125010000D03*
X153168300Y-127550000D03*
X155708300Y-127550000D03*
X153168300Y-130090000D03*
X155708300Y-130090000D03*
X153168300Y-132630000D03*
X155708300Y-132630000D03*
X153168300Y-135170000D03*
X155708300Y-135170000D03*
X153168300Y-137710000D03*
X155708300Y-137710000D03*
X153168300Y-140250000D03*
X155708300Y-140250000D03*
X153168300Y-142790000D03*
X155708300Y-142790000D03*
X153168300Y-145330000D03*
X155708300Y-145330000D03*
X153168300Y-147870000D03*
X155708300Y-147870000D03*
X153168300Y-150410000D03*
X155708300Y-150410000D03*
X153168300Y-152950000D03*
X155708300Y-152950000D03*
X153168300Y-155490000D03*
X155708300Y-155490000D03*
X153168300Y-158030000D03*
X155708300Y-158030000D03*
X153168300Y-160570000D03*
X155708300Y-160570000D03*
X153168300Y-163110000D03*
X155708300Y-163110000D03*
X153168300Y-165650000D03*
X155708300Y-165650000D03*
X153168300Y-168190000D03*
X155708300Y-168190000D03*
X153168300Y-170730000D03*
X155708300Y-170730000D03*
X153168300Y-173270000D03*
X155708300Y-173270000D03*
X153168300Y-175810000D03*
X155708300Y-175810000D03*
X153168300Y-178350000D03*
X155708300Y-178350000D03*
X153168300Y-180890000D03*
X155708300Y-180890000D03*
X153168300Y-183430000D03*
X155708300Y-183430000D03*
X153168300Y-185970000D03*
X155708300Y-185970000D03*
X153168300Y-188510000D03*
X155708300Y-188510000D03*
X214128300Y-102170000D03*
X216668300Y-102170000D03*
X214128300Y-104710000D03*
X216668300Y-104710000D03*
X214128300Y-107250000D03*
X216668300Y-107250000D03*
X214128300Y-109790000D03*
X216668300Y-109790000D03*
X214128300Y-112330000D03*
X216668300Y-112330000D03*
X214128300Y-114870000D03*
X216668300Y-114870000D03*
X214128300Y-117410000D03*
X216668300Y-117410000D03*
X214128300Y-119950000D03*
X216668300Y-119950000D03*
X214128300Y-122490000D03*
X216668300Y-122490000D03*
X214128300Y-125030000D03*
X216668300Y-125030000D03*
X214128300Y-127570000D03*
X216668300Y-127570000D03*
X214128300Y-130110000D03*
X216668300Y-130110000D03*
X214128300Y-132650000D03*
X216668300Y-132650000D03*
X214128300Y-135190000D03*
X216668300Y-135190000D03*
X214128300Y-137730000D03*
X216668300Y-137730000D03*
X214128300Y-140270000D03*
X216668300Y-140270000D03*
X214128300Y-142810000D03*
X216668300Y-142810000D03*
X214128300Y-145350000D03*
X216668300Y-145350000D03*
X214128300Y-147890000D03*
X216668300Y-147890000D03*
X214128300Y-150430000D03*
X216668300Y-150430000D03*
X214128300Y-152970000D03*
X216668300Y-152970000D03*
X214128300Y-155510000D03*
X216668300Y-155510000D03*
X214128300Y-158050000D03*
X216668300Y-158050000D03*
X214128300Y-160590000D03*
X216668300Y-160590000D03*
X214128300Y-163130000D03*
X216668300Y-163130000D03*
X214128300Y-165670000D03*
X216668300Y-165670000D03*
X214128300Y-168210000D03*
X216668300Y-168210000D03*
X214128300Y-170750000D03*
X216668300Y-170750000D03*
X214128300Y-173290000D03*
X216668300Y-173290000D03*
X214128300Y-175830000D03*
X216668300Y-175830000D03*
X214128300Y-178370000D03*
X216668300Y-178370000D03*
X214128300Y-180910000D03*
X216668300Y-180910000D03*
X214128300Y-183450000D03*
X216668300Y-183450000D03*
X214128300Y-185990000D03*
X216668300Y-185990000D03*
X214128300Y-188530000D03*
X216668300Y-188530000D03*
X214128300Y-191070000D03*
X216668300Y-191070000D03*
X153168300Y-191050000D03*
X155708300Y-191050000D03*
X254750000Y-132580000D03*
X254750000Y-136540000D03*
X254750000Y-140500000D03*
X254750000Y-144460000D03*
X254750000Y-148420000D03*
X110500000Y-115250000D03*
X110500000Y-117250000D03*
X110500000Y-119250000D03*
X110500000Y-121250000D03*
X110500000Y-123250000D03*
X110500000Y-125250000D03*
D18*
X188190000Y-173640000D03*
X201690000Y-173640000D03*
D17*
X191340000Y-167640000D03*
X198540000Y-167640000D03*
X264500000Y-146630000D03*
X264500000Y-149170000D03*
X264500000Y-151710000D03*
X264500000Y-154250000D03*
X122000000Y-147350000D03*
X122000000Y-143390000D03*
X122000000Y-139430000D03*
X122000000Y-135470000D03*
X122000000Y-131510000D03*
D18*
X169180000Y-173640000D03*
X182680000Y-173640000D03*
D17*
X172330000Y-167640000D03*
X179530000Y-167640000D03*
X111300000Y-101420000D03*
X111300000Y-103960000D03*
X111300000Y-106500000D03*
X111300000Y-109040000D03*
X110500000Y-131000000D03*
X110500000Y-133000000D03*
X110500000Y-135000000D03*
X110500000Y-137000000D03*
X110500000Y-139000000D03*
X110500000Y-141000000D03*
X111310000Y-148130000D03*
X111310000Y-150670000D03*
X111310000Y-153210000D03*
X111310000Y-155750000D03*
X265750000Y-141000000D03*
X265750000Y-139000000D03*
X265750000Y-137000000D03*
X265750000Y-135000000D03*
X265750000Y-133000000D03*
X265750000Y-131000000D03*
X254750000Y-108660000D03*
X254750000Y-112620000D03*
X254750000Y-116580000D03*
X254750000Y-120540000D03*
X254750000Y-124500000D03*
X265750000Y-125250000D03*
X265750000Y-123250000D03*
X265750000Y-121250000D03*
X265750000Y-119250000D03*
X265750000Y-117250000D03*
X265750000Y-115250000D03*
X264250000Y-101450000D03*
X264250000Y-103990000D03*
X264250000Y-106530000D03*
X264250000Y-109070000D03*
X122000000Y-123430000D03*
X122000000Y-119470000D03*
X122000000Y-115510000D03*
X122000000Y-111550000D03*
X122000000Y-107590000D03*
M02*
