%TF.GenerationSoftware,KiCad,Pcbnew,8.0.6*%
%TF.CreationDate,2024-10-27T21:52:18+01:00*%
%TF.ProjectId,Motor_Driver_carrier_board,4d6f746f-725f-4447-9269-7665725f6361,rev?*%
%TF.SameCoordinates,Original*%
%TF.FileFunction,Legend,Top*%
%TF.FilePolarity,Positive*%
%FSLAX46Y46*%
G04 Gerber Fmt 4.6, Leading zero omitted, Abs format (unit mm)*
G04 Created by KiCad (PCBNEW 8.0.6) date 2024-10-27 21:52:18*
%MOMM*%
%LPD*%
G01*
G04 APERTURE LIST*
%ADD10C,0.150000*%
%ADD11C,0.065024*%
%ADD12C,0.120000*%
%ADD13C,0.200000*%
%ADD14C,0.250000*%
%ADD15C,0.350000*%
G04 APERTURE END LIST*
D10*
X126198809Y-43404819D02*
X126389285Y-43404819D01*
X126389285Y-43404819D02*
X126484523Y-43452438D01*
X126484523Y-43452438D02*
X126579761Y-43547676D01*
X126579761Y-43547676D02*
X126627380Y-43738152D01*
X126627380Y-43738152D02*
X126627380Y-44071485D01*
X126627380Y-44071485D02*
X126579761Y-44261961D01*
X126579761Y-44261961D02*
X126484523Y-44357200D01*
X126484523Y-44357200D02*
X126389285Y-44404819D01*
X126389285Y-44404819D02*
X126198809Y-44404819D01*
X126198809Y-44404819D02*
X126103571Y-44357200D01*
X126103571Y-44357200D02*
X126008333Y-44261961D01*
X126008333Y-44261961D02*
X125960714Y-44071485D01*
X125960714Y-44071485D02*
X125960714Y-43738152D01*
X125960714Y-43738152D02*
X126008333Y-43547676D01*
X126008333Y-43547676D02*
X126103571Y-43452438D01*
X126103571Y-43452438D02*
X126198809Y-43404819D01*
X127055952Y-43404819D02*
X127055952Y-44214342D01*
X127055952Y-44214342D02*
X127103571Y-44309580D01*
X127103571Y-44309580D02*
X127151190Y-44357200D01*
X127151190Y-44357200D02*
X127246428Y-44404819D01*
X127246428Y-44404819D02*
X127436904Y-44404819D01*
X127436904Y-44404819D02*
X127532142Y-44357200D01*
X127532142Y-44357200D02*
X127579761Y-44309580D01*
X127579761Y-44309580D02*
X127627380Y-44214342D01*
X127627380Y-44214342D02*
X127627380Y-43404819D01*
X127960714Y-43404819D02*
X128532142Y-43404819D01*
X128246428Y-44404819D02*
X128246428Y-43404819D01*
X129389285Y-44404819D02*
X128817857Y-44404819D01*
X129103571Y-44404819D02*
X129103571Y-43404819D01*
X129103571Y-43404819D02*
X129008333Y-43547676D01*
X129008333Y-43547676D02*
X128913095Y-43642914D01*
X128913095Y-43642914D02*
X128817857Y-43690533D01*
D11*
X123382012Y-59347329D02*
X123382012Y-59881455D01*
X123382012Y-59881455D02*
X123346403Y-59988280D01*
X123346403Y-59988280D02*
X123275187Y-60059497D01*
X123275187Y-60059497D02*
X123168361Y-60095105D01*
X123168361Y-60095105D02*
X123097145Y-60095105D01*
X123666879Y-59347329D02*
X124129788Y-59347329D01*
X124129788Y-59347329D02*
X123880529Y-59632196D01*
X123880529Y-59632196D02*
X123987354Y-59632196D01*
X123987354Y-59632196D02*
X124058571Y-59667804D01*
X124058571Y-59667804D02*
X124094179Y-59703413D01*
X124094179Y-59703413D02*
X124129788Y-59774629D01*
X124129788Y-59774629D02*
X124129788Y-59952671D01*
X124129788Y-59952671D02*
X124094179Y-60023888D01*
X124094179Y-60023888D02*
X124058571Y-60059497D01*
X124058571Y-60059497D02*
X123987354Y-60095105D01*
X123987354Y-60095105D02*
X123773704Y-60095105D01*
X123773704Y-60095105D02*
X123702487Y-60059497D01*
X123702487Y-60059497D02*
X123666879Y-60023888D01*
D10*
X129734820Y-93294771D02*
X129449106Y-93294771D01*
X129449106Y-93294771D02*
X129420534Y-93580485D01*
X129420534Y-93580485D02*
X129449106Y-93551914D01*
X129449106Y-93551914D02*
X129506249Y-93523342D01*
X129506249Y-93523342D02*
X129649106Y-93523342D01*
X129649106Y-93523342D02*
X129706249Y-93551914D01*
X129706249Y-93551914D02*
X129734820Y-93580485D01*
X129734820Y-93580485D02*
X129763391Y-93637628D01*
X129763391Y-93637628D02*
X129763391Y-93780485D01*
X129763391Y-93780485D02*
X129734820Y-93837628D01*
X129734820Y-93837628D02*
X129706249Y-93866200D01*
X129706249Y-93866200D02*
X129649106Y-93894771D01*
X129649106Y-93894771D02*
X129506249Y-93894771D01*
X129506249Y-93894771D02*
X129449106Y-93866200D01*
X129449106Y-93866200D02*
X129420534Y-93837628D01*
X129934820Y-93294771D02*
X130134820Y-93894771D01*
X130134820Y-93894771D02*
X130334820Y-93294771D01*
X137116963Y-93323342D02*
X137059821Y-93294771D01*
X137059821Y-93294771D02*
X136974106Y-93294771D01*
X136974106Y-93294771D02*
X136888392Y-93323342D01*
X136888392Y-93323342D02*
X136831249Y-93380485D01*
X136831249Y-93380485D02*
X136802678Y-93437628D01*
X136802678Y-93437628D02*
X136774106Y-93551914D01*
X136774106Y-93551914D02*
X136774106Y-93637628D01*
X136774106Y-93637628D02*
X136802678Y-93751914D01*
X136802678Y-93751914D02*
X136831249Y-93809057D01*
X136831249Y-93809057D02*
X136888392Y-93866200D01*
X136888392Y-93866200D02*
X136974106Y-93894771D01*
X136974106Y-93894771D02*
X137031249Y-93894771D01*
X137031249Y-93894771D02*
X137116963Y-93866200D01*
X137116963Y-93866200D02*
X137145535Y-93837628D01*
X137145535Y-93837628D02*
X137145535Y-93637628D01*
X137145535Y-93637628D02*
X137031249Y-93637628D01*
X137402678Y-93894771D02*
X137402678Y-93294771D01*
X137402678Y-93294771D02*
X137745535Y-93894771D01*
X137745535Y-93894771D02*
X137745535Y-93294771D01*
X138031249Y-93894771D02*
X138031249Y-93294771D01*
X138031249Y-93294771D02*
X138174106Y-93294771D01*
X138174106Y-93294771D02*
X138259820Y-93323342D01*
X138259820Y-93323342D02*
X138316963Y-93380485D01*
X138316963Y-93380485D02*
X138345534Y-93437628D01*
X138345534Y-93437628D02*
X138374106Y-93551914D01*
X138374106Y-93551914D02*
X138374106Y-93637628D01*
X138374106Y-93637628D02*
X138345534Y-93751914D01*
X138345534Y-93751914D02*
X138316963Y-93809057D01*
X138316963Y-93809057D02*
X138259820Y-93866200D01*
X138259820Y-93866200D02*
X138174106Y-93894771D01*
X138174106Y-93894771D02*
X138031249Y-93894771D01*
X140038095Y-95773866D02*
X140800000Y-95773866D01*
X140419047Y-96154819D02*
X140419047Y-95392914D01*
X141228571Y-95250057D02*
X141276190Y-95202438D01*
X141276190Y-95202438D02*
X141371428Y-95154819D01*
X141371428Y-95154819D02*
X141609523Y-95154819D01*
X141609523Y-95154819D02*
X141704761Y-95202438D01*
X141704761Y-95202438D02*
X141752380Y-95250057D01*
X141752380Y-95250057D02*
X141799999Y-95345295D01*
X141799999Y-95345295D02*
X141799999Y-95440533D01*
X141799999Y-95440533D02*
X141752380Y-95583390D01*
X141752380Y-95583390D02*
X141180952Y-96154819D01*
X141180952Y-96154819D02*
X141799999Y-96154819D01*
X142657142Y-95488152D02*
X142657142Y-96154819D01*
X142419047Y-95107200D02*
X142180952Y-95821485D01*
X142180952Y-95821485D02*
X142799999Y-95821485D01*
X143038095Y-95154819D02*
X143371428Y-96154819D01*
X143371428Y-96154819D02*
X143704761Y-95154819D01*
X123538095Y-95773866D02*
X124300000Y-95773866D01*
X124728571Y-95250057D02*
X124776190Y-95202438D01*
X124776190Y-95202438D02*
X124871428Y-95154819D01*
X124871428Y-95154819D02*
X125109523Y-95154819D01*
X125109523Y-95154819D02*
X125204761Y-95202438D01*
X125204761Y-95202438D02*
X125252380Y-95250057D01*
X125252380Y-95250057D02*
X125299999Y-95345295D01*
X125299999Y-95345295D02*
X125299999Y-95440533D01*
X125299999Y-95440533D02*
X125252380Y-95583390D01*
X125252380Y-95583390D02*
X124680952Y-96154819D01*
X124680952Y-96154819D02*
X125299999Y-96154819D01*
X126157142Y-95488152D02*
X126157142Y-96154819D01*
X125919047Y-95107200D02*
X125680952Y-95821485D01*
X125680952Y-95821485D02*
X126299999Y-95821485D01*
X126538095Y-95154819D02*
X126871428Y-96154819D01*
X126871428Y-96154819D02*
X127204761Y-95154819D01*
X139198809Y-43404819D02*
X139389285Y-43404819D01*
X139389285Y-43404819D02*
X139484523Y-43452438D01*
X139484523Y-43452438D02*
X139579761Y-43547676D01*
X139579761Y-43547676D02*
X139627380Y-43738152D01*
X139627380Y-43738152D02*
X139627380Y-44071485D01*
X139627380Y-44071485D02*
X139579761Y-44261961D01*
X139579761Y-44261961D02*
X139484523Y-44357200D01*
X139484523Y-44357200D02*
X139389285Y-44404819D01*
X139389285Y-44404819D02*
X139198809Y-44404819D01*
X139198809Y-44404819D02*
X139103571Y-44357200D01*
X139103571Y-44357200D02*
X139008333Y-44261961D01*
X139008333Y-44261961D02*
X138960714Y-44071485D01*
X138960714Y-44071485D02*
X138960714Y-43738152D01*
X138960714Y-43738152D02*
X139008333Y-43547676D01*
X139008333Y-43547676D02*
X139103571Y-43452438D01*
X139103571Y-43452438D02*
X139198809Y-43404819D01*
X140055952Y-43404819D02*
X140055952Y-44214342D01*
X140055952Y-44214342D02*
X140103571Y-44309580D01*
X140103571Y-44309580D02*
X140151190Y-44357200D01*
X140151190Y-44357200D02*
X140246428Y-44404819D01*
X140246428Y-44404819D02*
X140436904Y-44404819D01*
X140436904Y-44404819D02*
X140532142Y-44357200D01*
X140532142Y-44357200D02*
X140579761Y-44309580D01*
X140579761Y-44309580D02*
X140627380Y-44214342D01*
X140627380Y-44214342D02*
X140627380Y-43404819D01*
X140960714Y-43404819D02*
X141532142Y-43404819D01*
X141246428Y-44404819D02*
X141246428Y-43404819D01*
X141770238Y-43404819D02*
X142389285Y-43404819D01*
X142389285Y-43404819D02*
X142055952Y-43785771D01*
X142055952Y-43785771D02*
X142198809Y-43785771D01*
X142198809Y-43785771D02*
X142294047Y-43833390D01*
X142294047Y-43833390D02*
X142341666Y-43881009D01*
X142341666Y-43881009D02*
X142389285Y-43976247D01*
X142389285Y-43976247D02*
X142389285Y-44214342D01*
X142389285Y-44214342D02*
X142341666Y-44309580D01*
X142341666Y-44309580D02*
X142294047Y-44357200D01*
X142294047Y-44357200D02*
X142198809Y-44404819D01*
X142198809Y-44404819D02*
X141913095Y-44404819D01*
X141913095Y-44404819D02*
X141817857Y-44357200D01*
X141817857Y-44357200D02*
X141770238Y-44309580D01*
X132698809Y-43404819D02*
X132889285Y-43404819D01*
X132889285Y-43404819D02*
X132984523Y-43452438D01*
X132984523Y-43452438D02*
X133079761Y-43547676D01*
X133079761Y-43547676D02*
X133127380Y-43738152D01*
X133127380Y-43738152D02*
X133127380Y-44071485D01*
X133127380Y-44071485D02*
X133079761Y-44261961D01*
X133079761Y-44261961D02*
X132984523Y-44357200D01*
X132984523Y-44357200D02*
X132889285Y-44404819D01*
X132889285Y-44404819D02*
X132698809Y-44404819D01*
X132698809Y-44404819D02*
X132603571Y-44357200D01*
X132603571Y-44357200D02*
X132508333Y-44261961D01*
X132508333Y-44261961D02*
X132460714Y-44071485D01*
X132460714Y-44071485D02*
X132460714Y-43738152D01*
X132460714Y-43738152D02*
X132508333Y-43547676D01*
X132508333Y-43547676D02*
X132603571Y-43452438D01*
X132603571Y-43452438D02*
X132698809Y-43404819D01*
X133555952Y-43404819D02*
X133555952Y-44214342D01*
X133555952Y-44214342D02*
X133603571Y-44309580D01*
X133603571Y-44309580D02*
X133651190Y-44357200D01*
X133651190Y-44357200D02*
X133746428Y-44404819D01*
X133746428Y-44404819D02*
X133936904Y-44404819D01*
X133936904Y-44404819D02*
X134032142Y-44357200D01*
X134032142Y-44357200D02*
X134079761Y-44309580D01*
X134079761Y-44309580D02*
X134127380Y-44214342D01*
X134127380Y-44214342D02*
X134127380Y-43404819D01*
X134460714Y-43404819D02*
X135032142Y-43404819D01*
X134746428Y-44404819D02*
X134746428Y-43404819D01*
X135317857Y-43500057D02*
X135365476Y-43452438D01*
X135365476Y-43452438D02*
X135460714Y-43404819D01*
X135460714Y-43404819D02*
X135698809Y-43404819D01*
X135698809Y-43404819D02*
X135794047Y-43452438D01*
X135794047Y-43452438D02*
X135841666Y-43500057D01*
X135841666Y-43500057D02*
X135889285Y-43595295D01*
X135889285Y-43595295D02*
X135889285Y-43690533D01*
X135889285Y-43690533D02*
X135841666Y-43833390D01*
X135841666Y-43833390D02*
X135270238Y-44404819D01*
X135270238Y-44404819D02*
X135889285Y-44404819D01*
X134307143Y-93894771D02*
X134307143Y-93294771D01*
X134307143Y-93294771D02*
X134535714Y-93294771D01*
X134535714Y-93294771D02*
X134592857Y-93323342D01*
X134592857Y-93323342D02*
X134621428Y-93351914D01*
X134621428Y-93351914D02*
X134650000Y-93409057D01*
X134650000Y-93409057D02*
X134650000Y-93494771D01*
X134650000Y-93494771D02*
X134621428Y-93551914D01*
X134621428Y-93551914D02*
X134592857Y-93580485D01*
X134592857Y-93580485D02*
X134535714Y-93609057D01*
X134535714Y-93609057D02*
X134307143Y-93609057D01*
X134850000Y-93294771D02*
X134992857Y-93894771D01*
X134992857Y-93894771D02*
X135107143Y-93466200D01*
X135107143Y-93466200D02*
X135221428Y-93894771D01*
X135221428Y-93894771D02*
X135364286Y-93294771D01*
X135592857Y-93894771D02*
X135592857Y-93294771D01*
X135592857Y-93294771D02*
X135792857Y-93723342D01*
X135792857Y-93723342D02*
X135992857Y-93294771D01*
X135992857Y-93294771D02*
X135992857Y-93894771D01*
X145544819Y-82648094D02*
X144544819Y-82648094D01*
X144544819Y-82648094D02*
X144544819Y-82267142D01*
X144544819Y-82267142D02*
X144592438Y-82171904D01*
X144592438Y-82171904D02*
X144640057Y-82124285D01*
X144640057Y-82124285D02*
X144735295Y-82076666D01*
X144735295Y-82076666D02*
X144878152Y-82076666D01*
X144878152Y-82076666D02*
X144973390Y-82124285D01*
X144973390Y-82124285D02*
X145021009Y-82171904D01*
X145021009Y-82171904D02*
X145068628Y-82267142D01*
X145068628Y-82267142D02*
X145068628Y-82648094D01*
X144640057Y-81695713D02*
X144592438Y-81648094D01*
X144592438Y-81648094D02*
X144544819Y-81552856D01*
X144544819Y-81552856D02*
X144544819Y-81314761D01*
X144544819Y-81314761D02*
X144592438Y-81219523D01*
X144592438Y-81219523D02*
X144640057Y-81171904D01*
X144640057Y-81171904D02*
X144735295Y-81124285D01*
X144735295Y-81124285D02*
X144830533Y-81124285D01*
X144830533Y-81124285D02*
X144973390Y-81171904D01*
X144973390Y-81171904D02*
X145544819Y-81743332D01*
X145544819Y-81743332D02*
X145544819Y-81124285D01*
X120253571Y-80566200D02*
X120339286Y-80594771D01*
X120339286Y-80594771D02*
X120482143Y-80594771D01*
X120482143Y-80594771D02*
X120539286Y-80566200D01*
X120539286Y-80566200D02*
X120567857Y-80537628D01*
X120567857Y-80537628D02*
X120596428Y-80480485D01*
X120596428Y-80480485D02*
X120596428Y-80423342D01*
X120596428Y-80423342D02*
X120567857Y-80366200D01*
X120567857Y-80366200D02*
X120539286Y-80337628D01*
X120539286Y-80337628D02*
X120482143Y-80309057D01*
X120482143Y-80309057D02*
X120367857Y-80280485D01*
X120367857Y-80280485D02*
X120310714Y-80251914D01*
X120310714Y-80251914D02*
X120282143Y-80223342D01*
X120282143Y-80223342D02*
X120253571Y-80166200D01*
X120253571Y-80166200D02*
X120253571Y-80109057D01*
X120253571Y-80109057D02*
X120282143Y-80051914D01*
X120282143Y-80051914D02*
X120310714Y-80023342D01*
X120310714Y-80023342D02*
X120367857Y-79994771D01*
X120367857Y-79994771D02*
X120510714Y-79994771D01*
X120510714Y-79994771D02*
X120596428Y-80023342D01*
X120796429Y-79994771D02*
X120939286Y-80594771D01*
X120939286Y-80594771D02*
X121053572Y-80166200D01*
X121053572Y-80166200D02*
X121167857Y-80594771D01*
X121167857Y-80594771D02*
X121310715Y-79994771D01*
X121539286Y-80594771D02*
X121539286Y-79994771D01*
X121539286Y-79994771D02*
X121682143Y-79994771D01*
X121682143Y-79994771D02*
X121767857Y-80023342D01*
X121767857Y-80023342D02*
X121825000Y-80080485D01*
X121825000Y-80080485D02*
X121853571Y-80137628D01*
X121853571Y-80137628D02*
X121882143Y-80251914D01*
X121882143Y-80251914D02*
X121882143Y-80337628D01*
X121882143Y-80337628D02*
X121853571Y-80451914D01*
X121853571Y-80451914D02*
X121825000Y-80509057D01*
X121825000Y-80509057D02*
X121767857Y-80566200D01*
X121767857Y-80566200D02*
X121682143Y-80594771D01*
X121682143Y-80594771D02*
X121539286Y-80594771D01*
X122139286Y-80594771D02*
X122139286Y-79994771D01*
X122539285Y-79994771D02*
X122653571Y-79994771D01*
X122653571Y-79994771D02*
X122710714Y-80023342D01*
X122710714Y-80023342D02*
X122767857Y-80080485D01*
X122767857Y-80080485D02*
X122796428Y-80194771D01*
X122796428Y-80194771D02*
X122796428Y-80394771D01*
X122796428Y-80394771D02*
X122767857Y-80509057D01*
X122767857Y-80509057D02*
X122710714Y-80566200D01*
X122710714Y-80566200D02*
X122653571Y-80594771D01*
X122653571Y-80594771D02*
X122539285Y-80594771D01*
X122539285Y-80594771D02*
X122482143Y-80566200D01*
X122482143Y-80566200D02*
X122425000Y-80509057D01*
X122425000Y-80509057D02*
X122396428Y-80394771D01*
X122396428Y-80394771D02*
X122396428Y-80194771D01*
X122396428Y-80194771D02*
X122425000Y-80080485D01*
X122425000Y-80080485D02*
X122482143Y-80023342D01*
X122482143Y-80023342D02*
X122539285Y-79994771D01*
X130973213Y-93294771D02*
X131316071Y-93294771D01*
X131144642Y-93894771D02*
X131144642Y-93294771D01*
X131458928Y-93294771D02*
X131858928Y-93894771D01*
X131858928Y-93294771D02*
X131458928Y-93894771D01*
X121067857Y-85498342D02*
X121010715Y-85469771D01*
X121010715Y-85469771D02*
X120925000Y-85469771D01*
X120925000Y-85469771D02*
X120839286Y-85498342D01*
X120839286Y-85498342D02*
X120782143Y-85555485D01*
X120782143Y-85555485D02*
X120753572Y-85612628D01*
X120753572Y-85612628D02*
X120725000Y-85726914D01*
X120725000Y-85726914D02*
X120725000Y-85812628D01*
X120725000Y-85812628D02*
X120753572Y-85926914D01*
X120753572Y-85926914D02*
X120782143Y-85984057D01*
X120782143Y-85984057D02*
X120839286Y-86041200D01*
X120839286Y-86041200D02*
X120925000Y-86069771D01*
X120925000Y-86069771D02*
X120982143Y-86069771D01*
X120982143Y-86069771D02*
X121067857Y-86041200D01*
X121067857Y-86041200D02*
X121096429Y-86012628D01*
X121096429Y-86012628D02*
X121096429Y-85812628D01*
X121096429Y-85812628D02*
X120982143Y-85812628D01*
X121353572Y-86069771D02*
X121353572Y-85469771D01*
X121353572Y-85469771D02*
X121696429Y-86069771D01*
X121696429Y-86069771D02*
X121696429Y-85469771D01*
X121982143Y-86069771D02*
X121982143Y-85469771D01*
X121982143Y-85469771D02*
X122125000Y-85469771D01*
X122125000Y-85469771D02*
X122210714Y-85498342D01*
X122210714Y-85498342D02*
X122267857Y-85555485D01*
X122267857Y-85555485D02*
X122296428Y-85612628D01*
X122296428Y-85612628D02*
X122325000Y-85726914D01*
X122325000Y-85726914D02*
X122325000Y-85812628D01*
X122325000Y-85812628D02*
X122296428Y-85926914D01*
X122296428Y-85926914D02*
X122267857Y-85984057D01*
X122267857Y-85984057D02*
X122210714Y-86041200D01*
X122210714Y-86041200D02*
X122125000Y-86069771D01*
X122125000Y-86069771D02*
X121982143Y-86069771D01*
X120167857Y-82391200D02*
X120253572Y-82419771D01*
X120253572Y-82419771D02*
X120396429Y-82419771D01*
X120396429Y-82419771D02*
X120453572Y-82391200D01*
X120453572Y-82391200D02*
X120482143Y-82362628D01*
X120482143Y-82362628D02*
X120510714Y-82305485D01*
X120510714Y-82305485D02*
X120510714Y-82248342D01*
X120510714Y-82248342D02*
X120482143Y-82191200D01*
X120482143Y-82191200D02*
X120453572Y-82162628D01*
X120453572Y-82162628D02*
X120396429Y-82134057D01*
X120396429Y-82134057D02*
X120282143Y-82105485D01*
X120282143Y-82105485D02*
X120225000Y-82076914D01*
X120225000Y-82076914D02*
X120196429Y-82048342D01*
X120196429Y-82048342D02*
X120167857Y-81991200D01*
X120167857Y-81991200D02*
X120167857Y-81934057D01*
X120167857Y-81934057D02*
X120196429Y-81876914D01*
X120196429Y-81876914D02*
X120225000Y-81848342D01*
X120225000Y-81848342D02*
X120282143Y-81819771D01*
X120282143Y-81819771D02*
X120425000Y-81819771D01*
X120425000Y-81819771D02*
X120510714Y-81848342D01*
X120710715Y-81819771D02*
X120853572Y-82419771D01*
X120853572Y-82419771D02*
X120967858Y-81991200D01*
X120967858Y-81991200D02*
X121082143Y-82419771D01*
X121082143Y-82419771D02*
X121225001Y-81819771D01*
X121796429Y-82362628D02*
X121767857Y-82391200D01*
X121767857Y-82391200D02*
X121682143Y-82419771D01*
X121682143Y-82419771D02*
X121625000Y-82419771D01*
X121625000Y-82419771D02*
X121539286Y-82391200D01*
X121539286Y-82391200D02*
X121482143Y-82334057D01*
X121482143Y-82334057D02*
X121453572Y-82276914D01*
X121453572Y-82276914D02*
X121425000Y-82162628D01*
X121425000Y-82162628D02*
X121425000Y-82076914D01*
X121425000Y-82076914D02*
X121453572Y-81962628D01*
X121453572Y-81962628D02*
X121482143Y-81905485D01*
X121482143Y-81905485D02*
X121539286Y-81848342D01*
X121539286Y-81848342D02*
X121625000Y-81819771D01*
X121625000Y-81819771D02*
X121682143Y-81819771D01*
X121682143Y-81819771D02*
X121767857Y-81848342D01*
X121767857Y-81848342D02*
X121796429Y-81876914D01*
X122339286Y-82419771D02*
X122053572Y-82419771D01*
X122053572Y-82419771D02*
X122053572Y-81819771D01*
X122539286Y-82419771D02*
X122539286Y-81819771D01*
X122882143Y-82419771D02*
X122625000Y-82076914D01*
X122882143Y-81819771D02*
X122539286Y-82162628D01*
X120325000Y-84016200D02*
X120782143Y-84016200D01*
X120553571Y-84244771D02*
X120553571Y-83787628D01*
X121010714Y-83644771D02*
X121382142Y-83644771D01*
X121382142Y-83644771D02*
X121182142Y-83873342D01*
X121182142Y-83873342D02*
X121267857Y-83873342D01*
X121267857Y-83873342D02*
X121325000Y-83901914D01*
X121325000Y-83901914D02*
X121353571Y-83930485D01*
X121353571Y-83930485D02*
X121382142Y-83987628D01*
X121382142Y-83987628D02*
X121382142Y-84130485D01*
X121382142Y-84130485D02*
X121353571Y-84187628D01*
X121353571Y-84187628D02*
X121325000Y-84216200D01*
X121325000Y-84216200D02*
X121267857Y-84244771D01*
X121267857Y-84244771D02*
X121096428Y-84244771D01*
X121096428Y-84244771D02*
X121039285Y-84216200D01*
X121039285Y-84216200D02*
X121010714Y-84187628D01*
X121639286Y-84187628D02*
X121667857Y-84216200D01*
X121667857Y-84216200D02*
X121639286Y-84244771D01*
X121639286Y-84244771D02*
X121610714Y-84216200D01*
X121610714Y-84216200D02*
X121639286Y-84187628D01*
X121639286Y-84187628D02*
X121639286Y-84244771D01*
X121867857Y-83644771D02*
X122239285Y-83644771D01*
X122239285Y-83644771D02*
X122039285Y-83873342D01*
X122039285Y-83873342D02*
X122125000Y-83873342D01*
X122125000Y-83873342D02*
X122182143Y-83901914D01*
X122182143Y-83901914D02*
X122210714Y-83930485D01*
X122210714Y-83930485D02*
X122239285Y-83987628D01*
X122239285Y-83987628D02*
X122239285Y-84130485D01*
X122239285Y-84130485D02*
X122210714Y-84187628D01*
X122210714Y-84187628D02*
X122182143Y-84216200D01*
X122182143Y-84216200D02*
X122125000Y-84244771D01*
X122125000Y-84244771D02*
X121953571Y-84244771D01*
X121953571Y-84244771D02*
X121896428Y-84216200D01*
X121896428Y-84216200D02*
X121867857Y-84187628D01*
X122410714Y-83644771D02*
X122610714Y-84244771D01*
X122610714Y-84244771D02*
X122810714Y-83644771D01*
X132954464Y-93894771D02*
X132754464Y-93609057D01*
X132611607Y-93894771D02*
X132611607Y-93294771D01*
X132611607Y-93294771D02*
X132840178Y-93294771D01*
X132840178Y-93294771D02*
X132897321Y-93323342D01*
X132897321Y-93323342D02*
X132925892Y-93351914D01*
X132925892Y-93351914D02*
X132954464Y-93409057D01*
X132954464Y-93409057D02*
X132954464Y-93494771D01*
X132954464Y-93494771D02*
X132925892Y-93551914D01*
X132925892Y-93551914D02*
X132897321Y-93580485D01*
X132897321Y-93580485D02*
X132840178Y-93609057D01*
X132840178Y-93609057D02*
X132611607Y-93609057D01*
X133154464Y-93294771D02*
X133554464Y-93894771D01*
X133554464Y-93294771D02*
X133154464Y-93894771D01*
D12*
%TO.C,OUT1*%
X124975000Y-45250000D02*
X130375000Y-45250000D01*
X124975000Y-48650000D02*
X124975000Y-45250000D01*
X130375000Y-45250000D02*
X130375000Y-48650000D01*
X130375000Y-48650000D02*
X124975000Y-48650000D01*
D13*
%TO.C,J3*%
X121430000Y-60710000D02*
X124170000Y-60710000D01*
X121430000Y-73610000D02*
X121430000Y-60710000D01*
X124170000Y-60710000D02*
X124170000Y-73610000D01*
X124170000Y-73610000D02*
X121430000Y-73610000D01*
X122000000Y-61160000D02*
G75*
G02*
X121800000Y-61160000I-100000J0D01*
G01*
X121800000Y-61160000D02*
G75*
G02*
X122000000Y-61160000I100000J0D01*
G01*
D12*
%TO.C,5V*%
X128975000Y-90975000D02*
X130775000Y-90975000D01*
X128975000Y-92775000D02*
X128975000Y-90975000D01*
X130775000Y-90975000D02*
X130775000Y-92775000D01*
X130775000Y-92775000D02*
X128975000Y-92775000D01*
%TO.C,GND*%
X136575000Y-90975000D02*
X138375000Y-90975000D01*
X136575000Y-92775000D02*
X136575000Y-90975000D01*
X138375000Y-90975000D02*
X138375000Y-92775000D01*
X138375000Y-92775000D02*
X136575000Y-92775000D01*
%TO.C,+24V*%
X139600000Y-91000000D02*
X145000000Y-91000000D01*
X139600000Y-94400000D02*
X139600000Y-91000000D01*
X145000000Y-91000000D02*
X145000000Y-94400000D01*
X145000000Y-94400000D02*
X139600000Y-94400000D01*
%TO.C,-24V*%
X123100000Y-91000000D02*
X128500000Y-91000000D01*
X123100000Y-94400000D02*
X123100000Y-91000000D01*
X128500000Y-91000000D02*
X128500000Y-94400000D01*
X128500000Y-94400000D02*
X123100000Y-94400000D01*
%TO.C,OUT3*%
X137975000Y-45250000D02*
X143375000Y-45250000D01*
X137975000Y-48650000D02*
X137975000Y-45250000D01*
X143375000Y-45250000D02*
X143375000Y-48650000D01*
X143375000Y-48650000D02*
X137975000Y-48650000D01*
%TO.C,OUT2*%
X131475000Y-45250000D02*
X136875000Y-45250000D01*
X131475000Y-48650000D02*
X131475000Y-45250000D01*
X136875000Y-45250000D02*
X136875000Y-48650000D01*
X136875000Y-48650000D02*
X131475000Y-48650000D01*
%TO.C,PWM*%
X134675000Y-90975000D02*
X136475000Y-90975000D01*
X134675000Y-92775000D02*
X134675000Y-90975000D01*
X136475000Y-90975000D02*
X136475000Y-92775000D01*
X136475000Y-92775000D02*
X134675000Y-92775000D01*
D13*
%TO.C,P2*%
X151185000Y-64370000D02*
X151185000Y-51370000D01*
X151185000Y-89270000D02*
X151185000Y-76270000D01*
X153875000Y-51370000D02*
X151185000Y-51370000D01*
X153875000Y-64370000D02*
X151185000Y-64370000D01*
X153875000Y-64370000D02*
X153875000Y-51370000D01*
X153875000Y-76270000D02*
X151185000Y-76270000D01*
X153875000Y-89270000D02*
X151185000Y-89270000D01*
X153875000Y-89270000D02*
X153875000Y-76270000D01*
X159600000Y-52470000D02*
X153875000Y-52470000D01*
X159600000Y-53110000D02*
X153875000Y-53110000D01*
X159600000Y-53110000D02*
X159800000Y-52910000D01*
X159600000Y-55010000D02*
X153875000Y-55010000D01*
X159600000Y-55650000D02*
X153875000Y-55650000D01*
X159600000Y-55650000D02*
X159800000Y-55450000D01*
X159600000Y-57550000D02*
X153875000Y-57550000D01*
X159600000Y-58190000D02*
X153875000Y-58190000D01*
X159600000Y-58190000D02*
X159800000Y-57990000D01*
X159600000Y-60090000D02*
X153875000Y-60090000D01*
X159600000Y-60730000D02*
X153875000Y-60730000D01*
X159600000Y-60730000D02*
X159800000Y-60530000D01*
X159600000Y-62630000D02*
X153875000Y-62630000D01*
X159600000Y-63270000D02*
X153875000Y-63270000D01*
X159600000Y-63270000D02*
X159800000Y-63070000D01*
X159600000Y-77370000D02*
X153875000Y-77370000D01*
X159600000Y-78010000D02*
X153875000Y-78010000D01*
X159600000Y-78010000D02*
X159800000Y-77810000D01*
X159600000Y-79910000D02*
X153875000Y-79910000D01*
X159600000Y-80550000D02*
X153875000Y-80550000D01*
X159600000Y-80550000D02*
X159800000Y-80350000D01*
X159600000Y-82450000D02*
X153875000Y-82450000D01*
X159600000Y-83090000D02*
X153875000Y-83090000D01*
X159600000Y-83090000D02*
X159800000Y-82890000D01*
X159600000Y-84990000D02*
X153875000Y-84990000D01*
X159600000Y-85630000D02*
X153875000Y-85630000D01*
X159600000Y-85630000D02*
X159800000Y-85430000D01*
X159600000Y-87530000D02*
X153875000Y-87530000D01*
X159600000Y-88170000D02*
X153875000Y-88170000D01*
X159600000Y-88170000D02*
X159800000Y-87970000D01*
X159800000Y-52670000D02*
X159600000Y-52470000D01*
X159800000Y-52910000D02*
X159800000Y-52670000D01*
X159800000Y-55210000D02*
X159600000Y-55010000D01*
X159800000Y-55450000D02*
X159800000Y-55210000D01*
X159800000Y-57750000D02*
X159600000Y-57550000D01*
X159800000Y-57990000D02*
X159800000Y-57750000D01*
X159800000Y-60290000D02*
X159600000Y-60090000D01*
X159800000Y-60530000D02*
X159800000Y-60290000D01*
X159800000Y-62830000D02*
X159600000Y-62630000D01*
X159800000Y-63070000D02*
X159800000Y-62830000D01*
X159800000Y-77570000D02*
X159600000Y-77370000D01*
X159800000Y-77810000D02*
X159800000Y-77570000D01*
X159800000Y-80110000D02*
X159600000Y-79910000D01*
X159800000Y-80350000D02*
X159800000Y-80110000D01*
X159800000Y-82650000D02*
X159600000Y-82450000D01*
X159800000Y-82890000D02*
X159800000Y-82650000D01*
X159800000Y-85190000D02*
X159600000Y-84990000D01*
X159800000Y-85430000D02*
X159800000Y-85190000D01*
X159800000Y-87730000D02*
X159600000Y-87530000D01*
X159800000Y-87970000D02*
X159800000Y-87730000D01*
D14*
X149955000Y-51360000D02*
G75*
G02*
X149705000Y-51360000I-125000J0D01*
G01*
X149705000Y-51360000D02*
G75*
G02*
X149955000Y-51360000I125000J0D01*
G01*
X149955000Y-76260000D02*
G75*
G02*
X149705000Y-76260000I-125000J0D01*
G01*
X149705000Y-76260000D02*
G75*
G02*
X149955000Y-76260000I125000J0D01*
G01*
D12*
%TO.C,SWDIO*%
X123100000Y-80275000D02*
X124900000Y-80275000D01*
X123100000Y-82075000D02*
X123100000Y-80275000D01*
X124900000Y-80275000D02*
X124900000Y-82075000D01*
X124900000Y-82075000D02*
X123100000Y-82075000D01*
%TO.C,TX*%
X130875000Y-90975000D02*
X132675000Y-90975000D01*
X130875000Y-92775000D02*
X130875000Y-90975000D01*
X132675000Y-90975000D02*
X132675000Y-92775000D01*
X132675000Y-92775000D02*
X130875000Y-92775000D01*
%TO.C,GND*%
X123100000Y-85975000D02*
X124900000Y-85975000D01*
X123100000Y-87775000D02*
X123100000Y-85975000D01*
X124900000Y-85975000D02*
X124900000Y-87775000D01*
X124900000Y-87775000D02*
X123100000Y-87775000D01*
%TO.C,SWCLK*%
X123100000Y-82175000D02*
X124900000Y-82175000D01*
X123100000Y-83975000D02*
X123100000Y-82175000D01*
X124900000Y-82175000D02*
X124900000Y-83975000D01*
X124900000Y-83975000D02*
X123100000Y-83975000D01*
%TO.C,+3.3V*%
X123100000Y-84075000D02*
X124900000Y-84075000D01*
X123100000Y-85875000D02*
X123100000Y-84075000D01*
X124900000Y-84075000D02*
X124900000Y-85875000D01*
X124900000Y-85875000D02*
X123100000Y-85875000D01*
%TO.C,RX*%
X132775000Y-90975000D02*
X134575000Y-90975000D01*
X132775000Y-92775000D02*
X132775000Y-90975000D01*
X134575000Y-90975000D02*
X134575000Y-92775000D01*
X134575000Y-92775000D02*
X132775000Y-92775000D01*
%TD*%
D15*
X122800000Y-62080000D03*
X122800000Y-64620000D03*
X122800000Y-67160000D03*
X122800000Y-69700000D03*
X122800000Y-72240000D03*
X149800000Y-52790000D03*
X147260000Y-52790000D03*
X149800000Y-55330000D03*
X147260000Y-55330000D03*
X149800000Y-57870000D03*
X147260000Y-57870000D03*
X149800000Y-60410000D03*
X147260000Y-60410000D03*
X149800000Y-62950000D03*
X147260000Y-62950000D03*
X149800000Y-77690000D03*
X147260000Y-77690000D03*
X149800000Y-80230000D03*
X147260000Y-80230000D03*
X149800000Y-82770000D03*
X147260000Y-82770000D03*
X149800000Y-85310000D03*
X147260000Y-85310000D03*
X149800000Y-87850000D03*
X147260000Y-87850000D03*
M02*
