M48
METRIC,TZ
T1C0.300
T2C1.100
%
G90
G05
T1
X124300Y-82700
X129744Y-91775
X130300Y-92200
X131600Y-91600
X132000Y-92200
X132300Y-46700
X132300Y-47700
X133300Y-46700
X133300Y-47700
X133300Y-91700
X133800Y-92200
X134300Y-46700
X134300Y-47700
X135300Y-46700
X135300Y-47700
X135300Y-91700
X135800Y-92200
X136300Y-46700
X136300Y-47700
X138800Y-46700
X138800Y-47700
X139800Y-46700
X139800Y-47700
X140800Y-46700
X140800Y-47700
X141800Y-46700
X141800Y-47700
X142800Y-46700
X142800Y-47700
X146776Y-75224
X146800Y-71200
X148300Y-71200
T2
X122800Y-62080
X122800Y-64620
X122800Y-67160
X122800Y-69700
X122800Y-72240
X147260Y-52790
X147260Y-55330
X147260Y-57870
X147260Y-60410
X147260Y-62950
X147260Y-77690
X147260Y-80230
X147260Y-82770
X147260Y-85310
X147260Y-87850
X149800Y-52790
X149800Y-55330
X149800Y-57870
X149800Y-60410
X149800Y-62950
X149800Y-77690
X149800Y-80230
X149800Y-82770
X149800Y-85310
X149800Y-87850
M30
