%TF.GenerationSoftware,KiCad,Pcbnew,8.0.6*%
%TF.CreationDate,2024-10-27T21:52:18+01:00*%
%TF.ProjectId,Motor_Driver_carrier_board,4d6f746f-725f-4447-9269-7665725f6361,rev?*%
%TF.SameCoordinates,Original*%
%TF.FileFunction,Profile,NP*%
%FSLAX46Y46*%
G04 Gerber Fmt 4.6, Leading zero omitted, Abs format (unit mm)*
G04 Created by KiCad (PCBNEW 8.0.6) date 2024-10-27 21:52:18*
%MOMM*%
%LPD*%
G01*
G04 APERTURE LIST*
%TA.AperFunction,Profile*%
%ADD10C,0.050000*%
%TD*%
%ADD11C,0.350000*%
G04 APERTURE END LIST*
D10*
X148920000Y-97070000D02*
X145449999Y-97075188D01*
X118922973Y-46550011D02*
X118975000Y-92125062D01*
X153940000Y-46550000D02*
X153920000Y-92070000D01*
X125200000Y-49375000D02*
X143150000Y-49375000D01*
X143150000Y-90575000D01*
X125200000Y-90575000D01*
X125200000Y-49375000D01*
X145475000Y-41550000D02*
X148940000Y-41550000D01*
X148940000Y-41550000D02*
G75*
G02*
X153940000Y-46550000I0J-5000000D01*
G01*
X123975000Y-97125062D02*
X145449999Y-97075188D01*
X123922973Y-41550011D02*
X145475000Y-41550000D01*
X123975000Y-97125062D02*
G75*
G02*
X118975038Y-92125062I0J4999962D01*
G01*
X118922973Y-46550011D02*
G75*
G02*
X123922973Y-41549973I5000027J11D01*
G01*
X153920000Y-92070000D02*
G75*
G02*
X148920000Y-97070000I-5000000J0D01*
G01*
D11*
X122800000Y-62080000D03*
X122800000Y-64620000D03*
X122800000Y-67160000D03*
X122800000Y-69700000D03*
X122800000Y-72240000D03*
X149800000Y-52790000D03*
X147260000Y-52790000D03*
X149800000Y-55330000D03*
X147260000Y-55330000D03*
X149800000Y-57870000D03*
X147260000Y-57870000D03*
X149800000Y-60410000D03*
X147260000Y-60410000D03*
X149800000Y-62950000D03*
X147260000Y-62950000D03*
X149800000Y-77690000D03*
X147260000Y-77690000D03*
X149800000Y-80230000D03*
X147260000Y-80230000D03*
X149800000Y-82770000D03*
X147260000Y-82770000D03*
X149800000Y-85310000D03*
X147260000Y-85310000D03*
X149800000Y-87850000D03*
X147260000Y-87850000D03*
M02*
