%TF.GenerationSoftware,KiCad,Pcbnew,8.0.6*%
%TF.CreationDate,2024-10-27T21:52:18+01:00*%
%TF.ProjectId,Motor_Driver_carrier_board,4d6f746f-725f-4447-9269-7665725f6361,rev?*%
%TF.SameCoordinates,Original*%
%TF.FileFunction,Copper,L2,Bot*%
%TF.FilePolarity,Positive*%
%FSLAX46Y46*%
G04 Gerber Fmt 4.6, Leading zero omitted, Abs format (unit mm)*
G04 Created by KiCad (PCBNEW 8.0.6) date 2024-10-27 21:52:18*
%MOMM*%
%LPD*%
G01*
G04 APERTURE LIST*
G04 Aperture macros list*
%AMRoundRect*
0 Rectangle with rounded corners*
0 $1 Rounding radius*
0 $2 $3 $4 $5 $6 $7 $8 $9 X,Y pos of 4 corners*
0 Add a 4 corners polygon primitive as box body*
4,1,4,$2,$3,$4,$5,$6,$7,$8,$9,$2,$3,0*
0 Add four circle primitives for the rounded corners*
1,1,$1+$1,$2,$3*
1,1,$1+$1,$4,$5*
1,1,$1+$1,$6,$7*
1,1,$1+$1,$8,$9*
0 Add four rect primitives between the rounded corners*
20,1,$1+$1,$2,$3,$4,$5,0*
20,1,$1+$1,$4,$5,$6,$7,0*
20,1,$1+$1,$6,$7,$8,$9,0*
20,1,$1+$1,$8,$9,$2,$3,0*%
G04 Aperture macros list end*
%TA.AperFunction,ComponentPad*%
%ADD10C,1.650000*%
%TD*%
%TA.AperFunction,ComponentPad*%
%ADD11RoundRect,0.412500X0.412500X-0.412500X0.412500X0.412500X-0.412500X0.412500X-0.412500X-0.412500X0*%
%TD*%
%TA.AperFunction,SMDPad,CuDef*%
%ADD12R,1.400000X1.400000*%
%TD*%
%TA.AperFunction,ViaPad*%
%ADD13C,0.600000*%
%TD*%
%TA.AperFunction,Conductor*%
%ADD14C,0.200000*%
%TD*%
%TA.AperFunction,Conductor*%
%ADD15C,1.791660*%
%TD*%
%ADD16C,0.300000*%
%ADD17C,0.350000*%
G04 APERTURE END LIST*
D10*
%TO.P,J3,1,1*%
%TO.N,/SWDIO*%
X122800000Y-62080000D03*
%TO.P,J3,2,2*%
%TO.N,/SWCLK*%
X122800000Y-64620000D03*
%TO.P,J3,3,3*%
%TO.N,/3.3V*%
X122800000Y-67160000D03*
%TO.P,J3,4,4*%
%TO.N,GND*%
X122800000Y-69700000D03*
%TO.P,J3,5,5*%
X122800000Y-72240000D03*
%TD*%
D11*
%TO.P,P2,1,1*%
%TO.N,/OUT1*%
X149800000Y-52790000D03*
D10*
%TO.P,P2,2,2*%
X147260000Y-52790000D03*
%TO.P,P2,3,3*%
%TO.N,/OUT2*%
X149800000Y-55330000D03*
%TO.P,P2,4,4*%
X147260000Y-55330000D03*
%TO.P,P2,5,5*%
%TO.N,/OUT3*%
X149800000Y-57870000D03*
%TO.P,P2,6,6*%
X147260000Y-57870000D03*
%TO.P,P2,7,7*%
%TO.N,/24V*%
X149800000Y-60410000D03*
%TO.P,P2,8,8*%
X147260000Y-60410000D03*
%TO.P,P2,9,9*%
%TO.N,GND*%
X149800000Y-62950000D03*
%TO.P,P2,10,10*%
X147260000Y-62950000D03*
D11*
%TO.P,P2,11,11*%
%TO.N,/H1*%
X149800000Y-77690000D03*
D10*
%TO.P,P2,12,12*%
%TO.N,/PWM*%
X147260000Y-77690000D03*
%TO.P,P2,13,13*%
%TO.N,/H2*%
X149800000Y-80230000D03*
%TO.P,P2,14,14*%
%TO.N,/RX*%
X147260000Y-80230000D03*
%TO.P,P2,15,15*%
%TO.N,/H3*%
X149800000Y-82770000D03*
%TO.P,P2,16,16*%
%TO.N,/TX*%
X147260000Y-82770000D03*
%TO.P,P2,17,17*%
%TO.N,/5V*%
X149800000Y-85310000D03*
%TO.P,P2,18,18*%
X147260000Y-85310000D03*
%TO.P,P2,19,19*%
%TO.N,GND*%
X149800000Y-87850000D03*
%TO.P,P2,20,20*%
X147260000Y-87850000D03*
%TD*%
D12*
%TO.P,GND,1*%
%TO.N,GND*%
X144800000Y-74300000D03*
%TD*%
%TO.P,H2,1*%
%TO.N,/H2*%
X144800000Y-68600000D03*
%TD*%
%TO.P,5V,1*%
%TO.N,/5V*%
X144800000Y-72400000D03*
%TD*%
%TO.P,H1,1*%
%TO.N,/H1*%
X144800000Y-66700000D03*
%TD*%
%TO.P,H3,1*%
%TO.N,/H3*%
X144800000Y-70500000D03*
%TD*%
D13*
%TO.N,/OUT3*%
X141800000Y-47700000D03*
X138800000Y-47700000D03*
X138800000Y-46700000D03*
X142800000Y-46700000D03*
X139800000Y-47700000D03*
X141800000Y-46700000D03*
X140800000Y-47700000D03*
X139800000Y-46700000D03*
X142800000Y-47700000D03*
X140800000Y-46700000D03*
%TO.N,GND*%
X146775735Y-75224265D03*
%TO.N,/OUT2*%
X135300000Y-46700000D03*
X134300000Y-46700000D03*
X132300000Y-46700000D03*
X133300000Y-47700000D03*
X133300000Y-46700000D03*
X135300000Y-47700000D03*
X132300000Y-47700000D03*
X134300000Y-47700000D03*
X136300000Y-47700000D03*
X136300000Y-46700000D03*
%TO.N,/PWM*%
X135800000Y-92200000D03*
X135300000Y-91700000D03*
%TO.N,/5V*%
X129743948Y-91774783D03*
X130300000Y-92200000D03*
%TO.N,/RX*%
X133300000Y-91700000D03*
X133800000Y-92200000D03*
%TO.N,/H2*%
X148300000Y-71200000D03*
%TO.N,/TX*%
X131600000Y-91600000D03*
X132000000Y-92200000D03*
%TO.N,/H3*%
X146800000Y-71200000D03*
%TO.N,/SWCLK*%
X124300000Y-82700000D03*
%TD*%
D14*
%TO.N,/H3*%
X146800000Y-71200000D02*
X146100000Y-70500000D01*
X146100000Y-70500000D02*
X144800000Y-70500000D01*
D15*
%TO.N,/OUT2*%
X149800000Y-55330000D02*
X150966726Y-55330000D01*
X144717862Y-44608340D02*
X136391660Y-44608340D01*
X150966726Y-55330000D02*
X151820830Y-54475896D01*
X151820830Y-54475896D02*
X151820830Y-51711308D01*
X151820830Y-51711308D02*
X144717862Y-44608340D01*
%TO.N,/OUT3*%
X144959170Y-56167056D02*
X146662114Y-57870000D01*
X146662114Y-57870000D02*
X149520000Y-57870000D01*
X142449002Y-46700000D02*
X144959170Y-49210168D01*
X144959170Y-49210168D02*
X144959170Y-56167056D01*
X140800000Y-46700000D02*
X139800000Y-46700000D01*
X140800000Y-46700000D02*
X142449002Y-46700000D01*
X139300000Y-47200000D02*
X139800000Y-47700000D01*
X139800000Y-46700000D02*
X139300000Y-47200000D01*
X139800000Y-47700000D02*
X141800000Y-47700000D01*
D14*
%TO.N,GND*%
X145851470Y-74300000D02*
X146775735Y-75224265D01*
X144800000Y-74300000D02*
X145851470Y-74300000D01*
D15*
%TO.N,/OUT2*%
X136391660Y-44608340D02*
X136383320Y-44600000D01*
X134300000Y-46700000D02*
X133300000Y-46700000D01*
X134300000Y-46700000D02*
X136391660Y-44608340D01*
X133800000Y-44600000D02*
X133800000Y-46200000D01*
X132800000Y-47200000D02*
X135800000Y-47200000D01*
X133300000Y-46700000D02*
X132800000Y-47200000D01*
X150170000Y-55330000D02*
X147080168Y-55330000D01*
X136383320Y-44600000D02*
X133800000Y-44600000D01*
X133800000Y-46200000D02*
X132800000Y-47200000D01*
D14*
%TO.N,/PWM*%
X135300000Y-91700000D02*
X135800000Y-92200000D01*
X144310000Y-77690000D02*
X146980000Y-77690000D01*
X142734314Y-92200000D02*
X143800000Y-91134314D01*
X143800000Y-91134314D02*
X143800000Y-78200000D01*
X135800000Y-92200000D02*
X142734314Y-92200000D01*
X143800000Y-78200000D02*
X144310000Y-77690000D01*
%TO.N,/5V*%
X129600000Y-91800000D02*
X129625217Y-91774783D01*
X131700000Y-93600000D02*
X143465686Y-93600000D01*
X146980000Y-85310000D02*
X149520000Y-85310000D01*
X130300000Y-92200000D02*
X131700000Y-93600000D01*
X145300000Y-85700000D02*
X145690000Y-85310000D01*
X144800000Y-72400000D02*
X148395000Y-75995000D01*
X145690000Y-85310000D02*
X146980000Y-85310000D01*
X130300000Y-92200000D02*
X130000000Y-92200000D01*
X148395000Y-75995000D02*
X148395000Y-84185000D01*
X148395000Y-84185000D02*
X149520000Y-85310000D01*
X145300000Y-91765686D02*
X145300000Y-85700000D01*
X130000000Y-92200000D02*
X129600000Y-91800000D01*
X129625217Y-91774783D02*
X129743948Y-91774783D01*
X143465686Y-93600000D02*
X145300000Y-91765686D01*
%TO.N,/RX*%
X144300000Y-80700000D02*
X144770000Y-80230000D01*
X134400000Y-92800000D02*
X142700000Y-92800000D01*
X144770000Y-80230000D02*
X146980000Y-80230000D01*
X133300000Y-91700000D02*
X133800000Y-92200000D01*
X144300000Y-91200000D02*
X144300000Y-80700000D01*
X142700000Y-92800000D02*
X144300000Y-91200000D01*
X133800000Y-92200000D02*
X134400000Y-92800000D01*
%TO.N,/H2*%
X145700000Y-68600000D02*
X148300000Y-71200000D01*
X144800000Y-68600000D02*
X145700000Y-68600000D01*
%TO.N,/TX*%
X145230000Y-82770000D02*
X146980000Y-82770000D01*
X143300000Y-93200000D02*
X144800000Y-91700000D01*
X131600000Y-91800000D02*
X132000000Y-92200000D01*
X144800000Y-83200000D02*
X145230000Y-82770000D01*
X132800000Y-93200000D02*
X143300000Y-93200000D01*
X144800000Y-91700000D02*
X144800000Y-83200000D01*
X131800000Y-92200000D02*
X132800000Y-93200000D01*
X131600000Y-91600000D02*
X131600000Y-91800000D01*
%TO.N,/H1*%
X144800000Y-66700000D02*
X149520000Y-71420000D01*
X149520000Y-71420000D02*
X149520000Y-77690000D01*
%TO.N,/SWCLK*%
X124300000Y-66120000D02*
X122800000Y-64620000D01*
X124300000Y-82700000D02*
X124300000Y-66120000D01*
%TD*%
%TA.AperFunction,Conductor*%
%TO.N,GND*%
G36*
X146005202Y-74101330D02*
G01*
X146011680Y-74107362D01*
X148008181Y-76103863D01*
X148041666Y-76165186D01*
X148044500Y-76191544D01*
X148044500Y-76688147D01*
X148024815Y-76755186D01*
X147972011Y-76800941D01*
X147902853Y-76810885D01*
X147855222Y-76793574D01*
X147741447Y-76723127D01*
X147741445Y-76723126D01*
X147651153Y-76688147D01*
X147555586Y-76651124D01*
X147555582Y-76651123D01*
X147451444Y-76631657D01*
X147359660Y-76614500D01*
X147160340Y-76614500D01*
X147070254Y-76631339D01*
X146964417Y-76651123D01*
X146964415Y-76651123D01*
X146964414Y-76651124D01*
X146912517Y-76671229D01*
X146778554Y-76723126D01*
X146778552Y-76723127D01*
X146609088Y-76828056D01*
X146461792Y-76962333D01*
X146341675Y-77121393D01*
X146341670Y-77121401D01*
X146267293Y-77270772D01*
X146219790Y-77322009D01*
X146156293Y-77339500D01*
X144263856Y-77339500D01*
X144174712Y-77363386D01*
X144174709Y-77363387D01*
X144094791Y-77409527D01*
X144094786Y-77409531D01*
X143862181Y-77642137D01*
X143800858Y-77675622D01*
X143731166Y-77670638D01*
X143675233Y-77628766D01*
X143650816Y-77563302D01*
X143650500Y-77554456D01*
X143650500Y-75274127D01*
X143670185Y-75207088D01*
X143722989Y-75161333D01*
X143792147Y-75151389D01*
X143855703Y-75180414D01*
X143862181Y-75186446D01*
X143927520Y-75251785D01*
X143927525Y-75251788D01*
X144030123Y-75297089D01*
X144055206Y-75299999D01*
X144649999Y-75299999D01*
X144950000Y-75299999D01*
X145544786Y-75299999D01*
X145544808Y-75299997D01*
X145569869Y-75297091D01*
X145569873Y-75297090D01*
X145672474Y-75251788D01*
X145672479Y-75251785D01*
X145751785Y-75172479D01*
X145751788Y-75172474D01*
X145797089Y-75069877D01*
X145797089Y-75069875D01*
X145799999Y-75044794D01*
X145800000Y-75044791D01*
X145800000Y-74450000D01*
X144950000Y-74450000D01*
X144950000Y-75299999D01*
X144649999Y-75299999D01*
X144650000Y-75299998D01*
X144650000Y-74274000D01*
X144669685Y-74206961D01*
X144722489Y-74161206D01*
X144774000Y-74150000D01*
X145799999Y-74150000D01*
X145818723Y-74131275D01*
X145819684Y-74128004D01*
X145872488Y-74082249D01*
X145941646Y-74072305D01*
X146005202Y-74101330D01*
G37*
%TD.AperFunction*%
%TA.AperFunction,Conductor*%
G36*
X148942702Y-42050617D02*
G01*
X149326771Y-42067386D01*
X149337506Y-42068326D01*
X149715971Y-42118152D01*
X149726597Y-42120025D01*
X150099284Y-42202648D01*
X150109710Y-42205442D01*
X150473765Y-42320227D01*
X150483911Y-42323920D01*
X150836578Y-42470000D01*
X150846369Y-42474566D01*
X151184917Y-42650803D01*
X151184942Y-42650816D01*
X151194309Y-42656223D01*
X151195887Y-42657229D01*
X151516244Y-42861318D01*
X151525105Y-42867523D01*
X151827930Y-43099889D01*
X151836217Y-43106843D01*
X152117635Y-43364715D01*
X152125284Y-43372364D01*
X152383156Y-43653782D01*
X152390110Y-43662069D01*
X152622476Y-43964894D01*
X152628681Y-43973755D01*
X152833775Y-44295689D01*
X152839183Y-44305057D01*
X153015430Y-44643623D01*
X153020002Y-44653427D01*
X153166075Y-45006078D01*
X153169775Y-45016244D01*
X153284554Y-45380278D01*
X153287354Y-45390727D01*
X153369971Y-45763389D01*
X153371849Y-45774042D01*
X153378473Y-45824355D01*
X153411816Y-46077621D01*
X153421671Y-46152472D01*
X153422614Y-46163249D01*
X153439379Y-46547268D01*
X153439497Y-46552730D01*
X153419531Y-91996040D01*
X153419500Y-91996535D01*
X153419500Y-92067293D01*
X153419382Y-92072702D01*
X153402614Y-92456750D01*
X153401671Y-92467526D01*
X153351849Y-92845957D01*
X153349971Y-92856610D01*
X153267354Y-93229272D01*
X153264554Y-93239721D01*
X153149775Y-93603755D01*
X153146075Y-93613921D01*
X153000002Y-93966572D01*
X152995430Y-93976376D01*
X152819183Y-94314942D01*
X152813775Y-94324310D01*
X152608681Y-94646244D01*
X152602476Y-94655105D01*
X152370110Y-94957930D01*
X152363156Y-94966217D01*
X152105284Y-95247635D01*
X152097635Y-95255284D01*
X151816217Y-95513156D01*
X151807930Y-95520110D01*
X151505105Y-95752476D01*
X151496244Y-95758681D01*
X151174310Y-95963775D01*
X151164942Y-95969183D01*
X150826376Y-96145430D01*
X150816572Y-96150002D01*
X150463921Y-96296075D01*
X150453755Y-96299775D01*
X150089721Y-96414554D01*
X150079272Y-96417354D01*
X149706610Y-96499971D01*
X149695957Y-96501849D01*
X149317526Y-96551671D01*
X149306750Y-96552614D01*
X148922694Y-96569382D01*
X148917285Y-96569500D01*
X148847046Y-96569500D01*
X148845368Y-96569610D01*
X145523194Y-96574577D01*
X145522275Y-96574519D01*
X145514730Y-96574536D01*
X145514729Y-96574536D01*
X145449422Y-96574687D01*
X145448743Y-96574689D01*
X145448643Y-96574689D01*
X145375902Y-96574798D01*
X145374972Y-96574860D01*
X123977805Y-96624553D01*
X123972108Y-96624435D01*
X123588250Y-96607676D01*
X123577475Y-96606733D01*
X123489354Y-96595131D01*
X123199046Y-96556911D01*
X123188394Y-96555033D01*
X122815732Y-96472416D01*
X122805282Y-96469616D01*
X122441247Y-96354836D01*
X122431082Y-96351136D01*
X122078436Y-96205063D01*
X122068632Y-96200491D01*
X121730063Y-96024244D01*
X121720694Y-96018835D01*
X121398774Y-95813747D01*
X121389913Y-95807543D01*
X121087083Y-95575172D01*
X121078796Y-95568218D01*
X120797379Y-95310345D01*
X120789730Y-95302696D01*
X120531854Y-95021271D01*
X120524901Y-95012984D01*
X120429022Y-94888031D01*
X120292535Y-94710156D01*
X120286345Y-94701317D01*
X120081246Y-94379372D01*
X120075839Y-94370007D01*
X120049677Y-94319750D01*
X119899582Y-94031416D01*
X119895022Y-94021636D01*
X119748953Y-93668986D01*
X119745253Y-93658821D01*
X119719986Y-93578684D01*
X119630469Y-93294768D01*
X119627678Y-93284353D01*
X119545057Y-92911658D01*
X119543185Y-92901038D01*
X119493361Y-92522570D01*
X119492421Y-92511837D01*
X119475618Y-92126894D01*
X119475500Y-92121484D01*
X119475500Y-92092620D01*
X119475501Y-92059174D01*
X119475500Y-92059170D01*
X119475500Y-92051772D01*
X119475414Y-92050472D01*
X119475352Y-91996535D01*
X119449728Y-69550000D01*
X121684079Y-69550000D01*
X122270791Y-69550000D01*
X122250000Y-69627591D01*
X122250000Y-69772409D01*
X122270791Y-69850000D01*
X121684079Y-69850000D01*
X121689417Y-69907603D01*
X121689417Y-69907605D01*
X121746472Y-70108133D01*
X121746478Y-70108148D01*
X121839404Y-70294768D01*
X121839409Y-70294776D01*
X121965054Y-70461157D01*
X122119130Y-70601615D01*
X122119132Y-70601617D01*
X122296392Y-70711371D01*
X122296398Y-70711374D01*
X122490811Y-70786689D01*
X122650000Y-70816446D01*
X122650000Y-70229209D01*
X122727591Y-70250000D01*
X122872409Y-70250000D01*
X122950000Y-70229209D01*
X122950000Y-70816446D01*
X123109187Y-70786689D01*
X123109188Y-70786689D01*
X123303601Y-70711374D01*
X123303607Y-70711371D01*
X123480867Y-70601617D01*
X123480869Y-70601615D01*
X123634945Y-70461157D01*
X123726546Y-70339858D01*
X123782655Y-70298222D01*
X123852367Y-70293531D01*
X123913549Y-70327273D01*
X123946776Y-70388736D01*
X123949500Y-70414585D01*
X123949500Y-71525414D01*
X123929815Y-71592453D01*
X123877011Y-71638208D01*
X123807853Y-71648152D01*
X123744297Y-71619127D01*
X123726546Y-71600141D01*
X123634945Y-71478842D01*
X123480869Y-71338384D01*
X123480867Y-71338382D01*
X123303607Y-71228628D01*
X123303601Y-71228625D01*
X123109189Y-71153310D01*
X122950000Y-71123552D01*
X122950000Y-71710790D01*
X122872409Y-71690000D01*
X122727591Y-71690000D01*
X122650000Y-71710790D01*
X122650000Y-71123552D01*
X122490810Y-71153310D01*
X122296398Y-71228625D01*
X122296392Y-71228628D01*
X122119132Y-71338382D01*
X122119130Y-71338384D01*
X121965054Y-71478842D01*
X121839409Y-71645223D01*
X121839404Y-71645231D01*
X121746478Y-71831851D01*
X121746472Y-71831866D01*
X121689417Y-72032394D01*
X121689417Y-72032396D01*
X121684079Y-72090000D01*
X122270791Y-72090000D01*
X122250000Y-72167591D01*
X122250000Y-72312409D01*
X122270791Y-72390000D01*
X121684079Y-72390000D01*
X121689417Y-72447603D01*
X121689417Y-72447605D01*
X121746472Y-72648133D01*
X121746478Y-72648148D01*
X121839404Y-72834768D01*
X121839409Y-72834776D01*
X121965054Y-73001157D01*
X122119130Y-73141615D01*
X122119132Y-73141617D01*
X122296392Y-73251371D01*
X122296398Y-73251374D01*
X122490811Y-73326689D01*
X122650000Y-73356446D01*
X122650000Y-72769209D01*
X122727591Y-72790000D01*
X122872409Y-72790000D01*
X122950000Y-72769209D01*
X122950000Y-73356446D01*
X123109187Y-73326689D01*
X123109188Y-73326689D01*
X123303601Y-73251374D01*
X123303607Y-73251371D01*
X123480867Y-73141617D01*
X123480869Y-73141615D01*
X123634945Y-73001157D01*
X123726546Y-72879858D01*
X123782655Y-72838222D01*
X123852367Y-72833531D01*
X123913549Y-72867273D01*
X123946776Y-72928736D01*
X123949500Y-72954585D01*
X123949500Y-82213908D01*
X123929815Y-82280947D01*
X123911913Y-82300412D01*
X123913129Y-82301628D01*
X123907384Y-82307372D01*
X123819137Y-82422377D01*
X123763671Y-82556287D01*
X123763670Y-82556291D01*
X123744750Y-82699999D01*
X123744750Y-82700000D01*
X123763670Y-82843708D01*
X123763671Y-82843712D01*
X123819137Y-82977622D01*
X123819138Y-82977624D01*
X123819139Y-82977625D01*
X123907379Y-83092621D01*
X124022375Y-83180861D01*
X124022376Y-83180861D01*
X124022377Y-83180862D01*
X124067013Y-83199350D01*
X124156291Y-83236330D01*
X124283280Y-83253048D01*
X124299999Y-83255250D01*
X124300000Y-83255250D01*
X124300001Y-83255250D01*
X124314977Y-83253278D01*
X124443709Y-83236330D01*
X124528048Y-83201395D01*
X124597517Y-83193927D01*
X124659996Y-83225202D01*
X124695648Y-83285291D01*
X124699500Y-83315957D01*
X124699500Y-90640891D01*
X124733608Y-90768187D01*
X124766554Y-90825250D01*
X124799500Y-90882314D01*
X124892686Y-90975500D01*
X125006814Y-91041392D01*
X125134108Y-91075500D01*
X125265892Y-91075500D01*
X129385684Y-91075500D01*
X129452723Y-91095185D01*
X129498478Y-91147989D01*
X129508422Y-91217147D01*
X129479397Y-91280703D01*
X129461171Y-91297875D01*
X129351329Y-91382160D01*
X129263085Y-91497160D01*
X129207619Y-91631070D01*
X129207618Y-91631074D01*
X129198544Y-91700000D01*
X129188698Y-91774783D01*
X129198534Y-91849497D01*
X129207618Y-91918491D01*
X129207619Y-91918495D01*
X129263085Y-92052405D01*
X129263086Y-92052407D01*
X129263087Y-92052408D01*
X129351327Y-92167404D01*
X129466323Y-92255644D01*
X129488100Y-92264664D01*
X129603388Y-92312418D01*
X129643617Y-92339298D01*
X129719531Y-92415212D01*
X129784788Y-92480469D01*
X129829019Y-92506006D01*
X129865394Y-92537906D01*
X129907379Y-92592621D01*
X130022375Y-92680861D01*
X130156291Y-92736330D01*
X130300000Y-92755250D01*
X130308129Y-92755250D01*
X130308129Y-92758828D01*
X130360970Y-92767031D01*
X130395878Y-92791560D01*
X131484788Y-93880470D01*
X131564712Y-93926614D01*
X131653856Y-93950500D01*
X131653858Y-93950500D01*
X143511828Y-93950500D01*
X143511830Y-93950500D01*
X143600974Y-93926614D01*
X143680898Y-93880470D01*
X145580470Y-91980898D01*
X145626614Y-91900974D01*
X145640406Y-91849500D01*
X145641166Y-91846666D01*
X145642061Y-91843320D01*
X145650500Y-91811830D01*
X145650500Y-87700000D01*
X146144079Y-87700000D01*
X146730791Y-87700000D01*
X146710000Y-87777591D01*
X146710000Y-87922409D01*
X146730791Y-88000000D01*
X146144079Y-88000000D01*
X146149417Y-88057603D01*
X146149417Y-88057605D01*
X146206472Y-88258133D01*
X146206478Y-88258148D01*
X146299404Y-88444768D01*
X146299409Y-88444776D01*
X146425054Y-88611157D01*
X146579130Y-88751615D01*
X146579132Y-88751617D01*
X146756392Y-88861371D01*
X146756398Y-88861374D01*
X146950811Y-88936689D01*
X147110000Y-88966446D01*
X147110000Y-88379209D01*
X147187591Y-88400000D01*
X147332409Y-88400000D01*
X147410000Y-88379209D01*
X147410000Y-88966446D01*
X147569187Y-88936689D01*
X147569188Y-88936689D01*
X147763601Y-88861374D01*
X147763607Y-88861371D01*
X147940867Y-88751617D01*
X147940869Y-88751615D01*
X148094945Y-88611157D01*
X148220590Y-88444776D01*
X148220595Y-88444768D01*
X148313521Y-88258148D01*
X148313527Y-88258133D01*
X148370582Y-88057605D01*
X148370582Y-88057603D01*
X148375921Y-88000000D01*
X147789209Y-88000000D01*
X147810000Y-87922409D01*
X147810000Y-87777591D01*
X147789209Y-87700000D01*
X148375920Y-87700000D01*
X148684079Y-87700000D01*
X149270791Y-87700000D01*
X149250000Y-87777591D01*
X149250000Y-87922409D01*
X149270791Y-88000000D01*
X148684079Y-88000000D01*
X148689417Y-88057603D01*
X148689417Y-88057605D01*
X148746472Y-88258133D01*
X148746478Y-88258148D01*
X148839404Y-88444768D01*
X148839409Y-88444776D01*
X148965054Y-88611157D01*
X149119130Y-88751615D01*
X149119132Y-88751617D01*
X149296392Y-88861371D01*
X149296398Y-88861374D01*
X149490811Y-88936689D01*
X149650000Y-88966446D01*
X149650000Y-88379209D01*
X149727591Y-88400000D01*
X149872409Y-88400000D01*
X149950000Y-88379209D01*
X149950000Y-88966446D01*
X150109187Y-88936689D01*
X150109188Y-88936689D01*
X150303601Y-88861374D01*
X150303607Y-88861371D01*
X150480867Y-88751617D01*
X150480869Y-88751615D01*
X150634945Y-88611157D01*
X150760590Y-88444776D01*
X150760595Y-88444768D01*
X150853521Y-88258148D01*
X150853527Y-88258133D01*
X150910582Y-88057605D01*
X150910582Y-88057603D01*
X150915921Y-88000000D01*
X150329209Y-88000000D01*
X150350000Y-87922409D01*
X150350000Y-87777591D01*
X150329209Y-87700000D01*
X150915920Y-87700000D01*
X150910582Y-87642396D01*
X150910582Y-87642394D01*
X150853527Y-87441866D01*
X150853521Y-87441851D01*
X150760595Y-87255231D01*
X150760590Y-87255223D01*
X150634945Y-87088842D01*
X150480869Y-86948384D01*
X150480867Y-86948382D01*
X150303607Y-86838628D01*
X150303601Y-86838625D01*
X150109189Y-86763310D01*
X149950000Y-86733552D01*
X149950000Y-87320790D01*
X149872409Y-87300000D01*
X149727591Y-87300000D01*
X149650000Y-87320790D01*
X149650000Y-86733552D01*
X149490810Y-86763310D01*
X149296398Y-86838625D01*
X149296392Y-86838628D01*
X149119132Y-86948382D01*
X149119130Y-86948384D01*
X148965054Y-87088842D01*
X148839409Y-87255223D01*
X148839404Y-87255231D01*
X148746478Y-87441851D01*
X148746472Y-87441866D01*
X148689417Y-87642394D01*
X148689417Y-87642396D01*
X148684079Y-87700000D01*
X148375920Y-87700000D01*
X148370582Y-87642396D01*
X148370582Y-87642394D01*
X148313527Y-87441866D01*
X148313521Y-87441851D01*
X148220595Y-87255231D01*
X148220590Y-87255223D01*
X148094945Y-87088842D01*
X147940869Y-86948384D01*
X147940867Y-86948382D01*
X147763607Y-86838628D01*
X147763601Y-86838625D01*
X147569189Y-86763310D01*
X147410000Y-86733552D01*
X147410000Y-87320790D01*
X147332409Y-87300000D01*
X147187591Y-87300000D01*
X147110000Y-87320790D01*
X147110000Y-86733552D01*
X146950810Y-86763310D01*
X146756398Y-86838625D01*
X146756392Y-86838628D01*
X146579132Y-86948382D01*
X146579130Y-86948384D01*
X146425054Y-87088842D01*
X146299409Y-87255223D01*
X146299404Y-87255231D01*
X146206478Y-87441851D01*
X146206472Y-87441866D01*
X146149417Y-87642394D01*
X146149417Y-87642396D01*
X146144079Y-87700000D01*
X145650500Y-87700000D01*
X145650500Y-85896543D01*
X145670185Y-85829504D01*
X145686819Y-85808862D01*
X145798862Y-85696819D01*
X145860185Y-85663334D01*
X145886543Y-85660500D01*
X146156293Y-85660500D01*
X146223332Y-85680185D01*
X146267293Y-85729228D01*
X146341670Y-85878598D01*
X146341675Y-85878606D01*
X146461792Y-86037666D01*
X146588508Y-86153182D01*
X146609090Y-86171945D01*
X146778554Y-86276873D01*
X146964414Y-86348876D01*
X147160340Y-86385500D01*
X147160342Y-86385500D01*
X147359658Y-86385500D01*
X147359660Y-86385500D01*
X147555586Y-86348876D01*
X147741446Y-86276873D01*
X147910910Y-86171945D01*
X148058209Y-86037664D01*
X148178326Y-85878604D01*
X148252707Y-85729228D01*
X148300210Y-85677991D01*
X148363707Y-85660500D01*
X148696293Y-85660500D01*
X148763332Y-85680185D01*
X148807293Y-85729228D01*
X148881670Y-85878598D01*
X148881675Y-85878606D01*
X149001792Y-86037666D01*
X149128508Y-86153182D01*
X149149090Y-86171945D01*
X149318554Y-86276873D01*
X149504414Y-86348876D01*
X149700340Y-86385500D01*
X149700342Y-86385500D01*
X149899658Y-86385500D01*
X149899660Y-86385500D01*
X150095586Y-86348876D01*
X150281446Y-86276873D01*
X150450910Y-86171945D01*
X150598209Y-86037664D01*
X150718326Y-85878604D01*
X150807171Y-85700180D01*
X150861717Y-85508469D01*
X150880108Y-85310000D01*
X150861717Y-85111531D01*
X150807171Y-84919820D01*
X150792707Y-84890772D01*
X150718329Y-84741401D01*
X150718324Y-84741393D01*
X150598207Y-84582333D01*
X150450911Y-84448056D01*
X150450910Y-84448055D01*
X150335872Y-84376826D01*
X150281447Y-84343127D01*
X150281445Y-84343126D01*
X150199379Y-84311334D01*
X150095586Y-84271124D01*
X150095582Y-84271123D01*
X150016639Y-84256366D01*
X149899660Y-84234500D01*
X149700340Y-84234500D01*
X149610254Y-84251339D01*
X149504417Y-84271123D01*
X149504415Y-84271123D01*
X149504414Y-84271124D01*
X149386878Y-84316657D01*
X149318556Y-84343126D01*
X149318553Y-84343127D01*
X149235464Y-84394573D01*
X149168103Y-84413127D01*
X149101404Y-84392319D01*
X149082507Y-84376826D01*
X148940181Y-84234500D01*
X148781819Y-84076137D01*
X148748334Y-84014814D01*
X148745500Y-83988456D01*
X148745500Y-83528245D01*
X148765185Y-83461206D01*
X148817989Y-83415451D01*
X148887147Y-83405507D01*
X148950703Y-83434532D01*
X148968450Y-83453514D01*
X149001791Y-83497664D01*
X149001793Y-83497666D01*
X149035337Y-83528245D01*
X149149090Y-83631945D01*
X149318554Y-83736873D01*
X149504414Y-83808876D01*
X149700340Y-83845500D01*
X149700342Y-83845500D01*
X149899658Y-83845500D01*
X149899660Y-83845500D01*
X150095586Y-83808876D01*
X150281446Y-83736873D01*
X150450910Y-83631945D01*
X150577627Y-83516426D01*
X150598207Y-83497666D01*
X150625741Y-83461206D01*
X150718326Y-83338604D01*
X150807171Y-83160180D01*
X150861717Y-82968469D01*
X150880108Y-82770000D01*
X150861717Y-82571531D01*
X150807171Y-82379820D01*
X150768236Y-82301628D01*
X150718329Y-82201401D01*
X150718324Y-82201393D01*
X150598207Y-82042333D01*
X150450911Y-81908056D01*
X150450910Y-81908055D01*
X150333223Y-81835186D01*
X150281447Y-81803127D01*
X150281445Y-81803126D01*
X150191153Y-81768147D01*
X150095586Y-81731124D01*
X150095582Y-81731123D01*
X150016639Y-81716366D01*
X149899660Y-81694500D01*
X149700340Y-81694500D01*
X149610254Y-81711339D01*
X149504417Y-81731123D01*
X149504415Y-81731123D01*
X149504414Y-81731124D01*
X149452517Y-81751229D01*
X149318554Y-81803126D01*
X149318552Y-81803127D01*
X149149088Y-81908056D01*
X149001792Y-82042334D01*
X148968454Y-82086481D01*
X148912345Y-82128117D01*
X148842633Y-82132808D01*
X148781451Y-82099066D01*
X148748224Y-82037602D01*
X148745500Y-82011754D01*
X148745500Y-80988245D01*
X148765185Y-80921206D01*
X148817989Y-80875451D01*
X148887147Y-80865507D01*
X148950703Y-80894532D01*
X148968450Y-80913514D01*
X149001791Y-80957664D01*
X149001793Y-80957666D01*
X149035337Y-80988245D01*
X149149090Y-81091945D01*
X149318554Y-81196873D01*
X149504414Y-81268876D01*
X149700340Y-81305500D01*
X149700342Y-81305500D01*
X149899658Y-81305500D01*
X149899660Y-81305500D01*
X150095586Y-81268876D01*
X150281446Y-81196873D01*
X150450910Y-81091945D01*
X150577627Y-80976426D01*
X150598207Y-80957666D01*
X150625741Y-80921206D01*
X150718326Y-80798604D01*
X150807171Y-80620180D01*
X150861717Y-80428469D01*
X150880108Y-80230000D01*
X150861717Y-80031531D01*
X150807171Y-79839820D01*
X150792707Y-79810772D01*
X150718329Y-79661401D01*
X150718324Y-79661393D01*
X150598207Y-79502333D01*
X150450911Y-79368056D01*
X150450910Y-79368055D01*
X150333223Y-79295186D01*
X150281447Y-79263127D01*
X150281445Y-79263126D01*
X150191153Y-79228147D01*
X150095586Y-79191124D01*
X150095582Y-79191123D01*
X150016639Y-79176366D01*
X149899660Y-79154500D01*
X149700340Y-79154500D01*
X149610254Y-79171339D01*
X149504417Y-79191123D01*
X149504415Y-79191123D01*
X149504414Y-79191124D01*
X149452517Y-79211229D01*
X149318554Y-79263126D01*
X149318552Y-79263127D01*
X149149088Y-79368056D01*
X149001792Y-79502334D01*
X148968454Y-79546481D01*
X148912345Y-79588117D01*
X148842633Y-79592808D01*
X148781451Y-79559066D01*
X148748224Y-79497602D01*
X148745500Y-79471754D01*
X148745500Y-78697487D01*
X148765185Y-78630448D01*
X148817989Y-78584693D01*
X148887147Y-78574749D01*
X148950703Y-78603774D01*
X148957181Y-78609806D01*
X148975608Y-78628233D01*
X148975610Y-78628234D01*
X148975612Y-78628236D01*
X149113398Y-78711531D01*
X149267113Y-78759430D01*
X149333909Y-78765500D01*
X150266090Y-78765499D01*
X150266097Y-78765499D01*
X150332882Y-78759431D01*
X150332885Y-78759430D01*
X150332887Y-78759430D01*
X150486602Y-78711531D01*
X150624388Y-78628236D01*
X150738236Y-78514388D01*
X150821531Y-78376602D01*
X150869430Y-78222887D01*
X150875500Y-78156091D01*
X150875499Y-77223910D01*
X150875499Y-77223901D01*
X150869431Y-77157117D01*
X150869428Y-77157106D01*
X150821532Y-77003401D01*
X150821531Y-77003400D01*
X150821531Y-77003398D01*
X150738236Y-76865612D01*
X150738234Y-76865610D01*
X150738233Y-76865608D01*
X150624391Y-76751766D01*
X150486602Y-76668469D01*
X150430936Y-76651123D01*
X150332887Y-76620570D01*
X150332885Y-76620569D01*
X150332883Y-76620569D01*
X150286117Y-76616319D01*
X150266091Y-76614500D01*
X150266088Y-76614500D01*
X149994500Y-76614500D01*
X149927461Y-76594815D01*
X149881706Y-76542011D01*
X149870500Y-76490500D01*
X149870500Y-71373858D01*
X149870500Y-71373856D01*
X149846614Y-71284712D01*
X149824346Y-71246143D01*
X149800470Y-71204788D01*
X145786819Y-67191137D01*
X145753334Y-67129814D01*
X145750500Y-67103456D01*
X145750500Y-65975323D01*
X145750499Y-65975321D01*
X145735967Y-65902264D01*
X145735966Y-65902260D01*
X145680601Y-65819399D01*
X145597740Y-65764034D01*
X145597739Y-65764033D01*
X145597735Y-65764032D01*
X145524677Y-65749500D01*
X145524674Y-65749500D01*
X144075326Y-65749500D01*
X144075323Y-65749500D01*
X144002264Y-65764032D01*
X144002260Y-65764033D01*
X143919398Y-65819399D01*
X143877602Y-65881953D01*
X143823990Y-65926758D01*
X143754665Y-65935465D01*
X143691637Y-65905311D01*
X143654918Y-65845868D01*
X143650500Y-65813062D01*
X143650500Y-62800000D01*
X146144079Y-62800000D01*
X146730791Y-62800000D01*
X146710000Y-62877591D01*
X146710000Y-63022409D01*
X146730791Y-63100000D01*
X146144079Y-63100000D01*
X146149417Y-63157603D01*
X146149417Y-63157605D01*
X146206472Y-63358133D01*
X146206478Y-63358148D01*
X146299404Y-63544768D01*
X146299409Y-63544776D01*
X146425054Y-63711157D01*
X146579130Y-63851615D01*
X146579132Y-63851617D01*
X146756392Y-63961371D01*
X146756398Y-63961374D01*
X146950811Y-64036689D01*
X147110000Y-64066446D01*
X147110000Y-63479209D01*
X147187591Y-63500000D01*
X147332409Y-63500000D01*
X147410000Y-63479209D01*
X147410000Y-64066446D01*
X147569187Y-64036689D01*
X147569188Y-64036689D01*
X147763601Y-63961374D01*
X147763607Y-63961371D01*
X147940867Y-63851617D01*
X147940869Y-63851615D01*
X148094945Y-63711157D01*
X148220590Y-63544776D01*
X148220595Y-63544768D01*
X148313521Y-63358148D01*
X148313527Y-63358133D01*
X148370582Y-63157605D01*
X148370582Y-63157603D01*
X148375921Y-63100000D01*
X147789209Y-63100000D01*
X147810000Y-63022409D01*
X147810000Y-62877591D01*
X147789209Y-62800000D01*
X148375920Y-62800000D01*
X148684079Y-62800000D01*
X149270791Y-62800000D01*
X149250000Y-62877591D01*
X149250000Y-63022409D01*
X149270791Y-63100000D01*
X148684079Y-63100000D01*
X148689417Y-63157603D01*
X148689417Y-63157605D01*
X148746472Y-63358133D01*
X148746478Y-63358148D01*
X148839404Y-63544768D01*
X148839409Y-63544776D01*
X148965054Y-63711157D01*
X149119130Y-63851615D01*
X149119132Y-63851617D01*
X149296392Y-63961371D01*
X149296398Y-63961374D01*
X149490811Y-64036689D01*
X149650000Y-64066446D01*
X149650000Y-63479209D01*
X149727591Y-63500000D01*
X149872409Y-63500000D01*
X149950000Y-63479209D01*
X149950000Y-64066446D01*
X150109187Y-64036689D01*
X150109188Y-64036689D01*
X150303601Y-63961374D01*
X150303607Y-63961371D01*
X150480867Y-63851617D01*
X150480869Y-63851615D01*
X150634945Y-63711157D01*
X150760590Y-63544776D01*
X150760595Y-63544768D01*
X150853521Y-63358148D01*
X150853527Y-63358133D01*
X150910582Y-63157605D01*
X150910582Y-63157603D01*
X150915921Y-63100000D01*
X150329209Y-63100000D01*
X150350000Y-63022409D01*
X150350000Y-62877591D01*
X150329209Y-62800000D01*
X150915920Y-62800000D01*
X150910582Y-62742396D01*
X150910582Y-62742394D01*
X150853527Y-62541866D01*
X150853521Y-62541851D01*
X150760595Y-62355231D01*
X150760590Y-62355223D01*
X150634945Y-62188842D01*
X150480869Y-62048384D01*
X150480867Y-62048382D01*
X150303607Y-61938628D01*
X150303601Y-61938625D01*
X150109189Y-61863310D01*
X149950000Y-61833552D01*
X149950000Y-62420790D01*
X149872409Y-62400000D01*
X149727591Y-62400000D01*
X149650000Y-62420790D01*
X149650000Y-61833552D01*
X149490810Y-61863310D01*
X149296398Y-61938625D01*
X149296392Y-61938628D01*
X149119132Y-62048382D01*
X149119130Y-62048384D01*
X148965054Y-62188842D01*
X148839409Y-62355223D01*
X148839404Y-62355231D01*
X148746478Y-62541851D01*
X148746472Y-62541866D01*
X148689417Y-62742394D01*
X148689417Y-62742396D01*
X148684079Y-62800000D01*
X148375920Y-62800000D01*
X148370582Y-62742396D01*
X148370582Y-62742394D01*
X148313527Y-62541866D01*
X148313521Y-62541851D01*
X148220595Y-62355231D01*
X148220590Y-62355223D01*
X148094945Y-62188842D01*
X147940869Y-62048384D01*
X147940867Y-62048382D01*
X147763607Y-61938628D01*
X147763601Y-61938625D01*
X147569189Y-61863310D01*
X147410000Y-61833552D01*
X147410000Y-62420790D01*
X147332409Y-62400000D01*
X147187591Y-62400000D01*
X147110000Y-62420790D01*
X147110000Y-61833552D01*
X146950810Y-61863310D01*
X146756398Y-61938625D01*
X146756392Y-61938628D01*
X146579132Y-62048382D01*
X146579130Y-62048384D01*
X146425054Y-62188842D01*
X146299409Y-62355223D01*
X146299404Y-62355231D01*
X146206478Y-62541851D01*
X146206472Y-62541866D01*
X146149417Y-62742394D01*
X146149417Y-62742396D01*
X146144079Y-62800000D01*
X143650500Y-62800000D01*
X143650500Y-56750286D01*
X143670185Y-56683247D01*
X143722989Y-56637492D01*
X143792147Y-56627548D01*
X143855703Y-56656573D01*
X143884985Y-56693992D01*
X143935975Y-56794068D01*
X143969230Y-56839838D01*
X144046661Y-56946413D01*
X144046663Y-56946415D01*
X145882759Y-58782511D01*
X145882764Y-58782515D01*
X146035096Y-58893190D01*
X146035098Y-58893191D01*
X146035101Y-58893193D01*
X146202883Y-58978682D01*
X146381973Y-59036872D01*
X146567961Y-59066330D01*
X146567962Y-59066330D01*
X146984640Y-59066330D01*
X147051679Y-59086015D01*
X147097434Y-59138819D01*
X147107378Y-59207977D01*
X147078353Y-59271533D01*
X147019575Y-59309307D01*
X147007437Y-59312216D01*
X146950673Y-59322827D01*
X146950671Y-59322827D01*
X146950669Y-59322828D01*
X146756172Y-59398176D01*
X146756171Y-59398177D01*
X146578827Y-59507985D01*
X146424683Y-59648505D01*
X146298981Y-59814961D01*
X146206007Y-60001677D01*
X146148923Y-60202308D01*
X146129678Y-60409999D01*
X146129678Y-60410000D01*
X146148923Y-60617691D01*
X146148923Y-60617693D01*
X146148924Y-60617696D01*
X146206006Y-60818319D01*
X146298981Y-61005038D01*
X146424682Y-61171493D01*
X146578829Y-61312016D01*
X146756172Y-61421823D01*
X146950673Y-61497173D01*
X147155707Y-61535500D01*
X147155710Y-61535500D01*
X147364290Y-61535500D01*
X147364293Y-61535500D01*
X147569327Y-61497173D01*
X147763828Y-61421823D01*
X147941171Y-61312016D01*
X148095318Y-61171493D01*
X148221019Y-61005038D01*
X148313994Y-60818319D01*
X148371076Y-60617696D01*
X148390322Y-60410000D01*
X148371076Y-60202304D01*
X148313994Y-60001681D01*
X148221019Y-59814962D01*
X148095318Y-59648507D01*
X147941171Y-59507984D01*
X147763828Y-59398177D01*
X147763827Y-59398176D01*
X147569330Y-59322828D01*
X147569329Y-59322827D01*
X147569327Y-59322827D01*
X147512572Y-59312217D01*
X147450294Y-59280551D01*
X147415021Y-59220239D01*
X147417955Y-59150431D01*
X147458163Y-59093290D01*
X147522882Y-59066959D01*
X147535360Y-59066330D01*
X149524640Y-59066330D01*
X149591679Y-59086015D01*
X149637434Y-59138819D01*
X149647378Y-59207977D01*
X149618353Y-59271533D01*
X149559575Y-59309307D01*
X149547437Y-59312216D01*
X149490673Y-59322827D01*
X149490671Y-59322827D01*
X149490669Y-59322828D01*
X149296172Y-59398176D01*
X149296171Y-59398177D01*
X149118827Y-59507985D01*
X148964683Y-59648505D01*
X148838981Y-59814961D01*
X148746007Y-60001677D01*
X148688923Y-60202308D01*
X148669678Y-60409999D01*
X148669678Y-60410000D01*
X148688923Y-60617691D01*
X148688923Y-60617693D01*
X148688924Y-60617696D01*
X148746006Y-60818319D01*
X148838981Y-61005038D01*
X148964682Y-61171493D01*
X149118829Y-61312016D01*
X149296172Y-61421823D01*
X149490673Y-61497173D01*
X149695707Y-61535500D01*
X149695710Y-61535500D01*
X149904290Y-61535500D01*
X149904293Y-61535500D01*
X150109327Y-61497173D01*
X150303828Y-61421823D01*
X150481171Y-61312016D01*
X150635318Y-61171493D01*
X150761019Y-61005038D01*
X150853994Y-60818319D01*
X150911076Y-60617696D01*
X150930322Y-60410000D01*
X150911076Y-60202304D01*
X150853994Y-60001681D01*
X150761019Y-59814962D01*
X150635318Y-59648507D01*
X150481171Y-59507984D01*
X150303828Y-59398177D01*
X150303827Y-59398176D01*
X150161609Y-59343081D01*
X150109327Y-59322827D01*
X149904293Y-59284500D01*
X149812248Y-59284500D01*
X149745209Y-59264815D01*
X149699454Y-59212011D01*
X149689510Y-59142853D01*
X149718535Y-59079297D01*
X149777313Y-59041523D01*
X149792849Y-59038027D01*
X149793481Y-59037926D01*
X149800141Y-59036872D01*
X149951233Y-58987778D01*
X149966756Y-58983823D01*
X150109327Y-58957173D01*
X150303828Y-58881823D01*
X150481171Y-58772016D01*
X150635318Y-58631493D01*
X150761019Y-58465038D01*
X150853994Y-58278319D01*
X150911076Y-58077696D01*
X150930322Y-57870000D01*
X150911076Y-57662304D01*
X150853994Y-57461681D01*
X150761019Y-57274962D01*
X150635318Y-57108507D01*
X150481171Y-56967984D01*
X150303828Y-56858177D01*
X150303824Y-56858175D01*
X150174160Y-56807943D01*
X150109327Y-56782827D01*
X150052575Y-56772218D01*
X149990297Y-56740550D01*
X149955024Y-56680238D01*
X149957958Y-56610430D01*
X149998167Y-56553290D01*
X150062886Y-56526959D01*
X150075363Y-56526330D01*
X151060878Y-56526330D01*
X151060879Y-56526330D01*
X151221437Y-56500899D01*
X151221438Y-56500899D01*
X151228336Y-56499806D01*
X151246868Y-56496872D01*
X151425957Y-56438682D01*
X151593740Y-56353193D01*
X151746083Y-56242509D01*
X152733339Y-55255253D01*
X152844022Y-55102910D01*
X152866715Y-55058374D01*
X152911373Y-54970727D01*
X152929512Y-54935128D01*
X152987702Y-54756038D01*
X152996104Y-54702987D01*
X153017160Y-54570049D01*
X153017160Y-51617155D01*
X152987702Y-51431167D01*
X152929512Y-51252077D01*
X152844023Y-51084295D01*
X152733340Y-50931951D01*
X145497219Y-43695831D01*
X145344876Y-43585147D01*
X145177093Y-43499658D01*
X144998004Y-43441468D01*
X144998002Y-43441467D01*
X144998001Y-43441467D01*
X144972573Y-43437440D01*
X144945342Y-43433127D01*
X144812015Y-43412010D01*
X144812014Y-43412010D01*
X136539886Y-43412010D01*
X136520488Y-43410483D01*
X136477473Y-43403670D01*
X133894153Y-43403670D01*
X133705847Y-43403670D01*
X133662832Y-43410483D01*
X133519862Y-43433127D01*
X133340766Y-43491319D01*
X133172986Y-43576807D01*
X133086069Y-43639956D01*
X133020644Y-43687491D01*
X133020642Y-43687493D01*
X133020641Y-43687493D01*
X132887493Y-43820641D01*
X132887493Y-43820642D01*
X132887491Y-43820644D01*
X132839956Y-43886069D01*
X132776807Y-43972986D01*
X132691319Y-44140766D01*
X132633127Y-44319862D01*
X132603670Y-44505847D01*
X132603670Y-45653101D01*
X132583985Y-45720140D01*
X132567351Y-45740782D01*
X132230512Y-46077620D01*
X132169189Y-46111105D01*
X132159020Y-46112878D01*
X132143238Y-46114956D01*
X131997160Y-46175463D01*
X131871718Y-46271718D01*
X131775463Y-46397160D01*
X131714956Y-46543237D01*
X131714955Y-46543239D01*
X131694318Y-46699998D01*
X131694318Y-46708127D01*
X131692370Y-46708127D01*
X131688602Y-46749127D01*
X131653630Y-46856761D01*
X131633127Y-46919861D01*
X131633127Y-46919862D01*
X131603670Y-47105847D01*
X131603670Y-47294151D01*
X131619985Y-47397159D01*
X131619985Y-47397160D01*
X131633126Y-47480137D01*
X131633127Y-47480139D01*
X131688602Y-47650873D01*
X131692370Y-47691873D01*
X131694318Y-47691873D01*
X131694318Y-47700001D01*
X131714955Y-47856760D01*
X131714956Y-47856762D01*
X131775464Y-48002841D01*
X131871718Y-48128282D01*
X131997159Y-48224536D01*
X132143238Y-48285044D01*
X132300000Y-48305682D01*
X132308130Y-48305682D01*
X132308130Y-48307632D01*
X132349127Y-48311397D01*
X132519858Y-48366872D01*
X132519863Y-48366872D01*
X132519864Y-48366873D01*
X132545180Y-48370882D01*
X132545195Y-48370884D01*
X132545288Y-48370899D01*
X132705847Y-48396330D01*
X132705849Y-48396330D01*
X135894152Y-48396330D01*
X135894153Y-48396330D01*
X136080141Y-48366872D01*
X136250872Y-48311397D01*
X136291871Y-48307630D01*
X136291871Y-48305682D01*
X136300001Y-48305682D01*
X136352254Y-48298802D01*
X136456762Y-48285044D01*
X136602841Y-48224536D01*
X136728282Y-48128282D01*
X136824536Y-48002841D01*
X136885044Y-47856762D01*
X136905682Y-47700000D01*
X136905682Y-47691871D01*
X136907631Y-47691871D01*
X136911398Y-47650872D01*
X136966872Y-47480141D01*
X136996330Y-47294153D01*
X136996330Y-47105847D01*
X136966872Y-46919859D01*
X136911397Y-46749127D01*
X136907632Y-46708130D01*
X136905682Y-46708130D01*
X136905682Y-46699998D01*
X136891923Y-46595492D01*
X136885044Y-46543238D01*
X136824536Y-46397159D01*
X136728282Y-46271718D01*
X136711370Y-46258741D01*
X136666106Y-46224008D01*
X136624904Y-46167580D01*
X136620749Y-46097834D01*
X136653909Y-46037956D01*
X136850878Y-45840986D01*
X136912201Y-45807504D01*
X136938558Y-45804670D01*
X138704101Y-45804670D01*
X138771140Y-45824355D01*
X138816895Y-45877159D01*
X138826839Y-45946317D01*
X138797814Y-46009873D01*
X138791791Y-46016341D01*
X138738064Y-46070068D01*
X138730512Y-46077621D01*
X138669188Y-46111105D01*
X138659020Y-46112878D01*
X138643238Y-46114956D01*
X138497160Y-46175463D01*
X138371718Y-46271718D01*
X138275463Y-46397160D01*
X138214956Y-46543237D01*
X138214955Y-46543239D01*
X138194318Y-46699998D01*
X138194318Y-46708127D01*
X138192370Y-46708127D01*
X138188602Y-46749128D01*
X138133128Y-46919857D01*
X138103671Y-47105841D01*
X138103671Y-47294158D01*
X138133128Y-47480142D01*
X138188602Y-47650872D01*
X138192370Y-47691873D01*
X138194318Y-47691873D01*
X138194318Y-47700001D01*
X138214955Y-47856760D01*
X138214956Y-47856762D01*
X138275464Y-48002841D01*
X138371718Y-48128282D01*
X138497159Y-48224536D01*
X138643238Y-48285044D01*
X138659015Y-48287121D01*
X138722909Y-48315383D01*
X138730512Y-48322378D01*
X139020644Y-48612510D01*
X139020649Y-48612514D01*
X139072494Y-48650182D01*
X139115160Y-48705512D01*
X139121139Y-48775125D01*
X139088533Y-48836920D01*
X139027695Y-48871277D01*
X138999609Y-48874500D01*
X125134108Y-48874500D01*
X125006812Y-48908608D01*
X124892686Y-48974500D01*
X124892683Y-48974502D01*
X124799502Y-49067683D01*
X124799500Y-49067686D01*
X124733608Y-49181812D01*
X124699500Y-49309108D01*
X124699500Y-65724457D01*
X124679815Y-65791496D01*
X124627011Y-65837251D01*
X124557853Y-65847195D01*
X124494297Y-65818170D01*
X124487819Y-65812138D01*
X123829932Y-65154251D01*
X123796447Y-65092928D01*
X123801431Y-65023236D01*
X123806610Y-65011305D01*
X123807171Y-65010180D01*
X123861717Y-64818469D01*
X123880108Y-64620000D01*
X123861717Y-64421531D01*
X123807171Y-64229820D01*
X123805759Y-64226984D01*
X123718329Y-64051401D01*
X123718324Y-64051393D01*
X123598207Y-63892333D01*
X123450911Y-63758056D01*
X123450910Y-63758055D01*
X123375167Y-63711157D01*
X123281447Y-63653127D01*
X123281445Y-63653126D01*
X123199379Y-63621334D01*
X123095586Y-63581124D01*
X123095582Y-63581123D01*
X123016639Y-63566366D01*
X122899660Y-63544500D01*
X122700340Y-63544500D01*
X122610254Y-63561339D01*
X122504417Y-63581123D01*
X122504415Y-63581123D01*
X122504414Y-63581124D01*
X122452517Y-63601229D01*
X122318554Y-63653126D01*
X122318552Y-63653127D01*
X122149088Y-63758056D01*
X122001792Y-63892333D01*
X121881675Y-64051393D01*
X121881670Y-64051401D01*
X121792830Y-64229816D01*
X121738282Y-64421535D01*
X121719892Y-64619999D01*
X121719892Y-64620000D01*
X121738282Y-64818464D01*
X121792830Y-65010183D01*
X121881670Y-65188598D01*
X121881675Y-65188606D01*
X122001792Y-65347666D01*
X122128508Y-65463182D01*
X122149090Y-65481945D01*
X122318554Y-65586873D01*
X122504414Y-65658876D01*
X122700340Y-65695500D01*
X122700342Y-65695500D01*
X122899658Y-65695500D01*
X122899660Y-65695500D01*
X123095586Y-65658876D01*
X123198712Y-65618923D01*
X123268334Y-65613061D01*
X123330075Y-65645770D01*
X123331187Y-65646869D01*
X123913181Y-66228862D01*
X123946666Y-66290185D01*
X123949500Y-66316543D01*
X123949500Y-66528939D01*
X123929815Y-66595978D01*
X123877011Y-66641733D01*
X123807853Y-66651677D01*
X123744297Y-66622652D01*
X123720076Y-66594221D01*
X123718329Y-66591400D01*
X123598207Y-66432333D01*
X123450911Y-66298056D01*
X123450910Y-66298055D01*
X123339160Y-66228862D01*
X123281447Y-66193127D01*
X123281445Y-66193126D01*
X123199379Y-66161334D01*
X123095586Y-66121124D01*
X123095582Y-66121123D01*
X123016639Y-66106366D01*
X122899660Y-66084500D01*
X122700340Y-66084500D01*
X122610254Y-66101339D01*
X122504417Y-66121123D01*
X122504415Y-66121123D01*
X122504414Y-66121124D01*
X122452517Y-66141229D01*
X122318554Y-66193126D01*
X122318552Y-66193127D01*
X122149088Y-66298056D01*
X122001792Y-66432333D01*
X121881675Y-66591393D01*
X121881670Y-66591401D01*
X121792830Y-66769816D01*
X121738282Y-66961535D01*
X121719892Y-67159999D01*
X121719892Y-67160000D01*
X121738282Y-67358464D01*
X121792830Y-67550183D01*
X121881670Y-67728598D01*
X121881675Y-67728606D01*
X122001792Y-67887666D01*
X122128508Y-68003182D01*
X122149090Y-68021945D01*
X122318554Y-68126873D01*
X122504414Y-68198876D01*
X122700340Y-68235500D01*
X122700342Y-68235500D01*
X122899658Y-68235500D01*
X122899660Y-68235500D01*
X123095586Y-68198876D01*
X123281446Y-68126873D01*
X123450910Y-68021945D01*
X123598209Y-67887664D01*
X123718326Y-67728604D01*
X123718330Y-67728595D01*
X123720072Y-67725784D01*
X123721259Y-67724719D01*
X123721781Y-67724029D01*
X123721916Y-67724131D01*
X123772099Y-67679148D01*
X123841081Y-67668043D01*
X123905116Y-67695995D01*
X123943873Y-67754130D01*
X123949500Y-67791060D01*
X123949500Y-68985414D01*
X123929815Y-69052453D01*
X123877011Y-69098208D01*
X123807853Y-69108152D01*
X123744297Y-69079127D01*
X123726546Y-69060141D01*
X123634945Y-68938842D01*
X123480869Y-68798384D01*
X123480867Y-68798382D01*
X123303607Y-68688628D01*
X123303601Y-68688625D01*
X123109189Y-68613310D01*
X122950000Y-68583552D01*
X122950000Y-69170790D01*
X122872409Y-69150000D01*
X122727591Y-69150000D01*
X122650000Y-69170790D01*
X122650000Y-68583552D01*
X122490810Y-68613310D01*
X122296398Y-68688625D01*
X122296392Y-68688628D01*
X122119132Y-68798382D01*
X122119130Y-68798384D01*
X121965054Y-68938842D01*
X121839409Y-69105223D01*
X121839404Y-69105231D01*
X121746478Y-69291851D01*
X121746472Y-69291866D01*
X121689417Y-69492394D01*
X121689417Y-69492396D01*
X121684079Y-69550000D01*
X119449728Y-69550000D01*
X119441201Y-62079999D01*
X121719892Y-62079999D01*
X121719892Y-62080000D01*
X121738282Y-62278464D01*
X121738282Y-62278466D01*
X121738283Y-62278469D01*
X121772861Y-62400000D01*
X121792830Y-62470183D01*
X121881670Y-62648598D01*
X121881675Y-62648606D01*
X122001792Y-62807666D01*
X122078497Y-62877591D01*
X122149090Y-62941945D01*
X122318554Y-63046873D01*
X122504414Y-63118876D01*
X122700340Y-63155500D01*
X122700342Y-63155500D01*
X122899658Y-63155500D01*
X122899660Y-63155500D01*
X123095586Y-63118876D01*
X123281446Y-63046873D01*
X123450910Y-62941945D01*
X123598209Y-62807664D01*
X123718326Y-62648604D01*
X123807171Y-62470180D01*
X123861717Y-62278469D01*
X123880108Y-62080000D01*
X123861717Y-61881531D01*
X123807171Y-61689820D01*
X123805759Y-61686984D01*
X123718329Y-61511401D01*
X123718324Y-61511393D01*
X123598207Y-61352333D01*
X123450911Y-61218056D01*
X123450910Y-61218055D01*
X123375710Y-61171493D01*
X123281447Y-61113127D01*
X123281445Y-61113126D01*
X123199379Y-61081334D01*
X123095586Y-61041124D01*
X123095582Y-61041123D01*
X123016639Y-61026366D01*
X122899660Y-61004500D01*
X122700340Y-61004500D01*
X122610254Y-61021339D01*
X122504417Y-61041123D01*
X122504415Y-61041123D01*
X122504414Y-61041124D01*
X122452517Y-61061229D01*
X122318554Y-61113126D01*
X122318552Y-61113127D01*
X122149088Y-61218056D01*
X122001792Y-61352333D01*
X121881675Y-61511393D01*
X121881670Y-61511401D01*
X121792830Y-61689816D01*
X121738282Y-61881535D01*
X121719892Y-62079999D01*
X119441201Y-62079999D01*
X119423476Y-46552767D01*
X119423594Y-46547225D01*
X119426324Y-46484690D01*
X119440358Y-46163234D01*
X119441297Y-46152504D01*
X119491124Y-45774027D01*
X119492995Y-45763416D01*
X119575619Y-45390714D01*
X119578410Y-45380300D01*
X119693200Y-45016230D01*
X119696894Y-45006082D01*
X119708043Y-44979166D01*
X119842971Y-44653419D01*
X119847530Y-44643641D01*
X120023790Y-44305046D01*
X120029193Y-44295689D01*
X120234294Y-43973740D01*
X120240490Y-43964894D01*
X120472856Y-43662067D01*
X120479806Y-43653784D01*
X120550342Y-43576807D01*
X120737695Y-43372345D01*
X120745326Y-43364715D01*
X121026775Y-43106812D01*
X121035013Y-43099899D01*
X121337889Y-42867492D01*
X121346713Y-42861314D01*
X121668675Y-42656199D01*
X121678003Y-42650814D01*
X122016600Y-42474549D01*
X122026391Y-42469983D01*
X122379061Y-42323901D01*
X122389197Y-42320212D01*
X122753262Y-42205420D01*
X122763688Y-42202627D01*
X123136379Y-42120001D01*
X123146998Y-42118129D01*
X123525469Y-42068301D01*
X123536203Y-42067361D01*
X123900036Y-42051473D01*
X123919382Y-42050629D01*
X123924791Y-42050511D01*
X124040224Y-42050511D01*
X124040227Y-42050509D01*
X145540892Y-42050500D01*
X148874108Y-42050500D01*
X148937294Y-42050500D01*
X148942702Y-42050617D01*
G37*
%TD.AperFunction*%
%TD*%
D16*
X141800000Y-47700000D03*
X138800000Y-47700000D03*
X138800000Y-46700000D03*
X142800000Y-46700000D03*
X139800000Y-47700000D03*
X141800000Y-46700000D03*
X140800000Y-47700000D03*
X139800000Y-46700000D03*
X142800000Y-47700000D03*
X140800000Y-46700000D03*
X146775735Y-75224265D03*
X135300000Y-46700000D03*
X134300000Y-46700000D03*
X132300000Y-46700000D03*
X133300000Y-47700000D03*
X133300000Y-46700000D03*
X135300000Y-47700000D03*
X132300000Y-47700000D03*
X134300000Y-47700000D03*
X136300000Y-47700000D03*
X136300000Y-46700000D03*
X135800000Y-92200000D03*
X135300000Y-91700000D03*
X129743948Y-91774783D03*
X130300000Y-92200000D03*
X133300000Y-91700000D03*
X133800000Y-92200000D03*
X148300000Y-71200000D03*
X131600000Y-91600000D03*
X132000000Y-92200000D03*
X146800000Y-71200000D03*
X124300000Y-82700000D03*
D17*
X122800000Y-62080000D03*
X122800000Y-64620000D03*
X122800000Y-67160000D03*
X122800000Y-69700000D03*
X122800000Y-72240000D03*
X149800000Y-52790000D03*
X147260000Y-52790000D03*
X149800000Y-55330000D03*
X147260000Y-55330000D03*
X149800000Y-57870000D03*
X147260000Y-57870000D03*
X149800000Y-60410000D03*
X147260000Y-60410000D03*
X149800000Y-62950000D03*
X147260000Y-62950000D03*
X149800000Y-77690000D03*
X147260000Y-77690000D03*
X149800000Y-80230000D03*
X147260000Y-80230000D03*
X149800000Y-82770000D03*
X147260000Y-82770000D03*
X149800000Y-85310000D03*
X147260000Y-85310000D03*
X149800000Y-87850000D03*
X147260000Y-87850000D03*
M02*
